<svg width="308" height="280" viewBox="0 0 308 280" fill="none" xmlns="http://www.w3.org/2000/svg">
<circle cx="168" cy="140" r="120" fill="#F1EBFF"/>
<mask id="mask0_5593_20602" style="mask-type:alpha" maskUnits="userSpaceOnUse" x="48" y="20" width="240" height="240">
<circle cx="168" cy="140" r="120" fill="#F1EBFF"/>
</mask>
<g mask="url(#mask0_5593_20602)">
<path d="M134.46 174.494C133.349 174.315 132.456 172.814 132.647 172.08C132.841 171.336 134.143 171.42 134.258 171.428C135.389 171.503 136.626 172.446 136.514 173.274C136.419 173.986 135.324 174.633 134.46 174.494ZM132.049 180.023C131.255 180.689 128.446 179.243 127.124 177.018C126.42 175.833 125.841 173.928 126.504 173.397C127.263 172.789 129.559 174.064 130.854 175.745C131.958 177.179 132.746 179.439 132.049 180.023ZM129.627 164.201C129.821 163.646 131.54 163.817 131.692 163.832C133.186 163.981 134.891 164.805 134.812 165.43C134.744 165.968 133.357 166.374 132.209 166.198C130.734 165.971 129.435 164.748 129.627 164.201ZM124.273 160.477C123.647 160.675 122.766 160.068 122.426 159.349C121.713 157.848 123.272 155.676 124.098 155.775C124.671 155.844 124.943 157.013 125.019 157.34C125.283 158.477 125.132 160.202 124.273 160.477ZM119.685 171.915C118.646 171.736 117.988 167.686 119.013 167.109C119.618 166.768 121.005 167.53 121.416 168.717C121.984 170.359 120.416 172.04 119.685 171.915ZM143.208 173.148C141.077 171.465 137.697 172.194 137.169 170.554C136.932 169.818 137.46 169.083 137.603 168.899C138.451 167.807 140.397 167.551 142.417 168.443C141.266 163.36 139.804 162.033 138.636 161.819C137.302 161.574 135.759 162.668 133.784 161.819C132.949 161.46 132.882 161.117 132.871 161.017C132.808 160.412 133.9 159.806 134.621 159.574C135.927 159.154 137.147 159.6 137.712 159.858C137.064 158.68 135.986 157.209 134.267 156.653C131.066 155.617 127.686 158.403 127.025 157.536C126.664 157.061 127.488 155.846 128.077 155.254C129.47 153.857 131.382 154.109 131.607 154.143C131.264 153.823 128.487 151.309 124.658 151.943C122.059 152.374 119.04 154.241 118.706 156.615C118.435 158.543 120.045 160.023 119.122 161.471C118.635 162.235 117.771 162.476 117.625 162.514C116.316 162.856 115.427 161.922 114.162 161.491C111.744 160.668 108.64 161.908 106.835 163.769C106.55 164.063 104.607 166.13 104.609 169.172C104.611 171.45 105.467 173.809 106.139 173.784C106.604 173.766 106.572 172.538 107.783 170.395C108.453 169.212 109.308 167.741 110.449 167.728C110.934 167.723 111.469 167.983 111.775 168.37C113.326 170.332 108.286 174.691 109.398 178.36C109.563 178.905 109.903 179.509 110.528 180.115C107.197 188.307 104.494 196.857 102.49 205.635C100.049 216.304 98.6272 227.3 98.2518 238.354L99.7918 238.413C100.035 227.488 101.313 216.587 103.608 205.977C105.479 197.306 108.041 188.836 111.223 180.695C111.97 181.234 112.981 181.76 114.388 182.233C114.221 181.297 114.075 179.572 114.936 177.827C115.107 177.48 116.321 175.017 117.919 175.11C118.477 175.143 118.893 175.476 119.064 175.634C121.079 177.509 117.734 182.112 119.434 185.064C119.969 185.992 121.24 187.172 124.772 187.522C124.244 185.71 124.334 184.268 124.466 183.408C124.618 182.412 124.817 181.115 125.688 180.765C126.272 180.53 127.063 180.757 127.569 181.186C129.481 182.808 126.781 186.88 128.512 189.148C129.1 189.917 130.349 190.68 133.295 190.51C133.209 190.339 132.102 188.036 133.36 186.13C133.777 185.498 134.775 184.422 135.631 184.65C136.875 184.982 136.3 187.661 137.897 189.174C138.655 189.891 140.167 190.596 143.539 189.896C144.241 188.233 144.8 186.064 143.89 184.221C142.762 181.94 139.921 181.252 140.174 180.151C140.339 179.428 141.692 179.165 142.241 179.114C143.924 178.959 145.072 180.146 145.227 180.311C145.497 176.052 144.42 174.104 143.208 173.148ZM84.9924 171.909C83.858 172.527 81.9812 171.427 81.1668 170.089C79.8348 167.898 80.9748 164.447 82.3948 164.158C83.6671 163.899 85.3974 166.128 85.8055 168.215C85.8412 168.396 86.3528 171.168 84.9924 171.909ZM83.8887 145.357C84.2667 145.445 84.4218 146.006 84.6323 146.803C84.9518 148.012 85.3987 150.766 84.463 151.169C83.7072 151.495 82.0206 150.303 81.7534 148.765C81.4444 146.984 83.1156 145.176 83.8887 145.357ZM78.861 163.787C78.227 163.993 77.1289 162.923 76.8568 161.775C76.7183 161.19 76.674 160.077 77.3135 159.746C77.8515 159.466 78.6234 159.87 79.0266 160.308C80.0084 161.376 79.6194 163.541 78.861 163.787ZM92.2466 162.622C92.5851 161.959 94.3062 162.163 95.3975 162.595C95.5717 162.664 97.2423 163.341 97.161 164.052C97.081 164.759 95.2689 165.492 93.8771 164.924C92.7808 164.475 91.9419 163.219 92.2466 162.622ZM96.9222 168.881C100.364 168.229 102.006 163.39 102.274 162.601C103.5 158.986 102.666 155.471 102.17 155.428C101.755 155.392 101.726 157.815 99.7691 159.181C99.2477 159.545 98.12 160.161 97.6411 159.778C96.9388 159.216 98.3657 157.093 98.919 153.665C99.2249 151.768 99.1548 150.151 99.0347 149.035C98.4487 148.237 97.3598 146.979 95.6062 146.013C94.5296 145.42 93.5232 145.113 92.755 144.946C92.9544 147.299 92.8842 149.242 92.7734 150.628C92.4515 154.642 91.6926 155.116 91.4119 155.25C90.5224 155.677 89.0851 155.264 88.5102 154.365C87.6743 153.059 89.1547 151.493 89.572 148.683C89.7912 147.204 89.745 145.189 88.7177 142.657C88.0677 141.863 87.0385 140.792 85.5433 139.846C84.542 139.213 83.4601 138.716 82.3265 138.37C82.4902 139.003 82.6694 139.938 82.6515 141.071C82.6441 141.558 82.593 144.911 81.2727 145.257C80.5697 145.442 79.7788 144.621 79.7006 144.537C78.8425 143.616 79.0223 142.438 78.8776 140.636C78.7988 139.657 78.6086 138.303 78.1168 136.689C77.2415 136.422 75.9526 136.151 74.4014 136.249C73.6215 136.298 72.9377 136.431 72.3689 136.584C72.841 136.771 73.5594 137.136 74.1607 137.848C75.2558 139.143 75.646 141.212 74.9776 141.69C74.3128 142.167 72.6385 141.042 71.7429 140.226C70.1684 138.792 70.2927 137.67 69.1472 136.781C68.3525 136.165 66.9263 135.645 64.1662 136.311C62.9604 140.13 63.5679 141.796 64.3109 142.614C65.7395 144.19 68.4725 143.516 69.2007 145.213C69.5417 146.008 69.3251 147.048 68.7612 147.541C67.8453 148.341 65.7088 147.964 63.755 146.085C61.7822 149.169 61.7927 150.901 62.3393 151.935C64.1096 155.28 72.521 153.25 73.6123 156.393C73.8893 157.192 73.624 158.124 73.1297 158.644C71.8205 160.022 68.2036 159.256 63.9268 156.604C64.0179 157.955 64.2062 159.917 64.6352 162.278C64.8987 163.723 65.0353 164.452 65.3111 164.781C67.4095 167.294 74.1638 163.72 75.2878 165.568C75.7895 166.393 74.8274 167.74 74.6815 167.939C73.435 169.627 70.6756 170.167 67.7807 169.101C68.4165 171.067 69.5183 173.224 71.5416 174.036C75.1352 175.479 79.5652 171.847 80.7778 173.311C81.386 174.045 80.7046 175.477 80.6479 175.594C79.764 177.401 77.3972 177.539 77.2631 177.545C77.7481 177.932 79.6507 179.355 82.4016 179.233C83.1144 179.201 85.9939 179.072 87.2976 177.135C88.7909 174.916 86.8551 172.368 88.4315 170.039C89.7327 174.139 90.8727 178.298 91.8175 182.507C93.1871 188.562 94.1818 194.713 94.7844 200.904C96.0168 213.284 95.6745 225.826 93.8254 238.086L95.347 238.351C97.0909 225.923 97.3051 213.245 95.933 200.769C95.2608 194.53 94.1935 188.341 92.7519 182.258C91.7203 177.876 90.4843 173.552 89.071 169.298C89.3424 169.049 89.7216 168.757 90.2233 168.519C92.723 167.338 94.4477 169.35 96.9222 168.881Z" fill="#61A982"/>
<path d="M76.1133 190.31C75.6484 191.098 73.6006 190.773 73.4245 190.163C73.2583 189.589 74.6024 188.248 75.5161 188.665C76.0862 188.924 76.3984 189.827 76.1133 190.31ZM72.1377 193.641C71.6704 195.81 69.303 197.931 68.5407 197.492C67.5574 196.926 68.7507 191.812 70.5867 191.497C70.9962 191.427 71.6057 191.566 71.9456 191.971C72.376 192.482 72.2245 193.234 72.1377 193.641ZM67.2465 182.895C66.7872 184.107 64.5799 184.074 64.1963 184.068C63.5196 184.057 62.1749 184.037 61.8271 183.241C61.5475 182.601 62.0469 181.768 62.4939 181.335C63.721 180.147 66.2829 180.299 67.0661 181.532C67.0883 181.567 67.4971 182.233 67.2465 182.895ZM90.5085 226.331C90.0825 221.961 89.3713 217.649 88.4367 213.451C87.2121 208.007 85.5582 202.783 83.5504 197.892C85.9326 196.017 88.1128 193.828 88.3 190.865C88.3259 190.459 88.4496 187.871 86.6357 185.943C85.0675 184.276 82.9335 184.039 82.0216 183.952C77.4678 183.513 75.2193 186.74 73.5735 185.689C71.7141 184.501 74.3333 180.215 71.9006 177.376C70.2678 175.47 67.1776 175.173 65.0706 175.606C62.9464 176.042 61.5986 177.266 60.7804 178.028C56.5714 181.95 56.0942 187.772 56.0203 189.818C59.0059 188.282 61.8166 187.977 63.0628 189.207C63.1607 189.303 64.099 190.229 63.8915 191.277C63.7444 192.024 63.0874 192.462 62.7937 192.653C61.2674 193.642 60.0206 192.762 58.3027 193.412C57.6759 193.65 56.8195 194.154 56 195.364C56.081 196.929 56.2655 198.486 56.5523 200.027C56.9587 202.205 57.5251 204.107 58.107 205.697C60.3411 205.104 62.6153 204.674 64.9118 204.409C67.2835 204.135 69.4489 204.064 71.3459 204.101C71.4056 202.587 71.7597 195.255 73.9984 194.866C74.5999 194.762 75.1522 195.191 75.3634 195.354C76.9051 196.548 77.1132 199.414 75.9489 202.57C77.3533 201.983 79.3741 201.001 81.542 199.408C81.9404 199.115 82.3467 198.816 82.7531 198.51C84.6649 203.392 86.2177 208.577 87.3389 213.947C88.1904 218.071 88.8209 222.286 89.1718 226.541C89.53 230.793 89.6352 235.062 89.4871 239.326L91.0282 239.508C91.1162 235.115 90.9426 230.698 90.5085 226.331Z" fill="#61A982"/>
<path d="M107.334 249.689C107.078 252.144 106.95 253.372 106.128 254.196C105.305 255.019 104.116 255.145 101.739 255.396C99.421 255.64 96.7146 255.863 94.5466 255.863C92.3786 255.863 89.6722 255.64 87.3543 255.396C84.9767 255.145 83.7879 255.019 82.9653 254.196C82.1427 253.372 82.0149 252.144 81.7594 249.689L78.7133 220.422C78.3391 216.827 78.1519 215.029 79.2111 213.928C80.2703 212.828 82.0741 212.947 85.6817 213.184L94.5466 213.768L103.411 213.184C107.019 212.947 108.823 212.828 109.882 213.928C110.941 215.029 110.754 216.827 110.38 220.422L107.334 249.689Z" fill="white"/>
<path d="M96.7027 283.456C106.585 272.108 122.811 269.147 135.698 261.379C142.146 257.49 147.767 252.376 153.034 246.994C155.788 244.181 158.481 241.256 160.463 237.852C163.28 233.017 164.53 227.461 166.029 222.071C170.984 204.258 179.009 187.417 184.007 169.619C187.1 158.606 189.025 147.264 192.759 136.454C196.493 125.643 202.3 115.136 211.494 108.335C212.659 107.472 213.939 106.591 214.443 105.231C214.804 104.256 214.704 103.178 214.599 102.144C214.364 99.7946 214.807 99.3898 213.742 97.2833C210.868 91.5947 203.429 89.3631 197.236 90.8662C191.044 92.3675 185.975 96.7976 181.822 101.633C167.015 118.875 161.228 141.806 153.973 163.344C151.954 169.338 149.779 175.328 148.82 181.579C148.055 186.565 148.077 191.632 147.914 196.675C147.805 199.972 148.129 203.984 147.297 207.183C146.405 210.611 145.16 211.069 141.676 212.618C135.338 215.435 128.366 216.45 121.586 217.62C107.258 220.095 90.6481 222.113 76.6602 226.076C78.8773 224.299 89.1109 278.921 86.8543 287.57L96.7027 283.456Z" fill="#FDC3BE"/>
<path d="M339.621 112.003L328.663 104.553C294.376 93.2223 257.435 90.0064 221.705 95.2442C214.885 96.2432 207.82 97.669 202.373 101.895C199.505 104.119 197.235 107.011 195.086 109.937C177.957 133.259 166.814 160.497 160.428 188.616C157.172 202.953 155.12 217.559 154.085 232.222C153.506 240.424 153.106 241.861 145.283 244.904C137.711 247.851 129.702 249.437 121.922 251.711C111.621 254.718 101.11 259.346 94.983 268.156C93.2955 270.581 91.9946 273.258 90.888 275.997C89.1212 280.373 87.8368 284.929 87.0576 289.584C94.7429 288.594 102.317 291.689 109.965 292.919C133.209 296.658 156.524 299.938 179.897 302.759C191.585 304.166 203.287 305.423 214.995 306.637C223.502 307.519 232.245 312.173 236.916 301.662C240.24 303.934 245.877 303.993 248.714 301.134C251.551 298.277 252.904 294.305 254.166 290.482C259.632 273.929 289.493 263.972 294.959 247.42C298.662 236.201 301.602 219.533 306.005 208.57C311.471 194.952 305.256 184.706 311.767 171.552C321.523 151.846 329.865 131.71 339.621 112.003Z" fill="#FFDEDB"/>
<path d="M158.718 350.885C159.922 343.754 171.76 283.946 172.964 276.813C205.959 279.838 230.12 274.247 234.326 268.888C237.021 265.454 238.902 261.561 238.902 261.561C240.794 257.645 241.617 254.349 241.894 253.022C243.3 246.276 242.616 240.568 241.913 237.072C221.423 236.724 201.108 234.333 180.618 233.986C172.509 236.159 164.228 240.379 156.117 242.549C156.117 242.549 129.601 250.944 123.661 259.959C122.74 261.356 122.022 262.85 122.022 262.85C120.213 266.794 119.802 270.126 119.683 271.121C119.506 272.619 112.502 330.832 111.701 337.011C111.571 338.017 111.696 341.574 111.696 341.574C111.696 341.574 115.871 342.468 123.518 342.841C126.162 342.966 130.056 342.577 130.056 342.577C130.056 342.577 130.869 338.765 130.975 338.081C131.67 333.56 136.302 313.357 142.824 285.314C142.862 289.532 140.111 349.618 140.111 349.618C140.111 349.618 149.917 350.807 158.718 350.885Z" fill="#DFB795"/>
<path d="M151.561 287.622C151.301 287.626 151.082 287.421 151.073 287.161C150.858 281.145 151.118 275.227 151.842 269.571C152.311 265.911 152.808 263.797 154.361 261.678C156.466 258.802 167.283 255.667 171.665 254.137C177.153 252.229 182.707 250.521 188.318 249.015C188.57 248.951 188.836 249.096 188.906 249.354C188.939 249.477 188.922 249.608 188.859 249.718C188.795 249.828 188.69 249.909 188.568 249.942C182.962 251.444 177.382 253.161 171.983 255.044C167.773 256.511 157.075 259.593 155.134 262.244C153.705 264.193 153.242 266.2 152.797 269.69C152.077 275.298 151.819 281.164 152.03 287.127C152.04 287.391 151.825 287.617 151.561 287.622Z" fill="#C59068"/>
<path d="M87.0541 322.68C83.9164 323.048 78.474 320.936 75.3262 320.66C73.8818 320.535 73.1206 314.488 72.9181 313.524C71.9327 308.829 71.2557 304.076 70.4688 299.354C67.3125 280.408 67.5151 261.85 69.2198 242.792C69.6216 238.305 70.2324 233.739 72.5831 229.796C73.9765 227.458 76.0996 225.721 78.9102 225.613C82.4503 225.476 84.2727 226.716 86.9275 229.062C92.1271 233.656 89.7045 305.64 87.0541 322.68Z" fill="#FFDEDB"/>
<path d="M234.716 247.914C239.288 242.498 246.868 241.876 251.504 241.192C264.296 239.304 277.205 238.224 290.131 237.952C293.066 206.752 295.156 181.352 306.485 152.133C309.793 143.598 314.523 130.916 319.452 123.202C323.019 117.617 335.307 99.1879 341.884 100.025C346.662 100.632 350.415 104.786 351.867 109.38C353.318 113.974 352.875 118.941 352.108 123.697C350.409 134.228 288.352 325.148 285.613 331.355C268.319 337.4 250.749 343.232 233.973 349.012C241.288 316.013 236.867 281.648 234.716 247.914Z" fill="#FDC3BE"/>
<path d="M223.642 348.08C226.718 348.809 230.812 348.921 233.971 349.012C236.011 349.072 242.671 329.376 243.561 327.039C246.209 320.093 248.878 312.994 250.876 305.827C254.019 294.554 255.356 282.778 254.81 271.09C254.447 263.295 253.297 246.994 243.074 245.411C239.573 244.869 237.621 245.891 234.714 247.914C229.02 251.879 222.973 330.851 223.642 348.08Z" fill="#FFDEDB"/>
<path d="M184.865 146.45C190.841 138.481 210.138 147.327 204.72 157.857C198.31 170.329 181.181 200.788 176.071 207.996L158.022 198.775C158.022 198.775 175.262 159.244 184.865 146.45Z" fill="#89593D"/>
<path d="M174.089 210.308C169.877 213.945 163.489 213.422 159.801 209.165C156.137 204.921 156.558 198.534 160.77 194.903C164.973 191.287 171.361 191.804 175.043 196.058C178.725 200.312 178.295 206.696 174.089 210.308Z" fill="#89593D"/>
<path d="M201.508 142.277C194.159 138.087 183.843 141.967 179.653 149.313L160.287 181.72C159.255 183.519 164.38 188.377 171.736 192.568C179.076 196.763 185.862 198.702 186.888 196.906L206.254 164.496C210.45 157.148 208.855 146.467 201.508 142.277Z" fill="#A1C0F7"/>
<path d="M175.263 195.971C171.649 191.739 165.263 191.297 160.975 194.95C156.699 198.595 156.159 204.967 159.777 209.188C163.387 213.396 169.785 213.847 174.057 210.202C178.345 206.552 178.87 200.176 175.263 195.971Z" fill="#89593D"/>
<path d="M156.655 154.772L168.917 153.106C174.324 177.513 175.896 186.89 177.579 201.281L157.571 204.588C155.612 196.872 153.61 172.685 156.655 154.772Z" fill="#89593D"/>
<path d="M193.89 180.233C193.82 180.23 193.813 180.344 193.884 180.348C193.958 180.352 193.964 180.237 193.89 180.233Z" fill="black"/>
<path d="M179.109 234.489C179.109 234.489 193.956 242.337 208.754 243.304C225.228 244.382 242.172 243.234 242.169 235.458C242.168 227.426 243.777 221.554 243.777 221.554L255.434 154.478C255.902 145.708 248.665 138.838 221.342 137.381C192.451 135.841 189.228 144.634 188.76 153.404C188.76 153.404 183.98 187.87 182.629 210.859C182.078 220.236 181.121 221.554 181.121 221.554" fill="#CDD8F9"/>
<path d="M258.226 205.851C253.348 206.176 249.685 210.4 250.018 215.269C250.339 220.124 254.549 223.795 259.419 223.458C264.28 223.127 267.949 218.918 267.627 214.055C267.286 209.192 263.084 205.519 258.226 205.851Z" fill="#89593D"/>
<path d="M224.472 248.126L219.913 238.898C237.362 224.766 239.233 221.894 251.64 212.351L261.474 226.364C256.322 230.792 237.857 241.183 224.472 248.126Z" fill="#89593D"/>
<path d="M206.441 244.286C212.185 240.246 217.996 237.931 221.889 239.127C224.348 239.878 232.683 248.482 213.278 257.057C207.39 259.649 204.275 252.943 208.334 249.334C209.109 248.638 209.952 247.122 209.952 247.122C209.832 247.265 208.697 247.52 208.535 247.619L203.121 251.021C202.201 251.596 200.988 251.317 200.406 250.397C199.834 249.479 200.11 248.265 201.027 247.683L206.441 244.286Z" fill="#89593D"/>
<path d="M212.509 256.629L197.539 262.491C196.361 262.906 195.124 262.458 194.702 261.267C194.287 260.094 195.139 259.098 196.316 258.681L212.156 252.116C213.338 251.697 213.68 256.213 212.509 256.629Z" fill="#89593D"/>
<path d="M215.624 255.938L201.247 263.147C200.118 263.666 198.842 263.33 198.312 262.185C197.789 261.052 198.545 259.979 199.682 259.459L214.857 251.475C215.995 250.952 216.745 255.418 215.624 255.938ZM209.517 253.725L197.182 259.682C196.064 260.225 194.781 259.931 194.217 258.804C193.661 257.682 194.389 256.589 195.509 256.039L210.45 247.623C211.57 247.068 210.624 253.169 209.517 253.725Z" fill="#89593D"/>
<path d="M262.659 153.416C259.805 143.869 238.538 145.773 240.119 157.512C241.99 171.409 247.914 205.843 250.322 214.355L270.414 211.712C270.9 204.511 268.342 172.465 262.659 153.416Z" fill="#89593D"/>
<path d="M251.407 217.194C254.161 222.03 260.352 223.675 265.258 220.902C270.131 218.129 271.869 211.97 269.122 207.14C266.373 202.328 260.177 200.674 255.283 203.445C250.391 206.222 248.656 212.378 251.407 217.194Z" fill="#89593D"/>
<path d="M248.371 143.909C256.696 142.421 265.118 149.534 266.603 157.856L273.994 194.882C274.356 196.923 267.901 199.783 259.575 201.271C251.252 202.76 244.201 202.315 243.842 200.278L236.455 163.255C234.961 154.926 240.039 145.4 248.371 143.909Z" fill="#A1C0F7"/>
<path d="M207.489 138.983C207.515 138.484 207.666 138.003 207.917 137.548C211.628 137.177 216.05 137.099 221.342 137.382C226.693 137.667 231.248 138.175 235.156 138.869C235.393 139.392 235.522 139.929 235.493 140.476C235.299 144.118 228.875 146.736 221.139 146.324C213.407 145.911 207.295 142.625 207.489 138.983Z" fill="#89593D"/>
<path d="M212.828 139.592L231.512 140.588L232.41 123.756L213.725 122.76L212.828 139.592Z" fill="#89593D"/>
<path d="M232.099 129.598C229.123 131.846 225.34 133.114 221.263 132.914C218.332 132.767 215.625 131.868 213.316 130.439L213.725 122.76L232.41 123.757L232.099 129.598Z" fill="#794018"/>
<path d="M206.935 88.512C206.935 88.512 205.967 107.78 205.652 114.205C205.217 122.858 212.134 130.239 221.108 130.687C230.082 131.133 237.701 124.485 238.133 115.83C238.464 109.408 239.425 90.1369 239.425 90.1369L206.935 88.512Z" fill="#89593D"/>
<path d="M216.111 101.201C216.111 101.201 209.108 101.485 208.661 103.511C212.392 103.044 216.132 102.816 216.132 102.816L216.111 101.201Z" fill="#2E0602"/>
<path d="M219.147 123.69C219.953 123.923 220.715 123.914 221.422 123.663C222.938 123.121 223.62 121.663 223.648 121.603C223.755 121.366 223.65 121.085 223.421 120.979C223.181 120.872 222.901 120.976 222.787 121.207C222.784 121.225 222.234 122.374 221.096 122.773C220.376 123.028 219.552 122.928 218.65 122.487C218.414 122.376 218.13 122.467 218.018 122.701C217.903 122.937 217.999 123.219 218.231 123.33C218.543 123.489 218.847 123.61 219.147 123.69Z" fill="#4D2910"/>
<path d="M233.603 103.932C233.764 107.176 236.874 113.984 240.892 110.978C244.997 107.918 241.497 103.492 242.937 99.5705C243.768 97.2953 246.177 96.1834 247.011 93.8458C248.492 89.727 247.098 84.0478 244.441 80.6475C242.552 78.2303 237.446 76.1335 234.494 76.3666C231.999 76.5765 228.235 78.9129 225.737 77.5633C222.815 75.9974 221.736 72.1328 218.553 70.8242C214.918 69.3276 212.063 73.06 210.024 75.5063C208.005 77.9209 206.669 79.4387 203.437 78.7208C200.441 78.0542 197.594 78.0962 195.97 81.1669C194.392 84.1416 195.346 87.7819 198.392 89.3067C200.717 90.4772 203.603 90.1541 205.497 92.1423C207.423 94.156 208.089 97.4381 211.285 97.8739C214.875 98.3783 218.269 95.1099 220.75 92.9734C221.762 92.1121 224.764 94.6841 225.315 95.259C227.029 97.0616 229.334 97.1577 231.44 98.3641C233.59 99.5908 233.483 101.594 233.603 103.932Z" fill="#2E0602"/>
<path d="M217.02 118.342C218.102 118.91 219.676 118.409 219.843 118.341C220.11 118.256 220.244 117.971 220.148 117.71C220.073 117.45 219.785 117.312 219.53 117.4C219.156 117.535 218.045 117.732 217.449 117.45C217.244 117.331 217.125 117.155 217.064 116.899C216.709 115.329 217.443 113.592 218.296 111.58C218.835 110.303 219.445 108.863 219.839 107.286C219.907 107.018 219.74 106.747 219.478 106.685C219.213 106.614 218.933 106.778 218.871 107.043C218.505 108.538 217.939 109.888 217.386 111.194C216.463 113.36 215.671 115.241 216.098 117.115C216.216 117.652 216.519 118.065 217.02 118.342Z" fill="#4D2910"/>
<path d="M225.992 108.44C225.995 109.373 226.608 110.133 227.356 110.134C228.108 110.124 228.715 109.369 228.717 108.436C228.713 107.494 228.094 106.742 227.349 106.744C226.595 106.743 225.994 107.501 225.992 108.44ZM210.642 107.627C210.643 108.564 211.258 109.324 212.013 109.316C212.761 109.317 213.362 108.556 213.361 107.623C213.361 106.684 212.76 105.928 212 105.926C211.254 105.934 210.648 106.683 210.642 107.627Z" fill="#282022"/>
<path d="M235.22 111.093C234.731 113.765 235.824 117.428 237.95 117.816C240.081 118.21 242.446 115.179 242.935 112.506C243.422 109.846 242.091 107.36 239.962 106.97C237.831 106.579 235.702 108.427 235.22 111.093Z" fill="#89593D"/>
<path d="M237.684 114.757C238.017 114.772 238.188 114.596 238.188 114.375C238.159 110.441 241.01 109.201 241.04 109.191C241.232 109.109 241.325 108.884 241.246 108.683C241.158 108.481 240.93 108.395 240.732 108.474C240.604 108.524 237.366 109.931 237.409 114.39C237.415 114.555 237.526 114.707 237.684 114.757Z" fill="#4D2910"/>
<path d="M230.848 104C230.249 102.066 223.485 101.42 223.485 101.42L223.407 103.029C223.407 103.029 227.13 103.392 230.848 104Z" fill="#2E0602"/>
<path d="M221.08 147.426C212.616 146.975 206.158 143.237 206.388 138.924C206.422 138.276 206.612 137.63 206.955 137.013C207.252 136.475 207.927 136.287 208.457 136.58C208.986 136.877 209.177 137.546 208.887 138.079C208.705 138.403 208.607 138.729 208.591 139.041C208.452 141.64 213.596 144.815 221.197 145.22C228.802 145.625 234.251 143.015 234.389 140.417C234.408 140.078 234.325 139.719 234.149 139.331C234.088 139.199 234.054 139.056 234.048 138.91C234.043 138.765 234.066 138.62 234.117 138.483C234.168 138.347 234.245 138.222 234.344 138.115C234.444 138.009 234.563 137.923 234.696 137.863C235.236 137.615 235.895 137.85 236.16 138.406C236.486 139.121 236.633 139.836 236.595 140.534C236.365 144.848 229.547 147.877 221.08 147.426Z" fill="#A1C0F7"/>
<path d="M168.884 140.005L168.175 158.225C168.254 159.752 175.441 157.992 175.022 150.418C175.022 150.418 173.975 142.375 173.674 138.844C173.543 137.328 169.255 135.955 168.884 140.005Z" fill="#89593D"/>
<path d="M173.188 158.188C173.601 160.141 172.55 162.017 170.846 162.378L158.913 164.903C157.199 165.266 155.484 163.975 155.071 162.023L149.088 133.751C148.675 131.798 149.719 129.92 151.432 129.558L163.366 127.032C165.07 126.671 166.792 127.964 167.205 129.917L173.188 158.188Z" fill="#5E6F6B"/>
<path d="M174.175 158.633C174.588 160.586 173.537 162.462 171.83 162.824L159.893 165.35C158.183 165.712 156.465 164.422 156.052 162.469L150.068 134.197C149.655 132.244 150.704 130.372 152.414 130.01L164.351 127.484C166.058 127.123 167.779 128.409 168.192 130.362L174.175 158.633Z" fill="#3A4243"/>
<path d="M159.165 164.218C158.205 164.421 157.188 163.626 156.945 162.479L150.882 133.831C150.639 132.681 151.246 131.539 152.206 131.336L165.077 128.612C166.05 128.406 167.051 129.187 167.298 130.357L173.361 159.005C173.608 160.172 173.009 161.288 172.036 161.494L159.165 164.218Z" fill="white"/>
<ellipse cx="161.991" cy="145.871" rx="7.47501" ry="7.55077" transform="rotate(-11.6672 161.991 145.871)" fill="url(#paint0_linear_5593_20602)"/>
<path d="M163.138 151.192C166.097 150.581 168.001 147.687 167.389 144.728C166.778 141.769 163.885 139.866 160.926 140.477C157.967 141.088 156.064 143.982 156.675 146.941C157.286 149.9 160.18 151.803 163.138 151.192Z" fill="#8549FF"/>
<path d="M163.605 147.009L162.389 147.26C162.266 147.285 162.138 147.261 162.033 147.192C161.928 147.122 161.854 147.014 161.829 146.891C161.688 146.207 161.411 144.866 161.141 143.56C161.044 143.09 160.764 142.677 160.362 142.413C159.961 142.149 159.471 142.055 159 142.152L160.071 147.336C160.189 147.908 160.53 148.411 161.019 148.732C161.508 149.054 162.104 149.168 162.677 149.049L165.748 148.415C165.65 147.944 165.369 147.532 164.967 147.268C164.565 147.005 164.075 146.911 163.605 147.009Z" fill="url(#paint1_linear_5593_20602)"/>
<path opacity="0.9" d="M161.827 146.884C161.685 146.197 161.41 144.861 161.141 143.56C161.044 143.09 160.764 142.677 160.362 142.413C159.961 142.149 159.471 142.055 159 142.152V142.152L159.666 145.378C161.403 145.021 161.795 146.728 161.827 146.884Z" fill="#F8F5FF"/>
<path opacity="0.35" d="M165.747 148.417C165.649 147.946 165.369 147.534 164.967 147.27C164.565 147.005 164.075 146.912 163.604 147.009L162.389 147.26C162.266 147.285 162.138 147.261 162.033 147.192C161.928 147.123 161.854 147.015 161.829 146.892C161.829 146.892 162.041 149.183 164.12 148.753L165.747 148.417Z" fill="url(#paint2_linear_5593_20602)"/>
<path d="M149.299 156.365C149.3 157.575 150.317 158.56 151.572 158.57L154.62 158.601C155.875 158.615 156.893 157.637 156.907 156.428C156.912 155.212 155.894 154.227 154.639 154.226L151.597 154.186C150.337 154.175 149.309 155.158 149.299 156.365Z" fill="#89593D"/>
<path d="M148.548 152.149C148.542 153.544 149.8 154.673 151.365 154.684L156.192 154.778C157.754 154.792 159.033 153.671 159.041 152.288C159.053 150.897 157.783 149.771 156.221 149.762L151.388 149.656C149.829 149.648 148.559 150.766 148.548 152.149Z" fill="#89593D"/>
<path d="M148.755 147.731C148.746 149.123 150.012 150.255 151.568 150.258L155.539 150.156C157.104 150.171 158.371 149.046 158.385 147.655C158.379 146.274 157.127 145.143 155.568 145.134L151.601 145.236C150.042 145.233 148.763 146.348 148.755 147.731Z" fill="#89593D"/>
<path d="M149.302 143.782C149.296 145.171 150.259 146.295 151.454 146.299L153.524 146.287C154.71 146.297 155.697 145.181 155.705 143.798C155.713 142.412 154.745 141.275 153.556 141.266L151.477 141.28C150.288 141.267 149.307 142.39 149.302 143.782ZM257.864 202.214C252.472 203.593 249.249 209.128 250.637 214.586C252.013 220.026 257.496 223.323 262.882 221.95C268.251 220.563 271.479 215.029 270.104 209.578C268.713 204.122 263.23 200.834 257.864 202.214Z" fill="#89593D"/>
</g>
<g filter="url(#filter0_d_5593_20602)">
<rect x="46.6157" y="33.7495" width="133.384" height="34.9043" rx="7.4795" fill="white"/>
</g>
<path d="M81.1584 49.2109H81.9664V45.2989L83.8944 48.8909L85.8224 45.2989V49.2109H86.6304V43.7149H85.8224L83.8944 47.3069L81.9664 43.7149H81.1584V49.2109ZM89.8016 48.6029C89.0896 48.6029 88.5856 48.1069 88.4816 47.4189H91.7376C91.7376 45.9389 91.0096 44.9789 89.7456 44.9789C88.6016 44.9789 87.6816 45.8909 87.6816 47.1309C87.6816 48.4029 88.6576 49.3069 89.8096 49.3069C90.3936 49.3069 91.1136 49.0589 91.4816 48.6669L90.9856 48.1549C90.7376 48.4109 90.2336 48.6029 89.8016 48.6029ZM89.7776 45.6829C90.4896 45.6829 90.8816 46.1469 90.9696 46.7869H88.4896C88.6176 46.1149 89.1376 45.6829 89.7776 45.6829ZM95.8396 43.6189V45.7869C95.5196 45.2829 95.0076 44.9789 94.3676 44.9789C93.2796 44.9789 92.4636 45.8749 92.4636 47.1389C92.4636 48.4109 93.2796 49.3069 94.3676 49.3069C95.0076 49.3069 95.5196 49.0029 95.8396 48.4909V49.2109H96.6236V43.6189H95.8396ZM94.5596 48.6189C93.7996 48.6189 93.2636 48.0029 93.2636 47.1389C93.2636 46.2749 93.7996 45.6669 94.5596 45.6669C95.3036 45.6669 95.8396 46.2749 95.8396 47.1389C95.8396 48.0029 95.3036 48.6189 94.5596 48.6189ZM98.2038 44.3869C98.4598 44.3869 98.6758 44.1629 98.6758 43.9069C98.6758 43.6589 98.4598 43.4349 98.2038 43.4349C97.9318 43.4349 97.7238 43.6589 97.7238 43.9069C97.7238 44.1629 97.9318 44.3869 98.2038 44.3869ZM97.8038 49.2109H98.5958V45.0749H97.8038V49.2109ZM101.694 49.3069C102.31 49.3069 102.846 49.0509 103.246 48.6429L102.71 48.1549C102.454 48.4429 102.086 48.6189 101.702 48.6189C100.942 48.6189 100.318 47.9469 100.318 47.1389C100.318 46.3389 100.942 45.6669 101.694 45.6669C102.078 45.6669 102.438 45.8349 102.686 46.1149L103.222 45.6189C102.83 45.2269 102.294 44.9789 101.702 44.9789C100.518 44.9789 99.5175 45.9629 99.5175 47.1389C99.5175 48.3149 100.518 49.3069 101.694 49.3069ZM105.829 44.9789C105.373 44.9789 104.853 45.0989 104.261 45.3949L104.549 45.9789C104.909 45.7949 105.309 45.6349 105.717 45.6349C106.541 45.6349 106.781 46.1869 106.781 46.7069V46.8349C106.381 46.6989 105.941 46.6109 105.533 46.6109C104.621 46.6109 103.877 47.1629 103.877 47.9869C103.877 48.7949 104.525 49.3069 105.405 49.3069C105.909 49.3069 106.477 49.0749 106.781 48.6429V49.2109H107.557V46.7069C107.557 45.6829 106.941 44.9789 105.829 44.9789ZM105.557 48.6829C105.037 48.6829 104.637 48.4109 104.637 47.9629C104.637 47.5149 105.101 47.2029 105.653 47.2029C106.061 47.2029 106.445 47.2589 106.781 47.3629V47.9149C106.645 48.4269 106.069 48.6829 105.557 48.6829ZM110.638 48.4669C110.55 48.5549 110.39 48.6189 110.214 48.6189C109.982 48.6189 109.79 48.4109 109.79 48.1229V45.7469H110.766V45.0749H109.79V43.9389H109.014V45.0749H108.39V45.7469H109.014V48.1789C109.014 48.8429 109.462 49.3069 110.102 49.3069C110.398 49.3069 110.702 49.1949 110.926 49.0109L110.638 48.4669ZM112.126 44.3869C112.382 44.3869 112.598 44.1629 112.598 43.9069C112.598 43.6589 112.382 43.4349 112.126 43.4349C111.854 43.4349 111.646 43.6589 111.646 43.9069C111.646 44.1629 111.854 44.3869 112.126 44.3869ZM111.726 49.2109H112.518V45.0749H111.726V49.2109ZM115.623 49.3069C116.799 49.3069 117.791 48.3149 117.791 47.1389C117.791 45.9629 116.799 44.9789 115.623 44.9789C114.439 44.9789 113.439 45.9629 113.439 47.1389C113.439 48.3149 114.439 49.3069 115.623 49.3069ZM115.623 48.6189C114.863 48.6189 114.231 47.9469 114.231 47.1389C114.231 46.3389 114.863 45.6669 115.623 45.6669C116.367 45.6669 116.999 46.3389 116.999 47.1389C116.999 47.9469 116.367 48.6189 115.623 48.6189ZM120.822 44.9789C120.262 44.9789 119.758 45.2669 119.51 45.6749V45.0749H118.718V49.2109H119.51V46.5309C119.574 46.0429 120.07 45.6669 120.646 45.6669C121.206 45.6669 121.598 46.0989 121.598 46.7149V49.2109H122.374V46.5789C122.374 45.6429 121.734 44.9789 120.822 44.9789ZM125.003 49.3069C125.907 49.3069 126.571 48.8109 126.571 48.0269C126.571 47.2029 125.843 46.9789 125.163 46.7789C124.467 46.5629 124.211 46.4669 124.211 46.1469C124.211 45.8349 124.531 45.6589 124.939 45.6589C125.299 45.6589 125.715 45.7949 126.115 46.0429L126.467 45.4589C126.019 45.1629 125.475 44.9789 124.939 44.9789C124.059 44.9789 123.427 45.4749 123.435 46.2349C123.435 46.9069 123.907 47.1789 124.859 47.4429C125.371 47.5869 125.795 47.7069 125.795 48.0909C125.795 48.4109 125.475 48.6269 125.011 48.6269C124.523 48.6269 124.051 48.4429 123.611 48.1229L123.235 48.6909C123.731 49.0909 124.395 49.3069 125.003 49.3069ZM130.869 44.6189C130.869 44.3309 131.061 44.1229 131.293 44.1229C131.469 44.1229 131.629 44.1869 131.717 44.2749L132.005 43.7469C131.781 43.5629 131.477 43.4509 131.181 43.4509C130.541 43.4509 130.093 43.9149 130.093 44.5789V45.0749H129.469V45.7469H130.093V49.2109H130.869V45.7469H131.845V45.0749H130.869V44.6189ZM134.623 49.3069C135.799 49.3069 136.791 48.3149 136.791 47.1389C136.791 45.9629 135.799 44.9789 134.623 44.9789C133.439 44.9789 132.439 45.9629 132.439 47.1389C132.439 48.3149 133.439 49.3069 134.623 49.3069ZM134.623 48.6189C133.863 48.6189 133.231 47.9469 133.231 47.1389C133.231 46.3389 133.863 45.6669 134.623 45.6669C135.367 45.6669 135.999 46.3389 135.999 47.1389C135.999 47.9469 135.367 48.6189 134.623 48.6189ZM138.55 45.8669V45.0749H137.758V49.2109H138.55V46.8589C138.622 46.1389 139.23 45.6669 140.086 45.6669V44.9789C139.374 44.9789 138.814 45.3229 138.55 45.8669ZM145.084 48.4669C144.996 48.5549 144.836 48.6189 144.66 48.6189C144.428 48.6189 144.236 48.4109 144.236 48.1229V45.7469H145.212V45.0749H144.236V43.9389H143.46V45.0749H142.836V45.7469H143.46V48.1789C143.46 48.8429 143.908 49.3069 144.548 49.3069C144.844 49.3069 145.148 49.1949 145.372 49.0109L145.084 48.4669ZM148.139 49.3069C149.315 49.3069 150.307 48.3149 150.307 47.1389C150.307 45.9629 149.315 44.9789 148.139 44.9789C146.955 44.9789 145.955 45.9629 145.955 47.1389C145.955 48.3149 146.955 49.3069 148.139 49.3069ZM148.139 48.6189C147.379 48.6189 146.747 47.9469 146.747 47.1389C146.747 46.3389 147.379 45.6669 148.139 45.6669C148.883 45.6669 149.515 46.3389 149.515 47.1389C149.515 47.9469 148.883 48.6189 148.139 48.6189ZM154.418 43.6189V45.7869C154.098 45.2829 153.586 44.9789 152.946 44.9789C151.858 44.9789 151.042 45.8749 151.042 47.1389C151.042 48.4109 151.858 49.3069 152.946 49.3069C153.586 49.3069 154.098 49.0029 154.418 48.4909V49.2109H155.202V43.6189H154.418ZM153.138 48.6189C152.378 48.6189 151.842 48.0029 151.842 47.1389C151.842 46.2749 152.378 45.6669 153.138 45.6669C153.882 45.6669 154.418 46.2749 154.418 47.1389C154.418 48.0029 153.882 48.6189 153.138 48.6189ZM158.126 44.9789C157.67 44.9789 157.15 45.0989 156.558 45.3949L156.846 45.9789C157.206 45.7949 157.606 45.6349 158.014 45.6349C158.838 45.6349 159.078 46.1869 159.078 46.7069V46.8349C158.678 46.6989 158.238 46.6109 157.83 46.6109C156.918 46.6109 156.174 47.1629 156.174 47.9869C156.174 48.7949 156.822 49.3069 157.702 49.3069C158.206 49.3069 158.774 49.0749 159.078 48.6429V49.2109H159.854V46.7069C159.854 45.6829 159.238 44.9789 158.126 44.9789ZM157.854 48.6829C157.334 48.6829 156.934 48.4109 156.934 47.9629C156.934 47.5149 157.398 47.2029 157.95 47.2029C158.358 47.2029 158.742 47.2589 159.078 47.3629V47.9149C158.942 48.4269 158.366 48.6829 157.854 48.6829ZM161.727 50.6509C162.319 50.6429 162.759 50.3309 163.055 49.5869L164.879 45.0749H164.055L162.799 48.3389L161.471 45.0749H160.623L162.399 49.2349L162.191 49.6749C162.055 49.9149 161.879 49.9949 161.623 49.9949C161.463 49.9949 161.279 49.9549 161.119 49.8669L160.943 50.4749C161.159 50.5869 161.447 50.6509 161.727 50.6509Z" fill="#141414"/>
<circle cx="64.0679" cy="51.2017" r="7.4795" fill="#8549FF"/>
<path d="M68.1966 49.1823C68.4126 48.8912 68.3886 48.478 68.1246 48.2139C67.8342 47.9235 67.3632 47.9235 67.0728 48.2139L62.8914 52.3939L61.064 50.567L60.9805 50.495C60.6893 50.279 60.2761 50.3031 60.0122 50.5672C59.7218 50.8577 59.7219 51.3286 60.0124 51.619L62.3666 53.9722L62.45 54.0442C62.7411 54.2601 63.1542 54.2361 63.4182 53.9721L68.1246 49.2657L68.1966 49.1823Z" fill="white"/>
<path d="M80.4624 56.9448C80.4624 56.4287 81.0599 56.0103 81.7969 56.0103H143.184C143.921 56.0103 144.518 56.4287 144.518 56.9448V60.683C144.518 61.1991 143.921 61.6175 143.184 61.6175H81.7969C81.0599 61.6175 80.4624 61.1991 80.4624 60.683V56.9448Z" fill="#E9EAED"/>
<g filter="url(#filter1_d_5593_20602)">
<rect x="33" y="81.3462" width="133.384" height="34.9043" rx="7.4795" fill="white"/>
</g>
<path d="M71.4867 92.0641V91.3121H67.4467V96.8081H68.2627V94.4161H71.1747V93.6641H68.2627V92.0641H71.4867ZM74.3202 96.9041C75.4962 96.9041 76.4882 95.9121 76.4882 94.7361C76.4882 93.5601 75.4962 92.5761 74.3202 92.5761C73.1362 92.5761 72.1362 93.5601 72.1362 94.7361C72.1362 95.9121 73.1362 96.9041 74.3202 96.9041ZM74.3202 96.2161C73.5602 96.2161 72.9282 95.5441 72.9282 94.7361C72.9282 93.9361 73.5602 93.2641 74.3202 93.2641C75.0642 93.2641 75.6962 93.9361 75.6962 94.7361C75.6962 95.5441 75.0642 96.2161 74.3202 96.2161ZM77.4149 96.8081H78.1989V91.2161H77.4149V96.8081ZM79.3524 96.8081H80.1364V91.2161H79.3524V96.8081ZM83.2499 96.9041C84.4259 96.9041 85.4179 95.9121 85.4179 94.7361C85.4179 93.5601 84.4259 92.5761 83.2499 92.5761C82.0659 92.5761 81.0659 93.5601 81.0659 94.7361C81.0659 95.9121 82.0659 96.9041 83.2499 96.9041ZM83.2499 96.2161C82.4899 96.2161 81.8579 95.5441 81.8579 94.7361C81.8579 93.9361 82.4899 93.2641 83.2499 93.2641C83.9939 93.2641 84.6259 93.9361 84.6259 94.7361C84.6259 95.5441 83.9939 96.2161 83.2499 96.2161ZM87.2207 96.8081H87.9487L88.9487 93.7361L89.9407 96.8081H90.6687L92.0607 92.6721H91.2527L90.3087 95.7521L89.2847 92.6721H88.6127L87.5887 95.7521L86.6367 92.6721H85.8287L87.2207 96.8081ZM92.7002 94.9841H94.8122V94.2641H92.7002V94.9841ZM98.6613 92.6721V95.3521C98.5973 95.8401 98.1013 96.2161 97.5253 96.2161C96.9653 96.2161 96.5733 95.7841 96.5733 95.1681V92.6721H95.7973V95.3041C95.7973 96.2401 96.4373 96.9041 97.3493 96.9041C97.9093 96.9041 98.4133 96.6161 98.6613 96.2081V96.8081H99.4533V92.6721H98.6613ZM102.898 92.5761C102.258 92.5761 101.746 92.8801 101.426 93.3841V92.6721H100.642V98.1841H101.426V96.0881C101.746 96.6001 102.258 96.9041 102.898 96.9041C103.986 96.9041 104.802 96.0081 104.802 94.7361C104.802 93.4721 103.986 92.5761 102.898 92.5761ZM102.706 96.2161C101.962 96.2161 101.426 95.6001 101.426 94.7361C101.426 93.8721 101.962 93.2641 102.706 93.2641C103.466 93.2641 104.002 93.8721 104.002 94.7361C104.002 95.6001 103.466 96.2161 102.706 96.2161ZM109.784 92.5761C109.328 92.5761 108.808 92.6961 108.216 92.9921L108.504 93.5761C108.864 93.3921 109.264 93.2321 109.672 93.2321C110.496 93.2321 110.736 93.7841 110.736 94.3041V94.4321C110.336 94.2961 109.896 94.2081 109.488 94.2081C108.576 94.2081 107.832 94.7601 107.832 95.5841C107.832 96.3921 108.48 96.9041 109.36 96.9041C109.864 96.9041 110.432 96.6721 110.736 96.2401V96.8081H111.512V94.3041C111.512 93.2801 110.896 92.5761 109.784 92.5761ZM109.512 96.2801C108.992 96.2801 108.592 96.0081 108.592 95.5601C108.592 95.1121 109.056 94.8001 109.608 94.8001C110.016 94.8001 110.4 94.8561 110.736 94.9601V95.5121C110.6 96.0241 110.024 96.2801 109.512 96.2801ZM114.953 92.5761C114.313 92.5761 113.801 92.8801 113.481 93.3841V92.6721H112.697V98.1841H113.481V96.0881C113.801 96.6001 114.313 96.9041 114.953 96.9041C116.041 96.9041 116.857 96.0081 116.857 94.7361C116.857 93.4721 116.041 92.5761 114.953 92.5761ZM114.761 96.2161C114.017 96.2161 113.481 95.6001 113.481 94.7361C113.481 93.8721 114.017 93.2641 114.761 93.2641C115.521 93.2641 116.057 93.8721 116.057 94.7361C116.057 95.6001 115.521 96.2161 114.761 96.2161ZM120.109 92.5761C119.469 92.5761 118.957 92.8801 118.637 93.3841V92.6721H117.853V98.1841H118.637V96.0881C118.957 96.6001 119.469 96.9041 120.109 96.9041C121.197 96.9041 122.013 96.0081 122.013 94.7361C122.013 93.4721 121.197 92.5761 120.109 92.5761ZM119.917 96.2161C119.173 96.2161 118.637 95.6001 118.637 94.7361C118.637 93.8721 119.173 93.2641 119.917 93.2641C120.677 93.2641 121.213 93.8721 121.213 94.7361C121.213 95.6001 120.677 96.2161 119.917 96.2161ZM124.93 96.9041C126.106 96.9041 127.098 95.9121 127.098 94.7361C127.098 93.5601 126.106 92.5761 124.93 92.5761C123.746 92.5761 122.746 93.5601 122.746 94.7361C122.746 95.9121 123.746 96.9041 124.93 96.9041ZM124.93 96.2161C124.17 96.2161 123.538 95.5441 123.538 94.7361C123.538 93.9361 124.17 93.2641 124.93 93.2641C125.674 93.2641 126.306 93.9361 126.306 94.7361C126.306 95.5441 125.674 96.2161 124.93 96.2161ZM128.416 91.9841C128.672 91.9841 128.888 91.7601 128.888 91.5041C128.888 91.2561 128.672 91.0321 128.416 91.0321C128.144 91.0321 127.936 91.2561 127.936 91.5041C127.936 91.7601 128.144 91.9841 128.416 91.9841ZM128.016 96.8081H128.808V92.6721H128.016V96.8081ZM132.058 92.5761C131.498 92.5761 130.994 92.8641 130.746 93.2721V92.6721H129.954V96.8081H130.746V94.1281C130.81 93.6401 131.306 93.2641 131.882 93.2641C132.442 93.2641 132.834 93.6961 132.834 94.3121V96.8081H133.61V94.1761C133.61 93.2401 132.97 92.5761 132.058 92.5761ZM136.679 96.0641C136.591 96.1521 136.431 96.2161 136.255 96.2161C136.023 96.2161 135.831 96.0081 135.831 95.7201V93.3441H136.807V92.6721H135.831V91.5361H135.055V92.6721H134.431V93.3441H135.055V95.7761C135.055 96.4401 135.503 96.9041 136.143 96.9041C136.439 96.9041 136.743 96.7921 136.967 96.6081L136.679 96.0641ZM142.398 92.5761C141.774 92.5761 141.246 92.8961 141.054 93.4081C140.814 92.8961 140.326 92.5761 139.726 92.5761C139.198 92.5761 138.766 92.8401 138.558 93.2481V92.6721H137.766V96.8081H138.558V94.2241C138.558 93.6561 138.974 93.2641 139.566 93.2641C140.086 93.2641 140.446 93.6881 140.446 94.2961V96.8081H141.222V94.2241C141.222 93.6561 141.638 93.2641 142.23 93.2641C142.75 93.2641 143.11 93.6881 143.11 94.2961V96.8081H143.886V94.1761C143.886 93.2401 143.262 92.5761 142.398 92.5761ZM146.92 96.2001C146.208 96.2001 145.704 95.7041 145.6 95.0161H148.856C148.856 93.5361 148.128 92.5761 146.864 92.5761C145.72 92.5761 144.8 93.4881 144.8 94.7281C144.8 96.0001 145.776 96.9041 146.928 96.9041C147.512 96.9041 148.232 96.6561 148.6 96.2641L148.104 95.7521C147.856 96.0081 147.352 96.2001 146.92 96.2001ZM146.896 93.2801C147.608 93.2801 148 93.7441 148.088 94.3841H145.608C145.736 93.7121 146.256 93.2801 146.896 93.2801ZM151.878 92.5761C151.318 92.5761 150.814 92.8641 150.566 93.2721V92.6721H149.774V96.8081H150.566V94.1281C150.63 93.6401 151.126 93.2641 151.702 93.2641C152.262 93.2641 152.654 93.6961 152.654 94.3121V96.8081H153.43V94.1761C153.43 93.2401 152.79 92.5761 151.878 92.5761ZM156.499 96.0641C156.411 96.1521 156.251 96.2161 156.075 96.2161C155.843 96.2161 155.651 96.0081 155.651 95.7201V93.3441H156.627V92.6721H155.651V91.5361H154.875V92.6721H154.251V93.3441H154.875V95.7761C154.875 96.4401 155.323 96.9041 155.963 96.9041C156.259 96.9041 156.563 96.7921 156.787 96.6081L156.499 96.0641Z" fill="#141414"/>
<circle cx="50.4522" cy="98.7983" r="7.4795" fill="#8549FF"/>
<path d="M54.5809 96.779C54.7969 96.4878 54.7729 96.0747 54.5089 95.8106C54.2184 95.5202 53.7475 95.5202 53.4571 95.8106L49.2757 99.9905L47.4482 98.1637L47.3648 98.0917C47.0736 97.8757 46.6604 97.8998 46.3964 98.1639C46.106 98.4544 46.1061 98.9253 46.3967 99.2157L48.7508 101.569L48.8342 101.641C49.1254 101.857 49.5385 101.833 49.8025 101.569L54.5089 96.8624L54.5809 96.779Z" fill="white"/>
<path d="M66.8467 104.541C66.8467 104.025 67.4442 103.607 68.1812 103.607H129.568C130.305 103.607 130.902 104.025 130.902 104.541V108.28C130.902 108.796 130.305 109.214 129.568 109.214H68.1812C67.4442 109.214 66.8467 108.796 66.8467 108.28V104.541Z" fill="#E9EAED"/>
<defs>
<filter id="filter0_d_5593_20602" x="14.2771" y="3.43208" width="206.146" height="107.666" filterUnits="userSpaceOnUse" color-interpolation-filters="sRGB">
<feFlood flood-opacity="0" result="BackgroundImageFix"/>
<feColorMatrix in="SourceAlpha" type="matrix" values="0 0 0 0 0 0 0 0 0 0 0 0 0 0 0 0 0 0 127 0" result="hardAlpha"/>
<feOffset dx="4.04232" dy="6.06349"/>
<feGaussianBlur stdDeviation="18.1905"/>
<feColorMatrix type="matrix" values="0 0 0 0 0.724736 0 0 0 0 0.682968 0 0 0 0 0.897032 0 0 0 0.12 0"/>
<feBlend mode="normal" in2="BackgroundImageFix" result="effect1_dropShadow_5593_20602"/>
<feBlend mode="normal" in="SourceGraphic" in2="effect1_dropShadow_5593_20602" result="shape"/>
</filter>
<filter id="filter1_d_5593_20602" x="0.661407" y="51.0288" width="206.146" height="107.666" filterUnits="userSpaceOnUse" color-interpolation-filters="sRGB">
<feFlood flood-opacity="0" result="BackgroundImageFix"/>
<feColorMatrix in="SourceAlpha" type="matrix" values="0 0 0 0 0 0 0 0 0 0 0 0 0 0 0 0 0 0 127 0" result="hardAlpha"/>
<feOffset dx="4.04232" dy="6.06349"/>
<feGaussianBlur stdDeviation="18.1905"/>
<feColorMatrix type="matrix" values="0 0 0 0 0.724736 0 0 0 0 0.682968 0 0 0 0 0.897032 0 0 0 0.12 0"/>
<feBlend mode="normal" in2="BackgroundImageFix" result="effect1_dropShadow_5593_20602"/>
<feBlend mode="normal" in="SourceGraphic" in2="effect1_dropShadow_5593_20602" result="shape"/>
</filter>
<linearGradient id="paint0_linear_5593_20602" x1="169.466" y1="153.422" x2="153.815" y2="152.657" gradientUnits="userSpaceOnUse">
<stop stop-color="#CDB8FF"/>
<stop offset="1" stop-color="#E6DBFF"/>
</linearGradient>
<linearGradient id="paint1_linear_5593_20602" x1="160.22" y1="148.066" x2="155.981" y2="145.894" gradientUnits="userSpaceOnUse">
<stop stop-color="#E7DBFF"/>
<stop offset="1" stop-color="#EBDBFF"/>
</linearGradient>
<linearGradient id="paint2_linear_5593_20602" x1="162.204" y1="147.999" x2="164.648" y2="146.134" gradientUnits="userSpaceOnUse">
<stop stop-color="#8C5FE8"/>
<stop offset="1" stop-color="#DDC2FF"/>
</linearGradient>
</defs>
</svg>
