<svg width="950" height="562" viewBox="0 0 950 562" fill="none" xmlns="http://www.w3.org/2000/svg">
<path d="M529.19 1.1123H17.9911C8.05488 1.1123 0 9.16783 0 19.1048V542.886C0 552.823 8.05489 560.879 17.9911 560.879H429.923L529.19 1.1123Z" fill="url(#paint0_linear_6581_27640)"/>
<path d="M430.785 560.879H932.008C941.944 560.879 949.999 552.823 949.999 542.886V19.1048C949.999 9.16782 941.944 1.1123 932.008 1.1123H530.052L430.785 560.879Z" fill="url(#paint1_linear_6581_27640)"/>
<path fill-rule="evenodd" clip-rule="evenodd" d="M426.829 560.886L525.74 1.11189L532.236 1.11426L432.826 560.886L426.829 560.886Z" fill="#DCCCFF"/>
<path d="M424.306 448.971C416.694 473.671 354.819 481.911 230.67 481.911C107.441 481.911 47.3654 465.784 45.028 448.971C44.8792 447.893 45.0805 447.088 45.2867 446.297C51.0966 424.094 118.42 414.898 230.67 416.03C362.471 417.196 421.746 427.582 424.712 445.535C424.935 446.89 424.627 447.928 424.306 448.971Z" fill="#C9D5F8"/>
<path d="M283.561 201.086V252.585C283.561 256.326 280.737 259.584 276.988 259.584H188.904C185.155 259.584 182.331 256.326 182.331 252.585V201.086C182.331 197.345 185.155 194.087 188.904 194.087H276.988C280.737 194.087 283.561 197.345 283.561 201.086Z" fill="#F5F0FF" stroke="#3C4349" stroke-width="3.15469"/>
<ellipse cx="232.85" cy="227.135" rx="27.85" ry="28.1349" fill="#E3D6FF"/>
<ellipse cx="232.85" cy="227.074" rx="21.8504" ry="22.0739" fill="#D2B8FF"/>
<path d="M232.991 242.987C241.822 242.987 248.981 235.827 248.981 226.994C248.981 218.161 241.822 211 232.991 211C224.159 211 217 218.161 217 226.994C217 235.827 224.159 242.987 232.991 242.987Z" fill="#8549FF"/>
<path d="M236.465 230.925H233.487C233.185 230.925 232.895 230.803 232.682 230.585C232.469 230.368 232.349 230.073 232.349 229.765C232.349 228.054 232.349 224.7 232.349 221.436C232.349 220.26 231.891 219.131 231.075 218.299C230.259 217.467 229.153 217 228 217V229.959C228 231.391 228.558 232.765 229.551 233.778C230.544 234.79 231.891 235.359 233.295 235.359H240.819C240.818 234.182 240.359 233.054 239.542 232.223C238.726 231.391 237.619 230.925 236.465 230.925Z" fill="url(#paint2_linear_6581_27640)"/>
<path opacity="0.9" d="M232.349 229.746C232.349 228.028 232.349 224.689 232.349 221.437C232.349 220.26 231.891 219.131 231.075 218.299C230.259 217.467 229.153 217 228 217V217V225.065C232.256 225.069 232.347 229.355 232.349 229.746Z" fill="#F8F5FF"/>
<path opacity="0.35" d="M240.815 235.363C240.815 234.186 240.356 233.057 239.54 232.225C238.724 231.393 237.618 230.925 236.464 230.925H233.485C233.183 230.925 232.894 230.803 232.681 230.585C232.467 230.368 232.347 230.073 232.347 229.765C232.347 229.765 231.733 235.363 236.829 235.363H240.815Z" fill="url(#paint3_linear_6581_27640)"/>
<rect x="230.025" y="261.527" width="7.01505" height="33.8989" fill="#3C4349" stroke="#3C4349" stroke-width="0.788673"/>
<path d="M150.199 204.544C149.845 212.91 148.544 219.017 147.681 223.054L147.358 224.546C145.194 235.005 144.237 248.333 144.497 264.383C144.143 264.141 143.8 263.899 143.456 263.658C143.228 247.839 144.206 234.668 146.349 224.294L146.661 222.791C147.525 218.786 148.815 212.753 149.169 204.481C149.439 197.922 149.002 193.066 148.44 186.917C148.003 182.166 147.514 176.795 147.213 169.258C147.046 165.096 146.963 160.913 146.963 156.792C147.004 156.834 147.035 156.867 147.077 156.897C147.21 156.995 147.358 157.055 147.525 157.055C147.702 157.055 147.868 156.987 148.003 156.882C148.003 160.96 148.087 165.085 148.253 169.206C148.555 176.711 149.044 182.071 149.47 186.801C150.043 193.003 150.49 197.88 150.199 204.544" fill="#CFD4D8"/>
<path d="M143.655 108.481C143.505 108.763 143.162 109.11 139.283 109.065C137.933 109.044 137.312 109 137.033 108.524C136.819 108.178 136.841 107.594 137.098 107.226C137.398 106.771 137.891 106.814 138.876 106.879C139.177 106.9 139.54 106.922 139.97 106.922C140.312 106.922 140.676 106.922 141.105 106.9C141.105 106.9 141.941 106.857 142.241 106.835C142.884 106.771 143.291 106.792 143.548 107.118C143.827 107.464 143.869 108.048 143.655 108.481V108.481ZM155.677 111.014C155.634 110.061 155.591 107.615 153.984 106.381C152.89 105.537 151.541 105.623 150.92 105.645C148.07 105.71 131.912 105.667 128.505 105.688C127.948 105.688 126.576 105.623 125.612 106.532C124.584 107.507 124.605 109.044 124.605 109.629C124.519 140.26 124.219 146.084 124.219 146.084C124.134 148.14 123.965 150.085 125.205 151.69C127.075 154.111 130.219 153.335 140.034 153.4C149.162 153.443 153.769 154.158 155.355 151.431C155.806 150.673 155.837 149.938 155.869 149.526C156.411 142.826 156.448 139.459 155.677 111.014" fill="#A1C0F7"/>
<path d="M153.863 147.76C153.852 148.264 153.863 149.851 152.843 150.692C152.073 151.323 151.064 151.249 150.679 151.228C150.023 151.186 149.222 151.186 148.338 151.197V156.221C148.338 156.494 148.202 156.741 148.005 156.889C147.869 156.983 147.703 157.041 147.526 157.041C147.36 157.041 147.214 156.988 147.079 156.904C147.037 156.873 147.006 156.841 146.964 156.799C146.819 156.652 146.725 156.442 146.725 156.221V151.239C143.208 151.354 138.62 151.638 134.312 151.565V156.221C134.312 156.673 133.958 157.041 133.511 157.041C133.064 157.041 132.71 156.673 132.71 156.221V151.512C131.326 151.46 129.994 151.365 128.756 151.197C128.507 151.165 127.934 151.081 127.414 150.671C126.207 149.725 126.248 147.823 126.248 147.161C126.301 135.357 126.748 123.563 126.717 111.759C126.717 111.118 126.696 109.772 127.58 108.826C128.891 107.45 130.837 108.385 134.645 108.038C134.957 108.017 135.581 107.954 135.966 108.332C136.341 108.721 136.06 109.363 136.528 109.815C136.695 109.983 136.892 110.056 137.121 110.119C137.538 110.235 137.975 110.288 138.432 110.298C139.514 110.351 140.711 110.193 142.074 110.172C142.324 110.161 142.584 110.161 142.854 110.172C143.531 110.193 144.165 110.256 144.467 109.857C144.779 109.447 144.425 108.963 144.706 108.522C144.946 108.143 145.456 108.07 147.016 108.07C150.689 108.049 150.013 108.122 150.689 108.08C151.865 108.017 152.208 107.891 152.656 108.154C153.384 108.595 153.602 109.888 153.644 110.277C153.987 113.315 154.154 114.828 153.863 147.76" fill="#EDF1FD"/>
<path d="M149.262 145.188C148.124 146.214 145.439 146.148 140.116 146.186C134.924 146.222 132.306 146.22 131.17 145.188C129.413 143.592 129.533 141.327 129.591 127.772C129.632 118.226 129.586 116.169 131.17 114.62C132.476 113.343 135.143 113.317 140.424 113.317C145.307 113.317 147.748 113.317 148.95 114.369C150.278 115.531 151.002 117.393 151.101 129.909C151.197 142.259 150.519 144.053 149.262 145.188" fill="#A1C0F7"/>
<path d="M146.87 120.799H133.818C133.67 120.799 133.551 120.679 133.551 120.529C133.551 120.379 133.67 120.259 133.818 120.259H146.87C147.019 120.259 147.138 120.379 147.138 120.529C147.138 120.679 147.019 120.799 146.87 120.799ZM146.87 124.494H133.818C133.67 124.494 133.551 124.374 133.551 124.224C133.551 124.073 133.67 123.952 133.818 123.952H146.87C147.019 123.952 147.138 124.073 147.138 124.224C147.138 124.374 147.019 124.494 146.87 124.494ZM146.87 128.188H133.818C133.67 128.188 133.551 128.069 133.551 127.918C133.551 127.768 133.67 127.647 133.818 127.647H146.87C147.019 127.647 147.138 127.768 147.138 127.918C147.138 128.069 147.019 128.188 146.87 128.188ZM146.87 131.883H133.818C133.783 131.883 133.748 131.876 133.716 131.863C133.683 131.849 133.654 131.829 133.629 131.804C133.604 131.779 133.585 131.749 133.571 131.716C133.558 131.684 133.551 131.648 133.551 131.613C133.551 131.463 133.67 131.342 133.818 131.342H146.87C147.019 131.342 147.138 131.463 147.138 131.613C147.138 131.762 147.019 131.883 146.87 131.883ZM146.87 135.578H133.818C133.67 135.578 133.551 135.457 133.551 135.307C133.551 135.235 133.579 135.166 133.629 135.116C133.679 135.065 133.747 135.036 133.818 135.036H146.87C147.019 135.036 147.138 135.157 147.138 135.307C147.138 135.457 147.019 135.578 146.87 135.578ZM146.87 139.272H133.818C133.783 139.272 133.748 139.265 133.716 139.252C133.683 139.238 133.654 139.218 133.629 139.193C133.604 139.168 133.585 139.138 133.571 139.106C133.558 139.073 133.551 139.038 133.551 139.002C133.551 138.851 133.67 138.731 133.818 138.731H146.87C147.019 138.731 147.138 138.851 147.138 139.002C147.138 139.152 147.019 139.272 146.87 139.272Z" fill="#EDF1FD"/>
<path d="M156.454 98.7355H109.884C109.503 98.4149 109.039 98.2104 108.547 98.1459V93.5442C108.547 92.2051 107.427 91.0741 106.102 91.0741C104.749 91.0741 103.649 92.1819 103.649 93.5442V98.1438C103.151 98.206 102.682 98.4114 102.296 98.7355H55.7181C54.37 98.7355 53.2734 99.8434 53.2734 101.206C53.2734 102.573 54.37 103.684 55.7181 103.684H70.3977V108.46C70.3977 109.679 71.3755 110.667 72.5819 110.667C73.7886 110.667 74.7664 109.679 74.7664 108.46V103.684H101.344C101.374 104.695 101.963 105.58 102.877 105.998V108.991C102.877 109.726 103.172 110.392 103.649 110.875V224.217C103.119 224.706 102.779 225.401 102.779 226.182V229.123C102.779 229.852 103.091 230.539 103.642 231.049V377.852L74.5579 415.494C73.7276 416.568 73.9174 418.126 74.9827 418.968C76.0487 419.805 77.5908 419.612 78.4187 418.538L106.197 382.583L133.757 418.529C134.226 419.141 134.933 419.491 135.697 419.491C136.242 419.491 136.76 419.311 137.194 418.973C137.711 418.568 138.041 417.984 138.124 417.328C138.207 416.672 138.032 416.025 137.631 415.502L108.541 377.561V231.048C109.092 230.538 109.403 229.851 109.403 229.123V226.182C109.403 225.409 109.07 224.716 108.547 224.228V111.026C109.125 110.536 109.5 109.811 109.5 108.991V105.923C110.306 105.468 110.809 104.626 110.837 103.684H138.029V108.46C138.029 109.679 139.007 110.667 140.213 110.667C141.42 110.667 142.398 109.679 142.398 108.46V103.684H156.454C157.807 103.684 158.907 102.573 158.907 101.206C158.907 99.8434 157.807 98.7355 156.454 98.7355" fill="#ABB3BA"/>
<path d="M403.749 329.588V362.457H120.782C117.727 363.335 114.379 362.074 112.473 359.022L61.5289 265.436C59.0687 261.506 59.9356 256.09 63.4648 253.342L73.4173 245.595C76.0385 243.546 79.4011 243.577 81.968 245.336C82.8432 245.936 83.621 246.744 84.2466 247.746L127.86 329.588H403.749Z" fill="#5EC6CA"/>
<path d="M142.737 330.846L126.445 331.093L84.6208 251.515C84.0565 250.528 83.3222 249.706 82.4678 249.075C80.1286 244.51 78.3155 240.643 77.5005 238.19C77.0332 236.8 76.403 234.384 77.0921 232.037C77.6221 230.215 78.9719 228.335 81.1762 227.71C83.8945 226.928 86.3839 228.478 87.2334 229.057C89.1172 230.355 90.022 231.635 91.6535 233.946C96.0651 240.174 96.2043 239.142 99.2705 243.874C101.469 247.257 101.208 247.509 103.857 251.858C106.451 256.118 108.515 258.866 109.702 260.518C116.443 269.939 116.245 274.247 124.778 288.525C128.673 295.047 128.654 294.044 131.935 299.807C134.952 305.115 136.856 310.498 140.645 321.241C141.791 324.471 143.357 328.704 142.737 330.846Z" fill="#B2E4E6"/>
<path d="M73.2695 436.236C73.2695 444.37 79.7973 450.964 87.8491 450.964C95.901 450.964 102.429 444.37 102.429 436.236C102.429 428.101 95.901 421.507 87.8491 421.507C79.7973 421.507 73.2695 428.101 73.2695 436.236ZM399.057 436.236C399.057 444.37 392.53 450.964 384.478 450.964C376.426 450.964 369.899 444.37 369.899 436.236C369.899 428.101 376.426 421.507 384.478 421.507C392.53 421.507 399.057 428.101 399.057 436.236Z" fill="white"/>
<path d="M151 242.891C146.491 237.489 127.044 239.745 136.305 252.719C142.053 260.771 160.793 281.438 166.415 289.99L175.413 284.995C173.805 280.444 159.987 253.653 151 242.891Z" fill="#E49C74"/>
<path d="M152.35 242.95C155.082 247.511 153.599 253.433 149.032 256.167C144.46 258.901 138.549 257.413 135.818 252.848C133.079 248.279 134.57 242.364 139.133 239.623C143.704 236.895 149.62 238.385 152.35 242.95Z" fill="#E7F6F9"/>
<path d="M151.076 241.266C156.484 248.058 162.98 257.894 162.98 257.894C162.719 262.196 152.734 269.988 148.082 269.346L136.112 253.312C136.688 250.731 151.076 241.266 151.076 241.266" fill="#E7F6F9"/>
<path d="M139.783 218.792C137.849 211.286 139.703 211.359 136.149 200.641C136.119 200.552 136.104 200.463 136.071 200.376C136.051 200.314 136.022 200.259 136.002 200.197C135.886 199.859 135.785 199.544 135.662 199.182C131.17 188.405 119.047 182.806 107.879 186.668C96.7104 190.53 90.6357 202.422 93.8222 213.647C93.7612 213.669 96.7379 223.431 95.7817 227.703C94.413 233.819 98.6002 234.476 99.6193 238.007C100.637 241.539 97.4984 243.422 98.9693 248.079C100.442 252.731 106.037 256.99 106.037 256.99C106.037 256.99 147.534 241.213 147.529 241.197C152.47 227.158 141.803 226.632 139.783 218.792Z" fill="#6E4036"/>
<path d="M118.497 247.128C117.162 246.251 115.9 245.423 115.125 244.005C114.506 242.865 114.221 241.536 114.344 240.359C114.403 239.796 114.611 239.251 114.83 238.674C115.048 238.095 115.279 237.496 115.376 236.832C115.701 234.652 114.428 233.309 113.305 232.124C112.679 231.461 112.084 230.834 111.741 230.086C111.113 228.728 111.225 227.195 111.339 225.577C111.42 224.453 111.504 223.294 111.338 222.147C110.98 219.704 110.275 217.361 109.589 215.093C109.083 213.418 108.56 211.687 108.19 209.949L106.769 210.25C107.149 212.049 107.678 213.81 108.197 215.514C108.863 217.729 109.558 220.021 109.899 222.357C110.044 223.346 109.968 224.379 109.89 225.472C109.765 227.204 109.637 228.996 110.421 230.695C110.868 231.66 111.569 232.405 112.25 233.123C113.315 234.249 114.158 235.138 113.939 236.618C113.866 237.127 113.674 237.626 113.474 238.156C113.229 238.796 112.977 239.456 112.9 240.207C112.742 241.694 113.08 243.29 113.849 244.7C114.796 246.437 116.271 247.406 117.7 248.345C118.515 248.88 119.29 249.416 119.96 250.064L121.508 249.567C120.63 248.54 119.552 247.822 118.497 247.128V247.128ZM106.562 243.771C106.499 242.974 106.538 242.175 106.576 241.328C106.627 240.241 106.676 239.119 106.499 237.988C106.214 236.196 105.258 234.87 104.327 233.589L103.873 232.953C102.587 231.122 102.514 229.16 102.437 227.08C102.391 225.837 102.34 224.552 102.041 223.227C101.602 221.277 100.855 219.419 100.136 217.623C99.4252 215.854 98.6923 214.023 98.2839 212.156C97.4759 208.485 98.5153 205.061 99.6145 201.442L100.061 199.966L98.6624 199.557L98.2249 201.017C97.1178 204.66 95.9742 208.426 96.8636 212.469C97.2996 214.451 98.0545 216.338 98.7843 218.166C99.4827 219.909 100.205 221.708 100.62 223.547C100.892 224.743 100.937 225.959 100.982 227.136C101.064 229.335 101.153 231.608 102.681 233.787L103.147 234.441C104.051 235.69 104.83 236.768 105.063 238.215C105.217 239.2 105.174 240.2 105.126 241.26C105.083 242.115 105.045 242.999 105.116 243.89C105.463 248.174 108.097 250.884 111.3 252.843C111.897 252.652 112.519 252.451 113.181 252.239C109.732 250.393 106.903 247.931 106.562 243.771V243.771ZM142.145 242.858C141.437 241.432 140.713 239.953 140.597 238.485C140.55 237.85 140.653 237.194 140.76 236.5C140.833 236.043 140.902 235.586 140.937 235.126C141.271 230.304 139.114 227.093 136.617 223.379L136.395 223.045C134.681 220.489 133.198 218.282 132.273 215.4C130.799 210.803 129.54 205.719 128.43 199.857L127.004 200.127C128.122 206.051 129.396 211.191 130.889 215.843C131.874 218.924 133.486 221.319 135.271 223.978L135.409 224.188C137.857 227.825 139.788 230.697 139.487 235.027C139.457 235.443 139.389 235.858 139.326 236.275C139.208 237.02 139.087 237.792 139.149 238.597C139.276 240.296 140.066 241.926 140.779 243.377C141.266 243.221 141.733 243.071 142.145 242.858" fill="#382621"/>
<path d="M161.052 268.138C161.14 257.2 152.069 250.153 148.241 239.598C147.182 236.676 137.395 234.277 126.815 237.641C114.367 241.601 108.264 252.73 108.264 252.73C110.78 264.412 123.057 279.402 128.436 295.988C130.744 303.103 141.629 324.463 142.928 329.474C143.545 331.844 168.837 327.436 168.837 327.436L181.434 291.029C181.434 291.029 177.414 289.448 170.433 283.751C164.922 279.253 160.989 276.251 161.052 268.138Z" fill="#E7F6F9"/>
<path d="M132.856 237.393L120.194 241.606L115.898 228.707L128.562 224.491L132.856 237.393" fill="#E49C74"/>
<path d="M117.533 233.627C120.092 234.324 122.904 234.31 125.645 233.409C127.538 232.785 129.186 231.796 130.58 230.568L128.56 224.491L115.895 228.707L117.533 233.627" fill="#DB7D49"/>
<path d="M127.397 193.756C127.397 193.756 132.534 209.341 134.248 214.545C136.554 221.543 132.538 229.16 125.278 231.55C118.017 233.937 110.268 230.201 107.963 223.197L101.118 202.408L127.397 193.756Z" fill="#E49C74"/>
<path d="M126.273 225.295C125.031 225.9 123.268 226.208 122.33 225.869C122.135 225.8 122.034 225.584 122.104 225.391C122.176 225.193 122.389 225.095 122.584 225.165C123.489 225.491 125.934 224.951 126.767 224.068C126.91 223.914 127.147 223.912 127.295 224.056C127.446 224.197 127.452 224.433 127.311 224.584C127.062 224.847 126.698 225.089 126.273 225.295Z" fill="#C16431"/>
<path d="M112.054 201.604C121.025 207.03 131.213 205.019 131.213 205.019C131.213 205.019 132.417 201.812 130.754 196.825C127.908 188.313 120.441 185.915 110.382 189.24C100.322 192.566 94.0953 200.961 97.4196 211.021C98.6518 214.751 101.905 219.056 105.957 220.741C108.469 218.752 110.002 212.416 112.054 201.604" fill="#6E4036"/>
<path d="M109.284 218.65C110.293 220.733 110.22 223.983 108.558 224.781C106.902 225.583 104.279 223.63 103.271 221.55C102.276 219.476 102.808 217.138 104.464 216.338C106.129 215.536 108.289 216.571 109.284 218.65Z" fill="#E49C74"/>
<path d="M108.093 222.215C108.064 222.232 108.034 222.244 108 222.255C107.823 222.303 107.642 222.197 107.598 222.015C106.734 218.78 104.118 218.408 104.089 218.404C103.913 218.38 103.782 218.218 103.81 218.032C103.829 217.851 103.993 217.728 104.181 217.746C104.299 217.758 107.267 218.185 108.234 221.853C108.252 221.921 108.248 221.992 108.222 222.057C108.197 222.122 108.152 222.178 108.093 222.215" fill="#C16431"/>
<path d="M123.908 221.756C125.256 221.712 126.082 220.615 126.203 219.551C126.335 218.369 125.655 217.406 124.472 217.098C123.934 216.957 122.984 214.541 122.446 212.372C122.388 212.145 122.167 212.005 121.927 212.065C121.704 212.121 121.564 212.35 121.62 212.577C121.915 213.747 122.97 217.581 124.261 217.914C125.411 218.218 125.393 219.173 125.358 219.458C125.283 220.159 124.752 220.882 123.884 220.91C123.657 220.919 123.468 221.115 123.477 221.348C123.485 221.579 123.677 221.76 123.908 221.756Z" fill="#C16431"/>
<path d="M135.11 236.078C132.29 236.26 129.502 236.784 126.809 237.639C123.406 238.721 120.492 240.347 118.031 242.128C118.074 242.338 122.51 248.086 130.54 245.106C137.852 242.394 135.207 236.272 135.11 236.078Z" fill="#E49C74"/>
<path d="M111.215 211.257C112.36 210.103 117.311 208.846 117.311 208.846L117.454 209.906C117.454 209.906 114.323 210.481 111.215 211.257Z" fill="#844A2A"/>
<path d="M129.635 205.943C128.336 205.387 123.258 207.354 123.258 207.354L123.676 208.233C123.676 208.233 126.612 206.999 129.635 205.943Z" fill="#844A2A"/>
<path d="M104.958 263.158C104.135 255.787 120.026 242.625 123.152 259.133C125.09 269.378 128.305 290.845 130.717 301.362L116.922 305.183C114.628 300.639 106.597 277.843 104.958 263.158Z" fill="#E49C74"/>
<path d="M104.969 263.48C106.448 268.886 112.037 272.076 117.448 270.588C122.864 269.103 126.044 263.515 124.556 258.109C123.073 252.693 117.487 249.516 112.073 250.992C106.663 252.483 103.483 258.076 104.969 263.48Z" fill="#E7F6F9"/>
<path d="M104.61 261.286C105.845 270.352 108.597 282.467 108.597 282.467L128.175 279.474L124.693 258.671C122.308 257.23 104.61 261.286 104.61 261.286Z" fill="#E7F6F9"/>
<line x1="0.5" y1="-0.5" x2="15.6182" y2="-0.5" transform="matrix(-0.189806 -0.981821 0.981816 -0.189835 127.58 279.594)" stroke="#B2E4E6" stroke-linecap="round"/>
<line x1="0.5" y1="-0.5" x2="16.0459" y2="-0.5" transform="matrix(-0.482247 -0.876035 0.876003 -0.482306 159.293 259.446)" stroke="#B2E4E6" stroke-linecap="round"/>
<path d="M126.872 212.545C127.142 213.315 127.862 213.766 128.484 213.549C129.099 213.33 129.385 212.525 129.111 211.755C128.844 210.979 128.118 210.534 127.497 210.754C126.884 210.969 126.599 211.769 126.872 212.545ZM114.738 216.357C115.01 217.129 115.732 217.582 116.352 217.356C116.975 217.141 117.253 216.338 116.98 215.567C116.711 214.79 115.99 214.341 115.37 214.556C114.746 214.784 114.468 215.578 114.738 216.357" fill="#382621"/>
<path d="M126.008 295.969C129.714 297.277 131.629 301.384 130.308 305.138C128.994 308.877 124.93 310.848 121.229 309.534C117.531 308.223 115.613 304.126 116.927 300.378C118.255 296.634 122.315 294.661 126.008 295.969Z" fill="#E49C74"/>
<path d="M384.786 337.432C381.011 343.252 376.059 341.12 372.014 341.959C355.546 345.375 352.032 337.305 332.335 337.96C329.499 338.054 325.089 336.471 315.995 337.961C303.365 340.031 300.023 337.98 292.345 337.961C287.777 337.949 282.721 337.027 277.213 335.631C261.967 331.766 252.891 333.354 237.812 330.428C234.224 329.732 231.161 330.131 229.377 329.989L141.93 331.619C142.892 327.513 143.238 325.296 147.715 317.1C147.715 317.1 151.635 306.286 156.171 301.08C156.699 300.474 165.46 292.106 165.962 291.568C167.054 290.401 169.49 285.918 170.412 285.06C182.197 284.27 205.384 290.649 224.791 290.603C236.692 290.58 241.6 290.855 302.184 294.86C332.028 296.834 349.836 300.961 368.186 309.966C375.481 313.546 387.878 320.535 387.807 329.295C387.779 332.815 385.742 335.956 384.786 337.432Z" fill="#B2E4E6"/>
<path d="M159.531 308.064L159.37 299.294C140.857 297.73 138.254 296.624 125.317 295.859L123.589 309.856C129.173 310.495 147.103 309.562 159.531 308.064Z" fill="#E49C74"/>
<path d="M171.145 298.123C165.294 297.335 160.062 297.861 157.621 300.263C156.077 301.777 153.194 311.427 170.995 310.301C176.393 309.952 176.117 303.741 171.689 302.622C170.842 302.404 169.625 301.6 169.625 301.6C169.77 301.66 170.716 301.409 170.875 301.421L176.232 301.86C177.142 301.932 177.938 301.254 178.016 300.342C178.087 299.435 177.41 298.636 176.501 298.558L171.145 298.123Z" fill="#E49C74"/>
<path d="M171.358 308.429L184.798 306.999C185.838 306.852 186.587 306.038 186.441 304.986C186.295 303.949 185.274 303.536 184.233 303.682L169.872 304.925C168.828 305.071 170.324 308.573 171.358 308.429" fill="#E49C74"/>
<path d="M168.812 310.37L182.332 310.175C183.376 310.124 184.197 309.379 184.149 308.319C184.1 307.271 183.12 306.763 182.07 306.816L167.654 306.743C166.602 306.794 167.774 310.417 168.812 310.37ZM172.461 305.105L182.726 304.816C183.771 304.788 184.614 304.071 184.598 303.012C184.577 301.959 183.611 301.426 182.562 301.45L169.4 300.914C168.349 300.934 171.419 305.119 172.461 305.105Z" fill="#E49C74"/>
<path d="M361.866 397.145H110.47V369.372H361.866V397.145ZM175.875 322.684C175.875 319.462 178.462 316.85 181.651 316.85H316.033C319.222 316.85 321.808 319.462 321.808 322.684V331.752C321.808 334.975 319.222 337.587 316.033 337.587H181.651C178.462 337.587 175.875 334.975 175.875 331.752V322.684ZM413.729 282.742C413.729 280.43 411.874 278.557 409.586 278.557H405.935C403.647 278.557 401.792 280.43 401.792 282.742V350.942H330.65V322.422C330.65 315.001 324.693 308.983 317.346 308.983H180.336C172.99 308.983 167.033 315.001 167.033 322.422V350.942H64.576C61.2798 350.942 58.6074 353.642 58.6074 356.972V363.343C58.6074 366.673 61.2798 369.372 64.576 369.372H102.411V397.145H88.6653C85.9235 397.145 83.7007 399.391 83.7007 402.161V403.415C83.7007 406.186 85.9235 408.431 88.6653 408.431H102.411V426.677C102.411 428.925 100.607 430.748 98.3811 430.748H95.2138C93.5453 428.469 90.8743 426.986 87.8536 426.986C82.7956 426.986 78.6951 431.127 78.6951 436.237C78.6951 441.347 82.7956 445.489 87.8536 445.489C91.6204 445.489 94.8541 443.191 96.2599 439.907H106.441C108.666 439.907 110.47 438.084 110.47 435.836V408.431H361.866V435.836C361.866 438.084 363.67 439.907 365.896 439.907H376.076C377.482 443.191 380.716 445.489 384.483 445.489C389.541 445.489 393.641 441.347 393.641 436.237C393.641 431.127 389.541 426.986 384.483 426.986C381.462 426.986 378.791 428.469 377.123 430.748H373.955C371.73 430.748 369.925 428.925 369.925 426.677V408.431H383.671C386.413 408.431 388.635 406.186 388.635 403.415V402.161C388.635 399.391 386.413 397.145 383.671 397.145H369.925V369.372H407.76C411.056 369.372 413.729 366.673 413.729 363.343V356.972C413.729 356.717 413.708 356.468 413.678 356.222C413.698 356.052 413.729 355.885 413.729 355.71V282.742Z" fill="#ABB3BA"/>
<path d="M153.923 330.4H61.9688V337.728H67.5571V429.505H72.6867V451.265H80.4751V429.505H135.088V451.265H142.877V429.505H148.01V337.728H153.923V330.4Z" fill="#B4CDF9"/>
<path d="M148.015 339.03V338.006H141.089C140.805 338.006 140.582 338.231 140.582 338.518V420.814C140.582 421.09 140.805 421.326 141.089 421.326H148.015V420.302H141.596V380.173H148.015V379.149H141.596V339.03H148.015Z" fill="#77A4F3"/>
<path d="M124.473 330.397H115.855V317.273H124.473V330.397Z" fill="#FB8679"/>
<path d="M124.467 327.001H118.213V320.683H124.467V327.001ZM124.906 316.204H115.41V317.977H124.906V316.204Z" fill="white"/>
<path d="M139.419 330.397H131.396V320.933H139.419V330.397Z" fill="#8549FF"/>
<path d="M139.616 321.681H131.193V320.19H139.616V321.681ZM135.842 327.179H131.393V324.159H135.842V327.179Z" fill="white"/>
<path d="M145.773 330.397H138.525V318.857H145.773V330.397Z" fill="#FB8679"/>
<path d="M143.783 315.801H140.516V318.864H143.783V315.801ZM144.144 327.295H140.154V321.975H144.144V327.295Z" fill="white"/>
<path d="M72.1719 315.274C69.1172 299.285 67.108 287.549 66.9801 285.273C66.9478 284.703 66.8813 283.203 67.8216 282.284C68.3103 281.806 68.8969 281.689 69.0336 281.681C70.0777 281.608 71.8245 285.918 74.9036 305.428C74.1063 298.854 71.2686 275.066 71.8948 271.09C71.9902 270.481 72.2551 268.8 73.063 268.568C73.6122 268.41 74.1993 269.016 74.4128 269.23C76.3973 271.221 77.4583 288.3 77.7829 294.152C77.6581 288.887 77.346 274.169 77.6947 265.192C77.7787 263.03 77.9991 258.684 79.5718 258.306C80.1917 258.156 80.8103 258.673 81.0353 258.861C84.0467 261.381 83.0159 287.392 82.5118 297.744C84.7968 283.886 87.6316 270.375 90.1787 270.512C90.5185 270.529 90.7557 270.785 90.8777 270.921C94.4016 274.846 87.1787 298.702 85.6653 303.612C87.3617 300.155 89.6291 295.581 92.2658 290.41C93.0921 288.789 94.6451 285.803 96.0122 286.028C96.0122 286.028 96.4062 286.093 96.7541 286.519C98.2204 288.316 91.1296 304.739 86.4722 315.054C81.7052 315.126 76.9381 315.2 72.1719 315.274Z" fill="#B8EACF"/>
<path d="M85.6774 330.865H74.3473C72.822 330.865 71.5857 329.36 71.5857 327.503L69.8633 310.22H90.162L88.4395 327.503C88.4395 329.36 87.2027 330.865 85.6774 330.865" fill="#FB8679"/>
<path d="M111.26 330.398H100.402C99.8533 330.398 99.4009 329.966 99.37 329.413L97.7106 299.587C97.6777 298.988 98.1487 298.485 98.7422 298.485H112.918C113.512 298.485 113.983 298.988 113.95 299.587L112.29 329.413C112.26 329.966 111.807 330.398 111.26 330.398Z" fill="#A1C0F7"/>
<path d="M109.969 328.312H101.683C101.529 328.312 101.382 328.252 101.27 328.145C101.159 328.038 101.093 327.892 101.085 327.737L100.093 308.27C100.08 308.03 100.209 307.807 100.423 307.697C100.918 307.44 101.588 307.187 102.386 307.16C104.232 307.098 104.692 308.314 106.555 308.289C108.007 308.268 108.445 307.521 109.779 307.805C110.412 307.941 110.915 308.237 111.279 308.517C111.44 308.64 111.531 308.832 111.52 309.035L110.567 327.737C110.559 327.892 110.493 328.038 110.382 328.145C110.27 328.252 110.122 328.312 109.969 328.312" fill="#EDF1FD"/>
<path d="M901.648 449.066C895.249 469.829 823.073 476.755 718.713 476.755C601.685 476.755 537.742 463.198 535.778 449.066C535.653 448.16 535.822 447.483 535.995 446.818C540.879 428.154 610.913 420.424 718.713 421.376C829.505 422.356 899.496 431.086 901.989 446.178C902.176 447.316 901.918 448.189 901.648 449.066Z" fill="#FFD4D1"/>
<path d="M823.051 311.962C822.65 309.614 821.941 308.529 821.379 304.473C820.823 300.458 820.525 298.387 821.657 296.438C823.638 293.027 827.776 292.399 828.741 292.252C838.553 290.762 849.781 302.924 848.002 315.49C847.298 320.469 844.861 322.212 845.115 328.133C845.282 332.054 846.381 331.988 846.481 335.564C846.72 343.965 839.938 347.582 840.673 361.971C837.47 358.434 827.043 346.656 824.745 342.481C822.944 339.209 819.736 333.235 820.435 325.975C821.04 319.697 824.059 317.88 823.051 311.962V311.962ZM802.794 339.344C799.714 342.781 801.109 348.133 801.676 350.312C805.506 365.007 829.637 372.146 835.447 371.398C831.251 357.466 821.974 357.337 817.503 352.6C812.435 347.233 816.557 339.872 812.251 337.241C809.523 335.574 805.06 336.816 802.794 339.344" fill="#B8EACF"/>
<path d="M841.927 365.898C839.522 351.021 832.955 348.793 832.466 335.676C832.113 326.152 835.372 323.208 834.053 311.646C833.769 309.152 833.352 306.66 832.695 304.215C832.52 303.566 831.626 303.766 831.81 304.452C832.45 306.852 832.863 309.298 833.142 311.746C834.439 323.123 831.196 326.062 831.553 335.693C832.049 349.031 838.672 351.344 841.038 365.974C842.2 373.154 841.951 380.52 840.265 388.01C840.209 388.255 840.399 388.358 840.642 388.417C840.887 388.476 841.103 388.458 841.16 388.211C842.872 380.607 843.108 373.194 841.927 365.898" fill="#5FC88F"/>
<path d="M840.278 387.902C841.2 380.986 839.364 376.904 837.662 374.699C836.318 372.956 831.799 368.792 825.7 365.324C823.984 364.348 817.259 361.228 814.016 358.342C811.734 356.312 809.932 353.687 808.663 350.541C808.437 349.979 809.287 349.634 809.515 350.198C810.73 353.211 812.451 355.721 814.626 357.656C817.799 360.479 824.356 363.504 826.154 364.526C832.24 367.988 836.929 372.248 838.388 374.138C840.198 376.482 842.151 380.794 841.188 388.024C841.108 388.626 840.197 388.504 840.278 387.902" fill="#5FC88F"/>
<path d="M871.806 328.281C872.56 326.609 873.299 325.939 874.505 323.025C875.7 320.141 876.324 318.656 875.859 316.983C875.045 314.058 872.084 312.785 871.393 312.489C864.37 309.473 853.643 316.355 852.528 326.064C852.085 329.912 853.563 331.684 852.225 336.046C851.339 338.935 850.533 338.673 849.763 341.318C847.954 347.533 852.305 351.545 848.963 362.124C852.038 360.111 862.093 353.359 864.616 350.694C866.594 348.606 870.145 344.777 871.034 339.231C871.803 334.435 869.905 332.495 871.806 328.281V328.281ZM881.583 352.619C883.212 355.778 881.132 359.496 880.286 361.01C874.58 371.216 855.211 371.85 851.027 370.163C856.859 360.597 863.797 362.302 868.048 359.641C872.867 356.625 871.226 350.34 874.944 349.216C877.302 348.503 880.386 350.295 881.583 352.619" fill="#B8EACF"/>
<path d="M847.261 364.809C851.942 354.189 857.269 353.805 860.179 344.126C862.292 337.097 860.435 334.271 863.663 325.911C864.359 324.108 865.154 322.331 866.119 320.637C866.374 320.188 867.001 320.51 866.732 320.985C865.787 322.65 865.006 324.392 864.322 326.162C861.147 334.388 862.993 337.208 860.856 344.316C857.897 354.158 852.513 354.596 847.909 365.037C845.649 370.162 844.403 375.701 844.207 381.609C844.2 381.802 844.039 381.842 843.846 381.839C843.651 381.835 843.494 381.78 843.5 381.586C843.7 375.586 844.965 370.016 847.261 364.809" fill="#5FC88F"/>
<path d="M844.218 381.531C844.874 376.198 847.035 373.513 848.731 372.2C850.071 371.162 854.248 368.937 859.465 367.537C860.934 367.143 866.551 366.124 869.527 364.603C871.622 363.534 873.475 361.929 875.031 359.831C875.309 359.456 874.743 359.034 874.464 359.409C872.973 361.418 871.203 362.955 869.206 363.975C866.294 365.462 860.821 366.442 859.282 366.855C854.074 368.252 849.753 370.516 848.298 371.641C846.496 373.036 844.202 375.87 843.517 381.444C843.459 381.909 844.161 381.995 844.218 381.531" fill="#5FC88F"/>
<path d="M853.918 402.314C850.273 405.388 834.575 405.448 830.912 402.356C828.365 400.21 827.096 396.172 827.589 391.376C827.675 390.583 827.802 389.782 827.99 388.956C828.05 388.65 828.118 388.343 828.203 388.036C828.459 387.031 828.8 386.009 829.208 384.97C829.336 384.654 829.472 384.34 829.608 384.015C830.145 382.815 830.783 381.596 831.533 380.378C831.695 380.123 831.857 379.867 832.036 379.603C832.7 378.589 833.441 377.575 834.276 376.579H842.401C842.401 376.537 850.553 376.537 850.553 376.537C851.286 377.422 851.959 378.308 852.563 379.211C852.913 379.731 853.245 380.25 853.552 380.77C854.089 381.665 854.565 382.559 854.974 383.445C855.247 384.015 855.486 384.586 855.698 385.14C855.988 385.881 856.235 386.622 856.439 387.346C856.599 387.874 856.735 388.408 856.849 388.948C857.027 389.775 857.155 390.583 857.24 391.376C857.725 396.146 856.456 400.167 853.918 402.314" fill="#808D9C"/>
<path d="M855.697 385.141C851.701 385.201 847.665 384.876 843.678 384.86C838.857 384.826 834.027 385.064 829.206 384.971C829.334 384.655 829.471 384.34 829.606 384.016C834.539 383.437 839.564 383.386 844.529 383.335C847.98 383.301 851.506 383.199 854.972 383.446C855.245 384.016 855.484 384.587 855.697 385.141ZM856.847 388.949C852.69 389.204 848.405 388.821 844.283 388.829C838.9 388.838 833.364 389.382 827.988 388.957C828.048 388.65 828.117 388.343 828.201 388.037C833.192 387.211 838.44 387.364 843.465 387.296C847.681 387.236 852.161 386.921 856.438 387.347C856.597 387.875 856.733 388.409 856.847 388.949" fill="white"/>
<path d="M850.909 420.034H833.073L835.13 408.699H848.851L850.909 420.034ZM858.924 404.34H825.65C824.446 404.34 823.471 405.316 823.471 406.521C823.471 407.724 824.446 408.699 825.65 408.699H830.7L825.86 435.361C825.646 436.546 826.431 437.68 827.615 437.894C827.746 437.919 827.877 437.931 828.007 437.931C829.04 437.931 829.957 437.194 830.149 436.141L832.281 424.393H851.699L853.832 436.141C854.024 437.194 854.94 437.931 855.974 437.931C856.104 437.931 856.235 437.919 856.365 437.894C857.55 437.68 858.336 436.546 858.121 435.361L853.281 408.699H858.924C860.127 408.699 861.103 407.724 861.103 406.521C861.103 405.316 860.127 404.34 858.924 404.34Z" fill="#FCA69C"/>
<path d="M622.134 371.193C630.112 362.031 643.212 359.64 653.615 353.368C658.821 350.228 663.359 346.099 667.611 341.754C669.835 339.483 672.008 337.121 673.609 334.373C675.883 330.47 676.892 325.984 678.102 321.632C682.102 307.25 688.581 293.653 692.617 279.283C695.113 270.391 696.668 261.234 699.682 252.506C702.696 243.778 707.385 235.295 714.807 229.803C715.747 229.106 716.781 228.395 717.188 227.297C717.479 226.51 717.399 225.639 717.314 224.805C717.124 222.908 717.482 222.581 716.622 220.88C714.302 216.287 708.296 214.486 703.296 215.699C698.297 216.911 694.205 220.488 690.852 224.392C678.898 238.313 674.227 256.827 668.369 274.216C666.739 279.056 664.983 283.892 664.209 288.94C663.592 292.965 663.609 297.056 663.477 301.127C663.39 303.789 663.651 307.029 662.98 309.612C662.259 312.379 661.255 312.749 658.441 314C653.325 316.274 647.696 317.094 642.222 318.038C630.656 320.036 617.246 321.666 605.953 324.865C607.743 323.43 616.005 367.532 614.183 374.515L622.134 371.193" fill="#CDADFF"/>
<path d="M818.247 232.766L809.4 226.752C781.719 217.603 751.896 215.007 723.051 219.236C717.545 220.042 711.841 221.194 707.444 224.606C705.129 226.401 703.296 228.736 701.561 231.098C687.732 249.929 678.737 271.92 673.581 294.623C670.952 306.198 669.296 317.991 668.46 329.829C667.993 336.451 667.67 337.611 661.354 340.068C655.241 342.448 648.775 343.728 642.495 345.564C634.178 347.992 625.692 351.729 620.746 358.842C619.384 360.8 618.333 362.961 617.44 365.173C616.014 368.706 614.977 372.384 614.348 376.142C620.552 375.343 626.667 377.842 632.842 378.835C651.607 381.854 670.429 384.502 689.299 386.779C698.735 387.916 708.182 388.93 717.634 389.911C724.502 390.623 731.56 394.38 735.331 385.894C738.015 387.728 742.566 387.776 744.856 385.468C747.146 383.161 748.238 379.954 749.257 376.867C753.67 363.503 777.777 355.464 782.19 342.1C785.18 333.042 787.553 319.585 791.108 310.733C795.52 299.738 790.503 291.466 795.76 280.845C803.636 264.935 810.37 248.678 818.247 232.766Z" fill="#D9C7FF"/>
<path d="M709.794 342.548C702.729 342.104 695.762 344.017 688.818 345.388C681.874 346.759 674.153 347.052 667.55 344.502C664.344 345.075 660.206 344.984 656.95 345.018C658.245 342.436 659.747 338.949 661.042 336.367C656.611 325.438 655.582 313.138 656.993 301.43C653.361 297.583 651.404 292.204 651.716 286.922C655.965 288.013 661.148 290.804 664.886 293.1C671.415 297.114 679.171 300.006 686.264 302.914C694.741 295.64 706.194 290.51 717.165 288.402C715.589 297.05 715.438 305.69 716.312 314.437C717.214 323.452 718.221 332.799 722.879 340.57C723.636 341.833 724.36 343.742 723.109 344.521C722.522 344.887 721.766 344.758 721.089 344.617C717.496 343.865 713.458 342.78 709.794 342.548" fill="#E8F7EF"/>
<path d="M770.447 290.271C769.065 283.778 751.786 277.071 753.786 291.974C755.028 301.221 758.354 320.364 759.269 329.975L772.119 329.336C772.794 324.831 773.202 303.207 770.447 290.271" fill="#E49C74"/>
<path d="M696.227 305.468C691.887 304.48 687.78 302.745 683.363 302.186C682.281 301.672 681.222 301.074 680.193 300.364C679.892 300.156 679.543 300.581 679.784 300.848C680.392 301.516 681.048 302.109 681.735 302.644C681.774 302.751 681.853 302.843 681.989 302.88C682.017 302.889 682.046 302.895 682.075 302.904C685.998 305.793 691.031 306.742 695.933 307.105C696.855 307.173 697.163 305.682 696.227 305.468V305.468ZM656.736 303.908C658.261 305.411 660.261 306.329 661.84 307.858C662.483 308.479 663.481 307.584 662.871 306.914C659.973 303.73 657.478 299.783 654.224 296.958C653.716 295.72 653.207 294.485 652.588 293.316C652.545 293.235 652.474 293.206 652.396 293.195C653.241 296.257 654.812 299.119 656.993 301.43C656.895 302.255 656.809 303.081 656.736 303.908V303.908ZM667.481 332.224C667.432 332.242 667.382 332.263 667.333 332.279C663.944 333.496 660.052 336.283 659.443 340.082C659.387 340.433 659.921 340.685 660.155 340.417C661.281 339.112 662.126 337.622 663.363 336.404C664.657 335.13 666.24 334.09 667.902 333.361C668.524 333.083 668.14 331.997 667.481 332.224V332.224ZM674.048 344.319C672.961 344.121 671.828 344.043 670.784 343.653C669.648 343.231 668.764 342.44 667.708 341.884C667.493 341.771 667.186 341.93 667.256 342.202C667.943 344.806 671.797 346.18 674.119 345.139C674.445 344.993 674.428 344.388 674.048 344.319Z" fill="#B8EACF"/>
<path d="M709.108 329.819C707.375 330.269 705.619 330.625 703.848 330.887C704.003 328.42 704.083 325.945 704.109 323.466C705.902 323.182 707.692 322.917 709.478 322.728C709.41 325.102 709.299 327.468 709.108 329.819ZM708.25 336.842C706.577 337.148 704.898 337.429 703.207 337.659C703.436 335.863 703.618 334.06 703.753 332.254C705.511 332.025 707.259 331.685 708.995 331.158C708.814 333.066 708.573 334.962 708.25 336.842V336.842ZM706.225 316.149C707.383 315.948 708.507 315.645 709.61 315.283C709.583 317.391 709.556 319.5 709.506 321.602C707.714 321.791 705.917 322.052 704.118 322.333C704.127 320.372 704.106 318.408 704.064 316.443C704.791 316.363 705.514 316.272 706.225 316.149V316.149ZM704.04 315.336C703.977 312.799 703.886 310.258 703.789 307.718C705.922 306.818 707.931 305.447 709.954 304.171C709.748 307.473 709.674 310.796 709.626 314.121C709.377 314.202 709.127 314.283 708.875 314.359C707.329 314.821 705.705 315.131 704.04 315.336V315.336ZM702.714 331.046C700.875 331.279 699.024 331.426 697.126 331.511C697.078 329.197 696.99 326.886 696.862 324.577C698.908 324.311 700.951 323.974 702.992 323.646C702.961 326.118 702.876 328.585 702.714 331.046ZM702.057 337.811C700.435 338.008 698.803 338.158 697.155 338.237C697.177 336.389 697.174 334.541 697.146 332.695C698.983 332.653 700.808 332.572 702.621 332.386C702.481 334.199 702.293 336.008 702.057 337.811V337.811ZM696.265 316.707C698.505 316.759 700.75 316.727 702.951 316.543C702.993 318.533 703.014 320.522 703.003 322.509C700.935 322.838 698.864 323.175 696.79 323.441C696.652 321.192 696.478 318.949 696.265 316.707V316.707ZM693.978 338.305C692.142 338.283 690.307 338.21 688.473 338.12C688.555 336.327 688.603 334.534 688.614 332.741C690.277 332.751 691.939 332.76 693.604 332.744C694.408 332.735 695.211 332.726 696.011 332.714C696.039 334.568 696.041 336.423 696.019 338.28C695.341 338.299 694.662 338.313 693.978 338.305V338.305ZM688.453 325.033C689.019 325.051 689.587 325.075 690.156 325.073C692.017 325.069 693.876 324.928 695.732 324.714C695.859 326.995 695.943 329.277 695.992 331.562C695.221 331.585 694.442 331.602 693.653 331.609C691.975 331.628 690.298 331.617 688.621 331.606C688.617 329.414 688.561 327.223 688.453 325.033V325.033ZM687.733 316.306C688.12 316.333 688.505 316.369 688.896 316.388C690.925 316.486 693.016 316.606 695.122 316.678C695.341 318.974 695.521 321.275 695.661 323.578C693.844 323.784 692.026 323.922 690.205 323.94C689.598 323.944 688.992 323.924 688.386 323.907C688.238 321.368 688.021 318.834 687.733 316.306V316.306ZM679.982 337.572C679.995 335.914 679.994 334.255 679.964 332.597C682.467 332.673 684.971 332.717 687.477 332.741C687.464 334.516 687.417 336.291 687.336 338.065C684.884 337.93 682.432 337.754 679.982 337.572V337.572ZM679.627 324.228C682.179 324.58 684.738 324.87 687.312 324.999C687.422 327.199 687.477 329.403 687.481 331.606C684.965 331.582 682.45 331.536 679.936 331.461C679.878 329.048 679.78 326.637 679.627 324.228ZM679.545 323.123C679.48 322.189 679.418 321.254 679.338 320.321C679.196 318.667 679.073 316.935 678.936 315.164C681.455 315.638 683.988 316.005 686.577 316.228C686.87 318.77 687.092 321.32 687.242 323.875C684.662 323.754 682.1 323.471 679.545 323.123V323.123ZM673.757 337.119C672.81 337.055 671.859 336.98 670.91 336.909C670.895 335.342 670.857 333.776 670.785 332.212C673.464 332.364 676.145 332.472 678.827 332.561C678.856 334.203 678.868 335.847 678.856 337.487C677.155 337.361 675.456 337.233 673.757 337.119V337.119ZM670.008 322.844C672.834 323.206 675.656 323.659 678.485 324.066C678.642 326.517 678.75 328.97 678.808 331.425C676.115 331.334 673.422 331.224 670.732 331.074C670.58 328.322 670.338 325.578 670.008 322.844ZM669.86 321.739C669.468 318.721 668.968 315.718 668.361 312.735C669.266 312.951 670.173 313.175 671.079 313.405C673.289 313.967 675.474 314.482 677.662 314.923C677.969 317.597 678.217 320.278 678.407 322.964C675.554 322.559 672.709 322.102 669.86 321.739V321.739ZM665.768 302.29C668.079 303.163 670.366 304.37 672.747 305.739C674.085 306.512 675.389 307.155 676.696 307.7C676.997 309.649 677.258 311.604 677.496 313.563C674.364 312.842 671.223 312.018 668.083 311.344C667.427 308.302 666.649 305.283 665.768 302.29ZM664.497 298.217C664.623 298.26 664.747 298.309 664.873 298.346C668.036 299.297 671.668 299.636 675.25 299.812C675.792 301.911 676.141 304.073 676.469 306.216C673.489 304.796 670.681 302.981 667.473 301.504C666.746 301.17 666.012 300.897 665.275 300.653C665.024 299.838 664.765 299.026 664.497 298.217V298.217ZM685.662 309.656C685.958 311.46 686.219 313.269 686.443 315.082C683.916 314.861 681.377 314.411 678.831 313.855C678.682 312.024 678.507 310.16 678.272 308.302C680.587 309.102 682.981 309.548 685.662 309.656V309.656ZM694.312 309.558C694.578 311.575 694.812 313.594 695.016 315.616C692.478 315.525 689.971 315.341 687.602 315.18C687.378 313.348 687.119 311.52 686.823 309.698C689.29 309.733 691.809 309.729 694.312 309.558V309.558ZM702.045 308.337C702.26 308.279 702.472 308.202 702.684 308.132C702.778 310.576 702.866 313.016 702.926 315.458C700.708 315.668 698.429 315.705 696.16 315.651C695.953 313.585 695.715 311.523 695.444 309.463C697.684 309.264 699.902 308.925 702.045 308.337V308.337ZM720.034 334.531C716.467 335.186 712.927 335.957 709.365 336.633C709.675 334.714 709.907 332.781 710.076 330.837C712.883 329.994 715.603 329.273 718.372 328.788C718.279 328.384 718.19 327.982 718.106 327.575C715.876 327.929 713.675 328.45 711.523 329.131C711.074 329.274 710.63 329.397 710.186 329.525C710.356 327.236 710.454 324.934 710.517 322.625C712.765 322.423 715.007 322.368 717.243 322.551C717.189 322.171 717.136 321.791 717.087 321.409C714.912 321.253 712.73 321.308 710.546 321.502C710.596 319.313 710.624 317.116 710.657 314.921C712.514 314.249 714.329 313.45 716.164 312.731C716.133 312.363 716.099 311.994 716.071 311.626C714.283 312.327 712.515 313.101 710.676 313.762C710.736 310.323 710.829 306.887 711.082 303.478C712.616 302.556 714.177 301.757 715.821 301.308C715.832 300.923 715.858 300.54 715.875 300.157C714.167 300.613 712.649 301.445 711.168 302.393C711.542 297.941 712.218 293.537 713.469 289.227C713.042 289.334 712.618 289.447 712.193 289.563C710.972 294.006 710.353 298.551 710.023 303.143C708.652 304.056 707.273 304.999 705.755 305.748C705.103 306.07 704.43 306.35 703.746 306.607C703.566 301.932 703.385 297.256 703.349 292.595C702.971 292.753 702.595 292.915 702.22 293.079C702.268 297.708 702.458 302.351 702.639 306.994C700.301 307.752 697.821 308.196 695.305 308.429C694.811 304.817 694.216 301.216 693.528 297.627C693.182 297.843 692.839 298.062 692.496 298.284C693.14 301.685 693.703 305.096 694.172 308.518C691.635 308.692 689.084 308.68 686.634 308.59C686.291 306.583 685.905 304.585 685.477 302.595C685.052 302.422 684.626 302.247 684.197 302.075C684.672 304.224 685.099 306.381 685.473 308.544L684.887 308.517C682.372 308.392 680.166 307.786 678.088 306.936C677.742 304.526 677.279 302.143 676.62 299.875C677.424 299.906 678.215 299.933 679.001 299.958C677.585 299.374 676.171 298.774 674.765 298.155C674.802 298.269 674.843 298.382 674.879 298.496C672.067 298.33 669.259 298.119 666.551 297.541C665.626 297.345 664.775 297.033 663.968 296.65C663.364 294.896 662.712 293.158 662.034 291.427C661.527 291.142 661.008 290.858 660.48 290.579C661.19 292.323 661.874 294.076 662.503 295.845C659.143 293.734 656.541 290.386 653.085 288.251C652.884 288.127 652.686 288.381 652.826 288.557C655.305 291.693 659.151 295.759 663.119 297.659C663.414 298.528 663.708 299.396 663.983 300.268C661.267 299.572 658.499 299.478 655.725 299.939C656.003 300.304 656.3 300.655 656.605 300.998C659.371 300.69 661.941 301.033 664.453 301.831C665.373 304.891 666.184 307.978 666.867 311.091C663.376 310.39 659.887 309.927 656.411 310.051C656.405 310.439 656.408 310.827 656.408 311.214C659.996 311.1 663.572 311.66 667.154 312.459C667.783 315.486 668.296 318.535 668.699 321.599C664.848 321.144 660.984 320.91 657.078 321.245C657.128 321.617 657.189 321.988 657.245 322.359C661.141 322.019 664.999 322.251 668.845 322.706C669.185 325.466 669.433 328.237 669.59 331.013C666.034 330.803 662.483 330.522 658.936 330.208C659.046 330.599 659.168 330.987 659.287 331.377C662.737 331.679 666.19 331.949 669.647 332.153C669.72 333.708 669.758 335.266 669.773 336.827C666.763 336.612 663.755 336.489 660.795 336.863C660.595 337.273 660.397 337.685 660.201 338.097C663.329 337.591 666.562 337.671 669.777 337.903C669.78 340.33 669.714 342.757 669.58 345.181C669.951 345.29 670.323 345.389 670.699 345.483C670.841 342.983 670.915 340.486 670.914 337.99C672.666 338.133 674.406 338.299 676.115 338.417C677.024 338.479 677.933 338.546 678.842 338.613C678.806 341.215 678.712 343.818 678.574 346.417C678.952 346.42 679.33 346.42 679.709 346.413C679.842 343.84 679.932 341.269 679.968 338.696C682.408 338.876 684.849 339.051 687.292 339.191C687.174 341.377 687 343.565 686.779 345.752C687.166 345.69 687.551 345.623 687.936 345.553C688.144 343.452 688.313 341.35 688.426 339.249C690.828 339.372 693.232 339.455 695.638 339.448C695.761 339.448 695.882 339.441 696.004 339.44C695.977 340.933 695.926 342.429 695.867 343.926C696.247 343.849 696.629 343.775 697.01 343.7C697.065 342.27 697.115 340.839 697.14 339.411C698.735 339.359 700.313 339.232 701.88 339.056C701.688 340.37 701.457 341.677 701.203 342.986C701.596 342.929 701.989 342.879 702.383 342.831C702.628 341.527 702.853 340.22 703.039 338.912C704.706 338.698 706.362 338.424 708.011 338.124C707.727 339.593 707.385 341.05 706.986 342.491C707.366 342.484 707.744 342.485 708.124 342.49C708.528 340.978 708.87 339.451 709.15 337.912C712.928 337.193 716.677 336.34 720.458 335.63C720.313 335.266 720.169 334.901 720.034 334.531" fill="#B8EACF"/>
<path d="M619.164 398.722C619.104 395.885 614.688 395.874 614.747 398.722C614.764 399.476 614.748 400.238 614.741 401.002C614.707 400.274 614.663 399.545 614.631 398.817C614.506 395.999 610.228 395.965 610.224 398.817C610.224 398.866 610.223 398.915 610.223 398.964C609.476 398.655 608.551 398.85 608.409 399.84C607.37 407.085 608.984 432.861 613.225 433.487C617.841 434.165 617.787 427.494 618.096 424.645C619.032 416.028 619.345 407.384 619.164 398.722ZM711.074 439.219C711.383 442.068 711.33 448.742 715.946 448.061C720.186 447.437 721.801 421.66 720.761 414.415C720.62 413.423 719.695 413.228 718.948 413.537C718.948 413.49 718.946 413.441 718.946 413.393C718.943 410.541 714.664 410.572 714.539 413.393C714.508 414.121 714.464 414.847 714.43 415.575C714.422 414.814 714.407 414.05 714.424 413.297C714.483 410.449 710.066 410.458 710.006 413.297C709.825 421.959 710.137 430.603 711.074 439.219V439.219ZM762.181 424.645C762.49 427.494 762.437 434.165 767.051 433.487C771.293 432.861 772.906 407.085 771.868 399.84C771.726 398.85 770.8 398.655 770.055 398.964C770.053 398.915 770.053 398.866 770.053 398.817C770.049 395.965 765.771 395.999 765.646 398.817C765.615 399.545 765.571 400.274 765.536 401.002C765.527 400.238 765.514 399.476 765.529 398.722C765.588 395.874 761.173 395.885 761.113 398.722C760.932 407.384 761.244 416.028 762.181 424.645" fill="#FCA69C"/>
<path d="M610.822 402.208L724.617 423.369L735.332 388.221L610.857 368.418L610.822 402.208" fill="#CDADFF"/>
<path d="M710.154 371.486C711.036 375.09 711.475 378.788 711.463 382.499C714.297 382.978 717.737 382.961 720.211 381.499C720.593 379.434 720.755 377.982 721.138 375.917C721.282 375.14 721.223 373.564 721.073 372.789C720.89 371.844 720.294 371.04 719.715 370.272C718.652 368.863 717.199 367.741 716.136 366.332C714.572 368.492 712.609 370.447 710.154 371.486" fill="#E49C74"/>
<path d="M720.214 381.499C718.604 382.133 717.715 382.625 715.986 382.683C714.257 382.741 712.403 382.102 711.456 380.655C710.49 383.012 709.979 385.527 709.61 388.038C709.292 390.2 708.705 392.492 709.501 394.614C710.709 397.829 714.238 399.578 717.502 398.398C717.727 398.318 718.659 399.756 719.497 399.392C720.012 399.169 720.17 398.524 720.262 397.971C720.907 394.101 723.818 371.998 723.469 371.368C723.118 370.737 722.163 370.403 721.66 370.918C721.357 371.227 720.515 381.239 720.214 381.499Z" fill="#FFF1F0"/>
<path d="M614.348 402.863C611.814 403.16 607.421 401.455 604.879 401.232C603.713 401.131 603.099 396.248 602.935 395.47C602.14 391.679 601.593 387.842 600.958 384.03C598.41 368.733 598.573 353.75 599.95 338.363C600.274 334.74 600.767 331.053 602.665 327.87C603.79 325.982 605.504 324.58 607.773 324.492C610.631 324.382 612.102 325.383 614.245 327.277C618.443 330.986 616.487 389.105 614.348 402.863" fill="#D9C7FF"/>
<path d="M663.039 430.332C661.137 433.517 658.853 436.458 656.238 439.09C657.917 441.423 660.378 443.826 663.167 444.523C664.889 443.322 666.024 442.402 667.746 441.2C668.394 440.749 669.459 439.584 669.897 438.928C670.43 438.127 670.571 437.138 670.698 436.184C670.93 434.435 670.684 432.615 670.918 430.863C668.287 431.303 665.518 431.316 663.039 430.332Z" fill="#E49C74"/>
<path d="M663.169 444.523C661.578 443.844 660.598 443.568 659.327 442.396C658.055 441.223 657.184 439.465 657.526 437.77C655.185 438.772 653.054 440.202 651.028 441.73C649.282 443.046 647.255 444.265 646.332 446.334C644.933 449.472 646.218 453.195 649.37 454.649C649.585 454.747 649.24 456.427 650.091 456.757C650.616 456.96 651.18 456.613 651.636 456.283C654.81 453.982 672.406 440.291 672.6 439.596C672.793 438.9 672.349 437.993 671.627 438.006C671.196 438.014 663.565 444.55 663.169 444.523" fill="#FFF1F0"/>
<path d="M761.064 336.34C760.491 336.565 759.301 341.789 758.499 343.574C755.49 350.291 751.383 357.221 746.008 362.324C740.725 367.339 734.702 370.148 727.974 372.635C714.415 377.643 695.958 377.755 681.72 380.258C683.795 388.845 679.529 397.534 678.072 406.247C677.027 412.488 677.387 419.104 674.733 424.849C674.046 426.332 672.435 428.537 671.019 427.72C670.898 430.701 671.825 433.327 668.395 433.837C665.951 434.2 663.334 434.021 661.055 433.02C660.788 431.42 660.913 429.57 660.927 427.949C659.127 427.41 658.646 425.128 658.504 423.253C657.426 408.951 657.321 398.951 659.317 384.748C659.673 382.214 661.662 375.299 661.983 372.76C656.478 370.688 647.914 366.085 647.387 360.229C647.111 357.152 648.424 354.181 649.707 351.374C651.261 347.972 652.922 344.433 655.88 342.141C657.947 340.541 660.479 339.688 662.958 338.861C676.386 334.39 712.751 328.476 715.371 328.476C716.092 330.222 713.534 329.47 715.371 329.91C730.72 333.57 739.933 333.809 755.71 333.457C757.572 333.417 759.326 337.015 761.064 336.34Z" fill="#E0E3E6"/>
<path d="M716.843 259.402C714.685 252.049 713.148 253.05 710.733 242.151C710.713 242.065 710.681 241.979 710.663 241.889C710.649 241.826 710.647 241.764 710.634 241.701C710.56 241.356 710.485 241.037 710.408 240.665C708.759 229.243 716.211 218.347 727.648 215.963C739.085 213.582 750.266 220.599 753.25 231.74C753.313 231.726 755.733 241.522 758.708 244.665C762.971 249.163 759.75 251.843 760.673 255.354C761.599 258.868 765.216 258.877 766.327 263.575C767.436 268.271 764.616 272.395 764.616 272.395C764.616 272.395 721.625 282.361 721.623 282.344C710.317 272.932 719.103 267.08 716.843 259.402" fill="#6E4036"/>
<path d="M749.273 272.665C749.964 271.24 750.615 269.899 750.553 268.304C750.502 267.022 750.07 265.749 749.369 264.812C749.034 264.365 748.583 264.008 748.103 263.629C747.623 263.251 747.125 262.856 746.706 262.343C745.325 260.655 745.726 258.871 746.077 257.297C746.273 256.417 746.46 255.582 746.373 254.773C746.218 253.302 745.348 252.057 744.429 250.74C743.788 249.831 743.131 248.889 742.691 247.828C741.758 245.573 741.171 243.23 740.603 240.956C740.183 239.276 739.75 237.543 739.184 235.88L740.543 235.417C741.131 237.136 741.573 238.899 741.997 240.608C742.555 242.827 743.125 245.125 744.021 247.279C744.398 248.192 744.984 249.029 745.606 249.917C746.59 251.325 747.609 252.783 747.802 254.619C747.911 255.666 747.694 256.654 747.481 257.611C747.147 259.106 746.884 260.289 747.816 261.432C748.139 261.827 748.554 262.153 748.993 262.501C749.525 262.92 750.073 263.354 750.52 263.952C751.405 265.135 751.926 266.66 751.988 268.246C752.066 270.2 751.301 271.773 750.569 273.291C750.147 274.161 749.761 275.007 749.52 275.896C749.006 276.015 748.48 276.139 747.954 276.259C748.18 274.946 748.729 273.788 749.273 272.665V272.665ZM757.704 263.765C757.353 263.056 756.916 262.399 756.454 261.696C755.861 260.802 755.248 259.876 754.827 258.825C754.159 257.158 754.301 255.55 754.438 253.988L754.504 253.217C754.667 251.015 753.737 249.312 752.747 247.504C752.158 246.426 751.549 245.313 751.131 244.037C750.517 242.155 750.207 240.201 749.909 238.314C749.616 236.451 749.31 234.525 748.712 232.732C747.536 229.208 744.919 226.828 742.15 224.312L741.027 223.286L742.001 222.23L743.118 223.25C745.9 225.78 748.779 228.397 750.076 232.28C750.711 234.184 751.024 236.167 751.331 238.09C751.618 239.922 751.92 241.815 752.5 243.586C752.877 244.741 753.454 245.796 754.011 246.816C755.054 248.725 756.133 250.698 755.939 253.323L755.874 254.115C755.739 255.633 755.624 256.945 756.161 258.289C756.527 259.203 757.074 260.029 757.652 260.905C758.12 261.611 758.602 262.341 758.99 263.133C760.867 266.943 760.007 270.579 758.28 273.865C757.675 274.008 757.046 274.154 756.376 274.306C758.367 270.992 759.522 267.469 757.704 263.765V263.765ZM727.037 281.023C726.914 279.454 726.783 277.832 726.135 276.526C725.854 275.964 725.434 275.461 724.99 274.924C724.695 274.574 724.406 274.221 724.147 273.847C721.417 269.926 721.622 266.107 721.859 261.687L721.881 261.291C722.039 258.253 722.178 255.63 721.503 252.715C720.424 248.064 718.916 243.111 716.89 237.574L718.238 237.078C720.286 242.676 721.814 247.681 722.904 252.391C723.626 255.501 723.475 258.352 723.306 261.516L723.294 261.762C723.061 266.09 722.876 269.506 725.327 273.028C725.562 273.366 725.83 273.686 726.095 274.008C726.574 274.58 727.068 275.173 727.421 275.886C728.175 277.396 728.33 279.18 728.459 280.773C727.966 280.886 727.495 280.997 727.037 281.023" fill="#382621"/>
<path d="M727.899 271.038L739.591 280.508L748.506 266.582L744.607 266.582L742.141 255.715L729.256 258.553L731.761 269.924L727.899 271.038Z" fill="#E49C74"/>
<path d="M743.247 260.718C741.427 262.608 739.037 264.021 736.251 264.647C734.329 265.074 732.427 265.071 730.622 264.734L729.259 258.553L742.144 255.715L743.247 260.718" fill="#DB7D49"/>
<path d="M714.675 231.875C714.675 231.875 718.211 247.708 719.394 252.993C720.984 260.102 728.25 264.53 735.624 262.879C742.996 261.226 747.68 254.13 746.088 247.012C744.907 241.734 741.367 225.9 741.367 225.9L714.675 231.875Z" fill="#E49C74"/>
<path d="M731.678 230.755C726.813 239.909 717.145 243.365 717.145 243.365C717.145 243.365 714.498 241.253 713.383 236.175C711.487 227.511 716.607 221.687 726.832 219.412C737.057 217.137 746.595 221.109 748.87 231.331C749.714 235.12 749.134 240.424 746.552 243.908C743.411 243.495 738.897 238.893 731.678 230.755" fill="#6E4036"/>
<path d="M719.041 242.964C719.864 241.833 725.168 240.93 725.168 240.93L725.262 241.889C725.262 241.889 722.141 242.328 719.041 242.964Z" fill="#844A2A"/>
<path d="M737.275 238.529C735.72 238.13 730.879 239.571 730.879 239.571L731.298 240.544C731.298 240.544 734.242 239.445 737.275 238.529Z" fill="#844A2A"/>
<path d="M734.71 244.096C734.928 244.883 735.616 245.381 736.251 245.206C736.88 245.028 737.218 244.244 736.996 243.458C736.782 242.665 736.086 242.173 735.453 242.351C734.826 242.525 734.489 243.305 734.71 244.096ZM722.348 247.092C722.568 247.881 723.259 248.381 723.893 248.196C724.528 248.024 724.86 247.241 724.638 246.454C724.422 245.661 723.732 245.164 723.099 245.338C722.461 245.523 722.131 246.297 722.348 247.092" fill="#382621"/>
<path d="M742.661 243.827C742.862 246.105 744.572 248.828 746.384 248.663C748.198 248.505 749.435 245.518 749.236 243.239C749.029 240.977 747.394 239.262 745.581 239.422C743.763 239.583 742.454 241.558 742.661 243.827Z" fill="#E49C74"/>
<path d="M745.484 246.243C745.516 246.242 745.549 246.24 745.581 246.233C745.623 246.221 745.662 246.201 745.696 246.173C745.73 246.146 745.758 246.112 745.778 246.074C745.799 246.036 745.811 245.993 745.815 245.95C745.819 245.907 745.815 245.863 745.801 245.822C744.895 242.636 746.925 240.995 746.951 240.978C747.089 240.87 747.114 240.665 747 240.522C746.892 240.375 746.689 240.357 746.539 240.468C746.446 240.536 744.141 242.403 745.177 246.007C745.217 246.14 745.34 246.239 745.484 246.243" fill="#C16531"/>
<path d="M734.004 256.803C734.671 256.586 735.201 256.22 735.577 255.713C736.377 254.618 736.162 253.286 736.153 253.23C736.115 253.012 735.908 252.868 735.701 252.902C735.598 252.92 735.505 252.977 735.443 253.062C735.381 253.147 735.355 253.252 735.369 253.356C735.376 253.371 735.533 254.435 734.93 255.247C734.549 255.763 733.926 256.083 733.092 256.199C732.869 256.235 732.717 256.432 732.75 256.647C732.779 256.868 732.982 257.016 733.196 256.987C733.488 256.946 733.758 256.886 734.004 256.803V256.803ZM731.829 253.868C730.662 254.513 729.405 253.999 728.764 253.159C728.053 252.222 728.142 251.063 728.988 250.199C729.375 249.806 728.958 247.278 728.317 245.162C728.248 244.94 728.367 244.71 728.597 244.64C728.82 244.574 729.054 244.695 729.12 244.918C729.462 246.058 730.51 249.851 729.583 250.787C728.762 251.626 729.258 252.428 729.434 252.652C729.853 253.211 730.672 253.554 731.421 253.136C731.618 253.03 731.878 253.1 731.988 253.303C732.041 253.399 732.054 253.513 732.024 253.618C731.994 253.724 731.924 253.814 731.829 253.868" fill="#C16531"/>
<path d="M761.061 336.342C760.275 329.277 759.187 315.974 758.401 308.909C762.713 309.907 767.284 309.76 771.525 308.489C772.386 308.23 772.967 307.819 773.664 307.251C773.114 296.308 772.527 285.172 768.749 274.889C767.889 272.548 766.788 270.164 764.799 268.658C762.404 266.842 759.194 266.642 756.191 266.511C752.972 266.37 749.192 266.611 745.974 266.471C745.708 266.92 745.865 268.167 745.785 268.684C745.229 269.357 745.228 269.359 744.606 269.972C742.069 272.474 738.411 273.846 734.873 273.443C733.49 273.285 731.933 271.187 731.194 270.008C722.127 271.504 718.739 273.404 715.143 282.494C714.47 284.197 708.615 294.718 708.146 296.489C710.145 304.486 716.736 318.68 714.144 328.476C713.401 328.229 714.694 332.195 723.782 333.695C736.111 335.733 748.565 336.541 761.061 336.342Z" fill="#FDC3BE"/>
<path d="M754.874 285.839C754.862 285.652 755.077 285.612 755.171 285.731L755.374 286.779C756.622 294.004 757.458 301.31 758.567 308.555C758.665 309.19 757.663 309.292 757.575 308.655C756.525 301.084 755.347 293.471 754.874 285.839Z" fill="#FB8679"/>
<path d="M661.838 373.64C661.645 374.263 661.804 374.248 661.838 373.64Z" fill="#4994A3"/>
<path d="M708.494 339.498C697.036 343.145 692.112 343.723 682.302 349.155C682.266 349.128 682.237 349.097 682.194 349.079C678.068 347.297 673.195 347.597 668.907 348.503C668.571 348.574 668.654 349.091 668.987 349.093C672.805 349.101 676.467 349.877 680.201 350.347C670.991 355.685 662.519 361.04 661.834 373.64C663.662 367.712 666.948 362.246 671.703 358.136C675.935 354.478 680.864 351.528 685.843 349.035C695.857 344.02 698.69 345.089 708.938 340.642C709.665 340.326 709.245 339.257 708.494 339.498V339.498ZM683.016 380.112C683.013 379.483 682.367 378.951 682.063 378.419C681.654 377.695 681.369 376.929 681.086 376.151C680.97 375.831 680.517 375.968 680.529 376.284C680.562 377.192 680.825 378.063 681.245 378.865C681.35 379.068 681.466 379.303 681.599 379.531C680.515 379.335 679.204 379.534 678.473 380.088C678.288 380.228 678.372 380.494 678.581 380.547C679.296 380.727 680.058 380.613 680.788 380.648C681.455 380.68 682.054 380.801 682.709 380.635C682.851 380.598 682.924 380.472 682.936 380.337C682.985 380.276 683.017 380.2 683.016 380.112" fill="#C1C7CC"/>
<path d="M671.065 427.861C667.386 429.15 664.39 429.065 660.816 427.442C660.693 427.386 660.582 427.558 660.69 427.643C663.599 429.948 668.161 430.298 671.392 428.459C671.741 428.26 671.418 427.738 671.065 427.861Z" fill="#4994A3"/>
<path d="M733.555 342.498C737.246 338.125 743.365 337.623 747.108 337.07C757.435 335.546 767.858 334.674 778.293 334.455C780.662 309.264 782.349 288.756 791.496 265.165C794.166 258.275 797.985 248.036 801.964 241.808C804.844 237.298 814.764 222.419 820.074 223.095C823.931 223.585 826.961 226.939 828.133 230.648C829.305 234.357 828.947 238.367 828.328 242.207C826.957 250.71 776.857 404.855 774.645 409.866C760.684 414.747 746.499 419.456 732.955 424.122C738.861 397.48 735.291 369.734 733.555 342.498" fill="#CDADFF"/>
<path d="M724.615 423.37C727.099 423.958 730.404 424.049 732.954 424.122C734.601 424.171 739.978 408.268 740.696 406.381C742.834 400.774 744.989 395.042 746.602 389.255C749.139 380.154 750.219 370.646 749.777 361.209C749.485 354.916 748.557 341.755 740.303 340.476C737.476 340.039 735.901 340.864 733.554 342.498C728.957 345.699 724.075 409.459 724.615 423.37" fill="#D9C7FF"/>
<path d="M704.518 313.518C704.958 315.165 706.477 316.186 707.916 315.801L717.971 313.112C719.408 312.728 720.216 311.085 719.775 309.438L713.41 285.634C712.971 283.989 711.449 282.966 710.012 283.35L699.958 286.039C698.519 286.424 697.713 288.069 698.153 289.714L704.518 313.518Z" fill="#5E6F6B"/>
<path d="M703.94 314.238C704.38 315.881 705.898 316.905 707.338 316.52L717.392 313.831C718.832 313.446 719.641 311.8 719.202 310.157L712.836 286.349C712.396 284.704 710.874 283.686 709.435 284.07L699.38 286.759C697.941 287.144 697.134 288.785 697.574 290.43L703.94 314.238Z" fill="#3A4243"/>
<circle r="1.20892" transform="matrix(0.966051 -0.258351 0.258313 0.966061 701.249 290.626)" fill="#363635" stroke="#6E6E6D" stroke-width="0.509021"/>
<circle r="1.20892" transform="matrix(0.966051 -0.258351 0.258313 0.966061 702.237 294.317)" fill="#363635" stroke="#6E6E6D" stroke-width="0.509021"/>
<path d="M733.804 306.737C733.461 307.584 732.453 307.985 731.555 307.637L724.059 303.646C723.164 303.298 722.654 302.52 722.997 301.676C723.346 300.828 724.34 300.699 725.238 301.046L733.21 304.4C734.112 304.744 734.15 305.89 733.804 306.737Z" fill="#E49C74"/>
<path d="M740.418 312.743C740.418 312.743 740.255 308.441 737.466 306.325C731.483 301.79 729.485 306.013 729.485 306.013L740.418 312.743" fill="#E49C74"/>
<path d="M727.479 315.271C727.479 315.271 733.498 319.093 735.703 318.744C737.801 318.413 740.864 314.379 740.366 312.314C739.048 306.855 731.503 304.507 731.503 304.507L727.479 315.271Z" fill="#E49C74"/>
<path d="M725.897 313.512C725.828 314.334 726.46 315.059 727.309 315.14L730.972 315.467C731.827 315.548 732.571 314.945 732.651 314.122C732.723 313.297 732.09 312.57 731.241 312.496L727.579 312.166C726.724 312.084 725.973 312.695 725.897 313.512Z" fill="#E49C74"/>
<path d="M725.625 310.606C725.539 311.549 726.33 312.389 727.391 312.489L731.958 312.892C733.014 312.991 733.946 312.305 734.032 311.365C734.12 310.422 733.322 309.586 732.263 309.488L727.7 309.075C726.641 308.977 725.707 309.666 725.625 310.606Z" fill="#E49C74"/>
<path d="M726.365 307.131C726.056 308.025 726.623 309.028 727.628 309.38L731.963 310.87C732.966 311.216 734.035 310.773 734.346 309.88C734.654 308.99 734.082 307.984 733.076 307.636L728.747 306.141C727.742 305.794 726.67 306.239 726.365 307.131Z" fill="#E49C74"/>
<path d="M765.68 322.993C762.089 323.232 759.392 326.342 759.637 329.927C759.873 333.502 762.973 336.205 766.558 335.957C770.137 335.713 772.838 332.614 772.601 329.033C772.35 325.453 769.256 322.748 765.68 322.993" fill="#E49C74"/>
<path d="M736.633 318.633L740.553 311.982C755.681 318.648 758.192 318.906 768.617 323.815L762.755 334.973C758.12 333.091 745.686 325.059 736.633 318.633Z" fill="#E49C74"/>
<path d="M705.699 308.34C705.699 308.34 700.185 310.554 698.689 309.752C697.267 308.989 695.501 305.885 696.514 303.387C701.193 297.902 702.464 299.862 702.464 299.862L705.699 308.34Z" fill="#E49C74"/>
<path d="M706.289 307.131C706.449 307.791 706.106 308.429 705.518 308.559L702.989 309.114C702.399 309.247 701.792 308.817 701.626 308.159C701.461 307.496 701.804 306.857 702.392 306.731L704.917 306.174C705.511 306.041 706.121 306.474 706.289 307.131" fill="#E49C74"/>
<path d="M707.104 304.517C707.284 305.277 706.734 306.055 705.875 306.262L702.18 307.131C701.325 307.337 700.48 306.884 700.302 306.129C700.119 305.37 700.675 304.593 701.534 304.387L705.223 303.511C706.08 303.308 706.928 303.757 707.104 304.517" fill="#E49C74"/>
<path d="M706.964 301.95C707.135 302.714 706.521 303.513 705.598 303.738L701.613 304.712C700.69 304.938 699.796 304.501 699.623 303.741C699.453 302.982 700.062 302.181 700.983 301.957L704.966 300.983C705.891 300.761 706.788 301.192 706.964 301.95Z" fill="#E49C74"/>
<path d="M705.728 299.996C705.903 300.756 705.48 301.507 704.782 301.676L701.778 302.403C701.085 302.573 700.375 302.095 700.197 301.34C700.025 300.577 700.451 299.823 701.147 299.652L704.152 298.926C704.843 298.753 705.555 299.235 705.728 299.996Z" fill="#E49C74"/>
<ellipse cx="612.696" cy="203.476" rx="57.9713" ry="57.9758" fill="#EAE0FF"/>
<path d="M604.763 148.118C606.11 147.839 608.065 147.666 609.973 148.527C612.554 149.691 613.723 152.138 614.336 153.347C616.524 157.662 620.012 161.774 626.98 170.002C631.405 175.227 631.518 174.222 634.2 177.929C638.03 183.224 639.816 188.062 641.064 191.518C642.457 195.376 644.103 200.08 644.391 206.491C644.531 209.595 644.299 212.183 644.058 213.978C648.5 219.48 654.117 225.418 658.558 230.921C656.86 234.403 653.539 238.45 648.019 243.469C639.84 250.905 633.996 252.587 629.95 254.01C625.586 248.595 621.64 243.682 617.276 238.267C613.213 237.196 609.978 236.062 607.828 235.25C607.828 235.25 595.625 230.637 579.998 216.632C579.466 216.156 578.262 215.048 577.925 213.322C577.557 211.439 578.328 209.364 579.68 207.989C580.712 206.94 581.875 206.507 582.508 206.325C581.543 205.998 580.6 205.611 579.684 205.165C576.949 203.835 575.233 203.001 574.344 201.173C573.263 198.953 574.074 196.659 574.191 196.343C575.238 193.512 577.936 192.548 578.458 192.361C579.567 191.965 580.511 191.944 581.078 191.946C585.434 191.959 590.967 193.405 593.155 194.014C597.024 178.715 600.894 163.416 604.763 148.118Z" fill="#E49C74"/>
<path d="M618.262 238.295C618.227 238.295 618.192 238.283 618.163 238.262C618.134 238.241 618.113 238.212 618.102 238.178C618.088 238.135 618.092 238.089 618.112 238.049C618.133 238.01 618.168 237.98 618.211 237.966C619.139 237.669 620.034 237.274 620.879 236.789C621.889 236.208 622.82 235.502 623.653 234.688C623.72 234.623 623.826 234.624 623.891 234.69C623.922 234.722 623.939 234.765 623.939 234.81C623.938 234.854 623.92 234.897 623.888 234.928C623.036 235.763 622.081 236.486 621.047 237.081C620.181 237.578 619.265 237.983 618.313 238.287C618.297 238.292 618.28 238.295 618.262 238.295ZM640.785 221.156C640.753 221.156 640.722 221.147 640.694 221.129C640.667 221.112 640.646 221.087 640.632 221.058C640.619 221.029 640.614 220.996 640.619 220.964C640.623 220.932 640.637 220.902 640.658 220.878C641.51 219.888 642.208 218.782 642.731 217.59C643.152 216.629 643.456 215.621 643.638 214.588C643.654 214.496 643.745 214.432 643.832 214.451C643.924 214.467 643.985 214.555 643.969 214.646C643.783 215.707 643.47 216.742 643.039 217.725C642.503 218.947 641.788 220.082 640.913 221.097C640.897 221.116 640.878 221.131 640.855 221.141C640.833 221.151 640.809 221.156 640.785 221.156V221.156ZM627.617 217.971C627.574 217.971 627.531 217.954 627.498 217.921C624.963 215.371 621.57 211.037 619.803 204.872C618.746 201.182 618.408 197.355 618.8 193.496C618.809 193.403 618.894 193.335 618.984 193.346C619.006 193.348 619.027 193.354 619.047 193.365C619.066 193.375 619.084 193.389 619.098 193.406C619.112 193.424 619.122 193.443 619.128 193.465C619.135 193.486 619.137 193.508 619.134 193.53C618.747 197.346 619.081 201.131 620.127 204.78C621.874 210.875 625.229 215.162 627.736 217.684C627.802 217.75 627.802 217.856 627.736 217.922C627.72 217.937 627.702 217.95 627.681 217.958C627.661 217.966 627.639 217.971 627.617 217.971" fill="#C16431"/>
<path d="M630.711 223.923L596.932 226.847C593.609 227.135 590.194 224.662 589.344 221.353L568.038 140.207C567.188 136.898 569.211 133.955 572.534 133.667L606.314 130.743C609.636 130.456 613.05 132.928 613.9 136.237L635.206 217.383C636.056 220.692 634.034 223.636 630.711 223.923Z" fill="#362D3F"/>
<path d="M632.795 223.742L599.015 226.666C595.693 226.954 592.278 224.481 591.428 221.172L570.122 140.026C569.272 136.716 571.295 133.774 574.618 133.486L608.398 130.562C611.72 130.274 615.134 132.746 615.984 136.056L637.29 217.202C638.14 220.511 636.118 223.454 632.795 223.742Z" fill="#4F4456"/>
<path d="M613.93 136.816L634.795 216.248C635.425 218.699 633.941 220.877 631.5 221.088L599.064 223.896C596.623 224.107 594.109 222.275 593.48 219.825L572.614 140.393C571.985 137.942 573.468 135.765 575.909 135.553L608.345 132.745C610.786 132.534 613.3 134.366 613.93 136.816Z" fill="white"/>
<rect width="26.973" height="1.93751" rx="0.968754" transform="matrix(0.99642 -0.0845481 0.253534 0.967326 596.686 203.287)" fill="#E3E6E8"/>
<rect width="21.8353" height="1.93751" rx="0.968754" transform="matrix(0.99642 -0.0845481 0.253534 0.967326 600.229 206.818)" fill="#E3E6E8"/>
<ellipse rx="12.1321" ry="12.3253" transform="matrix(0.99642 -0.0845481 0.253534 0.967326 601.212 164.949)" fill="url(#paint4_linear_6581_27640)"/>
<path d="M603.461 173.546C608.347 173.132 611.294 168.928 610.044 164.157C608.793 159.386 603.819 155.855 598.933 156.269C594.047 156.684 591.1 160.888 592.35 165.658C593.601 170.429 598.575 173.961 603.461 173.546Z" fill="#8549FF"/>
<path d="M604.345 167.017L603.311 167.064C603.206 167.068 603.063 166.995 602.913 166.86C602.762 166.724 602.617 166.538 602.509 166.342C601.908 165.252 600.731 163.116 599.586 161.037C599.173 160.287 598.618 159.576 598.043 159.058C597.468 158.541 596.92 158.261 596.52 158.279L601.068 166.534C601.571 167.447 602.246 168.313 602.946 168.942C603.646 169.572 604.313 169.913 604.801 169.891L607.412 169.773C606.999 169.023 606.443 168.312 605.868 167.795C605.293 167.278 604.745 166.998 604.345 167.017Z" fill="url(#paint5_linear_6581_27640)"/>
<path opacity="0.9" d="M601.237 166.482C600.76 165.411 599.834 163.33 598.932 161.302C598.606 160.569 598.169 159.872 597.716 159.366C597.264 158.86 596.833 158.585 596.52 158.603V158.603L598.756 163.631C599.915 163.569 601.128 166.239 601.237 166.482Z" fill="#F8F5FF"/>
<path opacity="0.35" d="M607.42 169.597C606.902 168.813 606.203 168.068 605.478 167.527C604.754 166.986 604.062 166.692 603.555 166.711L602.246 166.76C602.113 166.765 601.932 166.689 601.742 166.547C601.553 166.405 601.37 166.211 601.235 166.005C601.235 166.005 603.428 169.747 605.668 169.663L607.42 169.597Z" fill="url(#paint6_linear_6581_27640)"/>
<path d="M599.525 136.255L585.968 137.429C584.864 137.524 583.73 136.703 583.447 135.603L583.366 135.289C583.084 134.189 583.756 133.21 584.86 133.115L598.416 131.941C599.521 131.846 600.655 132.668 600.938 133.768L601.018 134.082C601.301 135.182 600.629 136.16 599.525 136.255Z" fill="#4F4456"/>
<rect width="26.7408" height="7.62353" rx="2" transform="matrix(0.99642 -0.0845481 0.253534 0.967326 593.998 191.261)" fill="#8549FF"/>
<path d="M576.276 177.305C577.911 176.835 579.287 177.252 580.194 177.54C581.026 177.804 586.411 179.514 586.515 183.695C586.582 186.398 584.415 188.992 582.049 189.57C580.795 189.876 579.042 189.147 575.536 187.688C573.35 186.779 572.889 186.381 572.548 185.895C571.04 183.746 572.46 180.703 572.541 180.535C572.71 180.186 573.804 178.014 576.276 177.305" fill="#E49C74"/>
<path d="M583.769 180.87C583.228 181.591 582.406 182.887 582.022 184.697C581.77 185.886 581.787 186.918 581.861 187.661C580.194 187.481 578.811 186.46 578.28 185.029C578.213 184.851 577.632 183.209 578.529 181.868C579.472 180.459 581.686 179.926 583.769 180.87" fill="#DB7D49"/>
<path d="M582.522 206.323C583.818 206.801 585.147 207.185 586.498 207.472C588.606 207.92 590.505 208.077 592.085 208.1C594.991 208.728 597.181 209.568 598.658 210.233C599.51 210.616 600.199 210.975 600.654 211.73C601.464 213.073 601.106 214.958 600.375 216.081C599.738 217.059 598.34 218.194 593.001 218.356C589.938 218.448 585.441 218.224 580.011 216.631C578.383 215.221 577.619 213.062 578.022 210.979C578.463 208.706 580.227 206.88 582.522 206.323" fill="#E49C74"/>
<path d="M598.075 211.813C597.809 212.355 597.517 213.084 597.327 213.976C597.092 215.082 597.101 216.039 597.16 216.721C596.671 216.709 595.942 216.66 595.081 216.472C593.513 216.13 592.428 215.894 591.921 214.975C591.451 214.126 591.575 212.877 592.253 212.146C592.768 211.592 593.449 211.502 594.332 211.398C595.102 211.307 596.428 211.265 598.075 211.813ZM588.471 218.335C588.461 218.335 588.451 218.334 588.442 218.332L584.119 217.799C584.075 217.791 584.036 217.766 584.011 217.729C583.985 217.693 583.975 217.648 583.983 217.604C583.987 217.582 583.995 217.561 584.007 217.542C584.019 217.524 584.034 217.507 584.052 217.495C584.07 217.482 584.091 217.473 584.113 217.468C584.134 217.464 584.157 217.463 584.178 217.467L588.5 218C588.592 218.016 588.653 218.104 588.637 218.196C588.63 218.235 588.609 218.27 588.579 218.295C588.549 218.321 588.511 218.335 588.471 218.335Z" fill="#DB7D49"/>
<path d="M579.029 192.184C583.408 193.62 587.313 194.973 590.673 196.177C595.916 198.053 598.129 198.954 598.742 201.001C599.273 202.779 598.409 204.794 597.327 205.992C593.719 209.991 585.522 207.307 582.522 206.325C579.636 205.38 575.064 203.883 574.011 200.239C573.521 198.545 573.978 197.034 574.095 196.675C575.16 193.42 578.594 192.316 579.029 192.184" fill="#E49C74"/>
<path d="M596.167 200.168C595.702 200.642 594.906 201.578 594.42 202.996C593.971 204.306 593.987 205.443 594.043 206.092C591.31 205.82 589.267 204.365 588.93 202.58C588.917 202.509 588.646 200.949 589.596 200.001C590.437 199.162 591.754 199.286 593.173 199.419C594.469 199.541 595.499 199.889 596.167 200.168V200.168ZM591.238 208.243C589.994 208.218 588.749 208.083 587.534 207.842C586.152 207.569 584.789 207.156 583.485 206.615C583.465 206.606 583.446 206.594 583.43 206.578C583.415 206.563 583.402 206.544 583.394 206.524C583.385 206.503 583.381 206.481 583.381 206.459C583.381 206.437 583.385 206.415 583.394 206.395C583.429 206.309 583.528 206.268 583.614 206.304C584.898 206.837 586.239 207.243 587.599 207.512C588.8 207.749 590.018 207.881 591.241 207.907C591.264 207.907 591.285 207.912 591.306 207.921C591.326 207.93 591.344 207.942 591.36 207.958C591.375 207.974 591.387 207.993 591.395 208.014C591.403 208.034 591.407 208.056 591.406 208.079C591.405 208.123 591.387 208.164 591.356 208.195C591.324 208.226 591.282 208.243 591.238 208.243" fill="#DB7D49"/>
<path d="M657.175 237.014C657.54 243.333 704.149 268 700.654 281.493C694.653 269.719 651.137 250.672 647.678 246.01L657.175 237.014Z" fill="#EAE0FF"/>
<defs>
<linearGradient id="paint0_linear_6581_27640" x1="26.5" y1="12" x2="294" y2="427" gradientUnits="userSpaceOnUse">
<stop stop-color="#E8EDFC"/>
<stop offset="1" stop-color="#F6F8FE"/>
</linearGradient>
<linearGradient id="paint1_linear_6581_27640" x1="910.5" y1="48.5" x2="708.5" y2="316" gradientUnits="userSpaceOnUse">
<stop stop-color="#FFECEB"/>
<stop offset="1" stop-color="#FFF5F5"/>
</linearGradient>
<linearGradient id="paint2_linear_6581_27640" x1="227.997" y1="231.784" x2="218.947" y2="224.653" gradientUnits="userSpaceOnUse">
<stop stop-color="#E7DBFF"/>
<stop offset="1" stop-color="#EBDBFF"/>
</linearGradient>
<linearGradient id="paint3_linear_6581_27640" x1="232.692" y1="232.605" x2="239.39" y2="229.449" gradientUnits="userSpaceOnUse">
<stop stop-color="#8C5FE8"/>
<stop offset="1" stop-color="#DDC2FF"/>
</linearGradient>
<linearGradient id="paint4_linear_6581_27640" x1="24.2642" y1="24.6507" x2="-1.13821" y2="23.4159" gradientUnits="userSpaceOnUse">
<stop stop-color="#CDB8FF"/>
<stop offset="1" stop-color="#E6DBFF"/>
</linearGradient>
<linearGradient id="paint5_linear_6581_27640" x1="601.707" y1="167.697" x2="596.661" y2="168.299" gradientUnits="userSpaceOnUse">
<stop stop-color="#E7DBFF"/>
<stop offset="1" stop-color="#EBDBFF"/>
</linearGradient>
<linearGradient id="paint6_linear_6581_27640" x1="602.636" y1="167.893" x2="604.534" y2="166.029" gradientUnits="userSpaceOnUse">
<stop stop-color="#8C5FE8"/>
<stop offset="1" stop-color="#DDC2FF"/>
</linearGradient>
</defs>
</svg>
