<svg width="425" height="154" viewBox="0 0 425 154" fill="none" xmlns="http://www.w3.org/2000/svg">
<path d="M72.4253 116.783H46.9404C44.3586 116.783 41.8825 115.757 40.0569 113.932C38.2313 112.106 37.2057 109.63 37.2057 107.048C37.2057 92.6985 37.2057 64.5732 37.2057 37.2057C37.2057 27.3381 33.2858 17.8747 26.3084 10.8973C19.331 3.91987 9.86756 0 0 0V108.678C0.0030441 120.69 4.77694 132.209 13.2718 140.702C21.7666 149.195 33.2868 153.966 45.2989 153.966H109.677C109.665 144.096 105.734 134.635 98.7486 127.663C91.7632 120.69 82.295 116.777 72.4253 116.783Z" fill="url(#paint0_linear_6209_23271)"/>
<path opacity="0.4" d="M109.654 154C109.651 144.128 105.727 134.662 98.7456 127.683C91.7642 120.704 82.2967 116.783 72.425 116.783H46.9401C44.3583 116.783 41.8822 115.757 40.0566 113.932C38.231 112.106 37.2054 109.63 37.2054 107.048C37.2054 107.048 31.9477 154 75.5475 154H109.654Z" fill="url(#paint1_linear_6209_23271)"/>
<path d="M315.122 127.371C315.122 131.376 315.444 135.131 316.087 138.635C316.803 142.14 317.983 145.215 319.628 147.861C317.554 149.578 314.979 151.008 311.904 152.153C308.828 153.297 305.538 153.869 302.034 153.869C296.455 153.869 292.557 152.367 290.34 149.363C288.195 146.359 287.122 141.997 287.122 136.275V86.2828C287.122 80.3467 286.335 75.984 284.762 73.1947C283.188 70.4054 280.22 69.0108 275.858 69.0108C272.782 69.0108 269.314 69.869 265.451 71.5855C261.589 73.2304 258.013 75.7694 254.723 79.2023V152.26C252.721 152.617 250.468 152.868 247.965 153.011C245.533 153.225 243.102 153.333 240.67 153.333C238.31 153.333 235.878 153.225 233.375 153.011C230.872 152.868 228.619 152.617 226.616 152.26V45.9456L228.011 44.551H238.632C242.994 44.551 246.427 45.6953 248.93 47.984C251.434 50.2011 253.114 53.3122 253.973 57.3173C258.407 53.4552 263.27 50.2368 268.563 47.6621C273.927 45.0874 279.684 43.8 285.835 43.8C295.776 43.8 303.142 47.3045 307.934 54.3135C312.726 61.2509 315.122 69.9763 315.122 80.4897V127.371Z" fill="url(#paint2_linear_6209_23271)"/>
<path d="M330.463 121.923C330.463 113.556 332.358 106.69 336.148 101.326C340.011 95.8902 345.088 91.8851 351.382 89.3103C357.747 86.7356 364.685 85.4483 372.194 85.4483C374.698 85.4483 377.523 85.5198 380.67 85.6628C383.816 85.7344 386.963 85.9489 390.11 86.3065V80.2989C390.11 69.4994 384.889 64.0996 374.447 64.0996C369.441 64.0996 364.148 64.8863 358.57 66.4598C352.991 67.9617 347.377 69.6782 341.727 71.6092C339.653 69.3206 337.972 66.3167 336.685 62.5977C335.469 58.8072 334.718 55.1596 334.432 51.6552C338.866 49.8672 343.801 48.258 349.237 46.8276C354.744 45.3257 360.286 44.1456 365.865 43.2874C371.444 42.4291 376.629 42 381.421 42C388 42 394.08 43.2516 399.658 45.7548C405.237 48.1865 409.671 52.0843 412.961 57.4483C416.322 62.7407 418.003 69.7139 418.003 78.3678V122.138C418.003 125.714 418.432 128.861 419.29 131.579C420.22 134.225 421.793 136.442 424.011 138.23C423.438 140.733 422.223 143.415 420.363 146.276C418.575 149.137 416.716 151.246 414.785 152.605C409.778 152.176 405.594 150.817 402.233 148.529C398.943 146.24 396.368 143.522 394.509 140.375C390.647 143.951 386.105 147.134 380.884 149.923C375.663 152.641 369.584 154 362.647 154C355.352 154 349.308 152.391 344.516 149.172C339.796 145.954 336.256 141.877 333.896 136.943C331.607 132.008 330.463 127.001 330.463 121.923ZM357.926 119.992C357.926 123.64 358.999 126.679 361.145 129.111C363.29 131.543 366.258 132.759 370.049 132.759C377.058 132.759 383.745 129.612 390.11 123.318V104.544C387.464 104.258 384.782 104.115 382.064 104.115C379.346 104.043 376.915 104.008 374.769 104.008C369.191 104.008 364.971 105.474 362.11 108.406C359.321 111.267 357.926 115.129 357.926 119.992Z" fill="url(#paint3_linear_6209_23271)"/>
<path d="M117 121.923C117 113.556 118.895 106.69 122.686 101.326C126.548 95.8902 131.626 91.8851 137.92 89.3103C144.285 86.7356 151.222 85.4483 158.732 85.4483C161.235 85.4483 164.06 85.5198 167.207 85.6628C170.354 85.7344 173.501 85.9489 176.648 86.3065V80.2989C176.648 69.4994 171.427 64.0996 160.985 64.0996C155.978 64.0996 150.686 64.8863 145.107 66.4598C139.529 67.9617 133.914 69.6782 128.264 71.6092C126.19 69.3206 124.51 66.3167 123.222 62.5977C122.006 58.8072 121.255 55.1596 120.969 51.6552C125.404 49.8672 130.338 48.258 135.774 46.8276C141.281 45.3257 146.824 44.1456 152.402 43.2874C157.981 42.4291 163.166 42 167.958 42C174.538 42 180.617 43.2516 186.195 45.7548C191.774 48.1865 196.208 52.0843 199.498 57.4483C202.86 62.7407 204.54 69.7139 204.54 78.3678V122.138C204.54 125.714 204.969 128.861 205.828 131.579C206.757 134.225 208.331 136.442 210.548 138.23C209.976 140.733 208.76 143.415 206.9 146.276C205.112 149.137 203.253 151.246 201.322 152.605C196.315 152.176 192.132 150.817 188.77 148.529C185.48 146.24 182.905 143.522 181.046 140.375C177.184 143.951 172.642 147.134 167.421 149.923C162.201 152.641 156.121 154 149.184 154C141.889 154 135.845 152.391 131.054 149.172C126.333 145.954 122.793 141.877 120.433 136.943C118.144 132.008 117 127.001 117 121.923ZM144.464 119.992C144.464 123.64 145.536 126.679 147.682 129.111C149.828 131.543 152.796 132.759 156.586 132.759C163.595 132.759 170.282 129.612 176.648 123.318V104.544C174.001 104.258 171.319 104.115 168.602 104.115C165.884 104.043 163.452 104.008 161.307 104.008C155.728 104.008 151.508 105.474 148.648 108.406C145.858 111.267 144.464 115.129 144.464 119.992Z" fill="url(#paint4_linear_6209_23271)"/>
<defs>
<linearGradient id="paint0_linear_6209_23271" x1="-0.0224395" y1="123.981" x2="-76.2587" y2="62.7024" gradientUnits="userSpaceOnUse">
<stop stop-color="#8549FF"/>
<stop offset="1" stop-color="#9949FF"/>
</linearGradient>
<linearGradient id="paint1_linear_6209_23271" x1="40.1559" y1="130.868" x2="97.0358" y2="103.523" gradientUnits="userSpaceOnUse">
<stop stop-color="#270D5C"/>
<stop offset="0.876544" stop-color="#9847FF"/>
</linearGradient>
<linearGradient id="paint2_linear_6209_23271" x1="226.597" y1="132.433" x2="170.854" y2="79.2818" gradientUnits="userSpaceOnUse">
<stop stop-color="#8549FF"/>
<stop offset="1" stop-color="#9949FF"/>
</linearGradient>
<linearGradient id="paint3_linear_6209_23271" x1="330.444" y1="132.188" x2="273.758" y2="78.7634" gradientUnits="userSpaceOnUse">
<stop stop-color="#8549FF"/>
<stop offset="1" stop-color="#9949FF"/>
</linearGradient>
<linearGradient id="paint4_linear_6209_23271" x1="116.981" y1="132.188" x2="60.2954" y2="78.7634" gradientUnits="userSpaceOnUse">
<stop stop-color="#8549FF"/>
<stop offset="1" stop-color="#9949FF"/>
</linearGradient>
</defs>
</svg>
