<svg width="460" height="353" viewBox="0 0 460 353" fill="none" xmlns="http://www.w3.org/2000/svg">
<rect width="460" height="352.263" rx="19.4089" fill="#E8F7EF"/>
<mask id="mask0_6750_27946" style="mask-type:alpha" maskUnits="userSpaceOnUse" x="0" y="0" width="460" height="353">
<rect width="460" height="352.263" rx="19.4089" fill="#E8F7EF"/>
</mask>
<g mask="url(#mask0_6750_27946)">
<path d="M146.128 285.718C143.939 285.365 142.179 282.397 142.555 280.945C142.938 279.473 145.504 279.641 145.73 279.656C147.961 279.803 150.398 281.668 150.179 283.306C149.991 284.714 147.832 285.994 146.128 285.718ZM141.377 296.651C139.811 297.968 134.273 295.109 131.667 290.709C130.28 288.367 129.138 284.599 130.445 283.549C131.942 282.346 136.468 284.868 139.021 288.193C141.197 291.027 142.75 295.497 141.377 296.651ZM136.601 265.363C136.984 264.267 140.372 264.605 140.673 264.634C143.618 264.929 146.978 266.557 146.823 267.794C146.689 268.858 143.954 269.662 141.691 269.312C138.784 268.864 136.223 266.445 136.601 265.363ZM126.048 257.999C124.813 258.391 123.077 257.19 122.406 255.77C121.001 252.801 124.073 248.505 125.702 248.701C126.831 248.837 127.368 251.15 127.518 251.796C128.038 254.045 127.741 257.456 126.048 257.999ZM117.003 280.618C114.954 280.265 113.658 272.256 115.678 271.114C116.872 270.44 119.604 271.948 120.415 274.294C121.535 277.541 118.443 280.865 117.003 280.618ZM163.375 283.057C159.173 279.729 152.511 281.171 151.47 277.927C151.003 276.472 152.043 275.018 152.324 274.654C153.996 272.494 157.832 271.988 161.816 273.753C159.546 263.7 156.663 261.077 154.36 260.653C151.732 260.169 148.69 262.333 144.796 260.653C143.151 259.944 143.018 259.266 142.997 259.068C142.872 257.871 145.024 256.672 146.446 256.214C149.02 255.384 151.425 256.266 152.539 256.775C151.262 254.447 149.136 251.538 145.749 250.438C139.439 248.39 132.775 253.899 131.473 252.183C130.762 251.244 132.385 248.841 133.546 247.672C136.292 244.908 140.061 245.406 140.504 245.473C139.83 244.84 134.355 239.87 126.806 241.123C121.683 241.975 115.732 245.668 115.073 250.363C114.538 254.175 117.713 257.101 115.892 259.965C114.933 261.476 113.23 261.952 112.943 262.028C110.362 262.705 108.609 260.858 106.115 260.004C101.35 258.377 95.2302 260.83 91.6725 264.509C91.1107 265.091 87.2787 269.178 87.2835 275.194C87.2872 279.699 88.9739 284.364 90.2989 284.314C91.2163 284.279 91.1531 281.85 93.5411 277.613C94.8601 275.274 96.5468 272.365 98.7953 272.339C99.7527 272.328 100.807 272.842 101.41 273.608C104.467 277.488 94.5313 286.109 96.7239 293.364C97.0491 294.442 97.7202 295.636 98.9518 296.833C92.3848 313.034 87.0566 329.942 83.1057 347.301C78.2945 368.4 75.4915 390.143 74.7513 412.004L77.7873 412.12C78.2666 390.516 80.7869 368.959 85.3093 347.978C88.9993 330.83 94.0484 314.081 100.322 297.98C101.794 299.046 103.787 300.088 106.561 301.022C106.232 299.171 105.945 295.76 107.641 292.31C107.977 291.624 110.371 286.753 113.521 286.937C114.621 287.002 115.442 287.66 115.78 287.973C119.751 291.681 113.156 300.783 116.509 306.621C117.562 308.455 120.069 310.79 127.03 311.481C125.989 307.899 126.168 305.047 126.429 303.346C126.728 301.377 127.119 298.811 128.837 298.119C129.988 297.655 131.548 298.103 132.544 298.952C136.313 302.16 130.992 310.211 134.404 314.697C135.562 316.219 138.025 317.727 143.833 317.39C143.663 317.052 141.48 312.498 143.961 308.728C144.783 307.479 146.75 305.352 148.438 305.803C150.89 306.458 149.757 311.757 152.904 314.748C154.399 316.166 157.379 317.56 164.026 316.176C165.41 312.887 166.513 308.598 164.718 304.953C162.494 300.443 156.895 299.083 157.393 296.906C157.718 295.476 160.386 294.956 161.467 294.855C164.786 294.547 167.049 296.895 167.355 297.223C167.886 288.8 165.764 284.947 163.375 283.057ZM48.613 280.607C46.3767 281.829 42.677 279.654 41.0716 277.007C38.4458 272.674 40.693 265.85 43.4924 265.279C46.0005 264.767 49.4114 269.175 50.2159 273.302C50.2863 273.659 51.2947 279.142 48.613 280.607ZM46.4373 228.098C47.1824 228.273 47.4882 229.383 47.9032 230.959C48.5329 233.35 49.4139 238.795 47.5695 239.593C46.0794 240.238 42.7546 237.88 42.228 234.84C41.6188 231.317 44.9133 227.742 46.4373 228.098ZM36.5261 264.544C35.2763 264.953 33.1116 262.837 32.5752 260.567C32.3022 259.409 32.2148 257.209 33.4756 256.553C34.5361 256 36.0578 256.799 36.8525 257.665C38.7879 259.777 38.0211 264.058 36.5261 264.544ZM62.9132 262.24C63.5806 260.929 66.9733 261.333 69.1247 262.188C69.4681 262.325 72.7613 263.664 72.6011 265.069C72.4434 266.468 68.8711 267.917 66.1275 266.793C63.9664 265.906 62.3126 263.421 62.9132 262.24ZM72.1303 274.619C78.9158 273.329 82.152 263.76 82.6798 262.199C85.097 255.051 83.4528 248.1 82.476 248.015C81.6569 247.943 81.5999 252.736 77.7424 255.436C76.7147 256.157 74.4916 257.374 73.5476 256.617C72.1631 255.507 74.9758 251.307 76.0667 244.529C76.6698 240.778 76.5314 237.58 76.2948 235.373C75.1396 233.795 72.993 231.307 69.536 229.397C67.4137 228.223 65.4298 227.616 63.9155 227.286C64.3086 231.939 64.1703 235.782 63.9518 238.524C63.3172 246.46 61.8211 247.398 61.2678 247.663C59.5144 248.507 56.681 247.69 55.5477 245.913C53.8999 243.329 56.8182 240.233 57.6409 234.677C58.0728 231.752 57.9818 227.767 55.9566 222.759C54.6753 221.189 52.6464 219.072 49.699 217.201C47.7251 215.949 45.5924 214.967 43.3577 214.282C43.6805 215.534 44.0335 217.382 43.9983 219.623C43.9838 220.587 43.8831 227.218 41.2803 227.902C39.8946 228.267 38.3353 226.645 38.1812 226.478C36.4897 224.657 36.844 222.328 36.5588 218.764C36.4035 216.827 36.0286 214.151 35.0591 210.958C33.3336 210.43 30.7927 209.894 27.7349 210.088C26.1975 210.185 24.8494 210.449 23.7282 210.75C24.6588 211.12 26.0749 211.842 27.2604 213.25C29.4191 215.811 30.1884 219.902 28.8706 220.848C27.5601 221.79 24.2596 219.566 22.4941 217.952C19.3902 215.117 19.6353 212.898 17.3771 211.141C15.8106 209.922 12.999 208.894 7.55806 210.211C5.18097 217.762 6.37863 221.057 7.84323 222.676C10.6596 225.791 16.0472 224.458 17.4826 227.815C18.1549 229.386 17.7278 231.443 16.6163 232.418C14.8107 234 10.5989 233.255 6.74753 229.539C2.85852 235.637 2.87914 239.063 3.95666 241.108C7.44646 247.721 24.0279 243.708 26.1793 249.922C26.7253 251.502 26.2023 253.346 25.2279 254.375C22.647 257.1 15.5169 255.585 7.08608 250.341C7.26567 253.012 7.63695 256.893 8.4827 261.56C9.00205 264.418 9.27143 265.86 9.81504 266.511C13.9516 271.481 27.2665 264.412 29.4822 268.067C30.4711 269.699 28.5745 272.362 28.287 272.755C25.8298 276.094 20.39 277.162 14.6833 275.053C15.9368 278.942 18.1088 283.207 22.0973 284.812C29.1813 287.666 37.9142 280.484 40.3047 283.379C41.5036 284.831 40.1603 287.663 40.0487 287.894C38.3062 291.467 33.6406 291.74 33.376 291.752C34.3322 292.516 38.0829 295.332 43.5057 295.09C44.9108 295.026 50.5872 294.772 53.1572 290.941C56.101 286.554 52.2848 281.514 55.3924 276.908C57.9576 285.017 60.2048 293.241 62.0674 301.565C64.7673 313.537 66.7282 325.703 67.9161 337.944C70.3454 362.427 69.6707 387.229 66.0256 411.473L69.0252 411.996C72.4628 387.421 72.8851 362.35 70.1803 337.679C68.8553 325.34 66.7513 313.101 63.9094 301.073C61.8757 292.407 59.4391 283.856 56.6531 275.442C57.1882 274.951 57.9357 274.373 58.9247 273.902C63.8524 271.567 67.2524 275.545 72.1303 274.619Z" fill="#3DB5BA"/>
<path d="M30.8302 317.113C29.9141 318.672 25.8783 318.028 25.5312 316.821C25.2036 315.687 27.8525 313.035 29.6532 313.859C30.7769 314.372 31.392 316.157 30.8302 317.113ZM22.9952 323.702C22.0742 327.991 17.4086 332.185 15.9064 331.318C13.9686 330.198 16.3202 320.084 19.9386 319.46C20.7455 319.322 21.9468 319.597 22.6166 320.398C23.4648 321.409 23.1663 322.896 22.9952 323.702ZM13.3558 302.446C12.4506 304.844 8.10045 304.778 7.34449 304.766C6.01094 304.746 3.36083 304.706 2.67524 303.132C2.12435 301.866 3.10844 300.218 3.98939 299.362C6.40774 297.013 11.4568 297.313 13.0002 299.751C13.0439 299.821 13.8496 301.138 13.3558 302.446ZM59.2001 388.355C58.3604 379.712 56.9589 371.184 55.1169 362.881C52.7034 352.114 49.4441 341.782 45.4872 332.109C50.1819 328.399 54.4786 324.07 54.8475 318.211C54.8985 317.408 55.1424 312.289 51.5676 308.476C48.4771 305.179 44.2713 304.71 42.4742 304.537C33.4998 303.669 29.0683 310.052 25.8249 307.974C22.1603 305.624 27.3222 297.147 22.528 291.532C19.31 287.763 13.2199 287.174 9.06757 288.031C4.88126 288.894 2.22506 291.314 0.612427 292.821C-7.68252 300.578 -8.62293 312.093 -8.76854 316.14C-2.88466 313.102 2.65459 312.499 5.11056 314.931C5.30349 315.121 7.15274 316.953 6.74382 319.026C6.45381 320.503 5.15914 321.37 4.58034 321.747C1.57227 323.703 -0.884964 321.963 -4.27041 323.248C-5.50567 323.719 -7.19353 324.715 -8.80859 327.108C-8.64889 330.203 -8.28526 333.284 -7.72013 336.331C-6.91927 340.64 -5.80292 344.401 -4.65624 347.545C-0.253343 346.373 4.22862 345.522 8.7545 344.998C13.4286 344.456 17.6962 344.317 21.4347 344.388C21.5525 341.394 22.2502 326.893 26.6622 326.124C27.8477 325.917 28.9361 326.766 29.3523 327.089C32.3907 329.451 32.8008 335.119 30.5063 341.361C33.2741 340.2 37.2566 338.258 41.529 335.107C42.3141 334.527 43.115 333.935 43.9158 333.33C47.6835 342.986 50.7437 353.242 52.9534 363.863C54.6315 372.018 55.8741 380.355 56.5657 388.772C57.2715 397.181 57.4789 405.624 57.187 414.058L60.2242 414.418C60.3977 405.728 60.0555 396.992 59.2001 388.355Z" fill="#3DB5BA"/>
<g filter="url(#filter0_d_6750_27946)">
<rect x="28.1992" y="22.0156" width="200.503" height="160.299" rx="9.20587" fill="white"/>
</g>
<rect x="38.7754" y="31.7041" width="179.77" height="107.793" rx="4.00943" fill="#F4F0FF"/>
<mask id="mask1_6750_27946" style="mask-type:alpha" maskUnits="userSpaceOnUse" x="38" y="31" width="181" height="109">
<rect x="38.7754" y="31.7041" width="179.77" height="107.793" rx="4.00943" fill="#F4F0FF"/>
</mask>
<g mask="url(#mask1_6750_27946)">
<path d="M122.494 59.7369C122.494 59.7369 122.637 51.693 134.477 51.693C142.649 51.693 144.783 62.8845 144.783 62.8845C145.626 66.7231 150.168 74.3245 147.247 78.2855C144.326 82.2432 137.285 81.4684 134.478 81.4684C131.667 81.4684 126.459 82.9306 123.539 78.9728C120.619 75.013 122.494 59.7369 122.494 59.7369Z" fill="#571929"/>
<path d="M129.299 80.2897L126.685 81.4216L131.17 90.1299L139.842 82.0222L136.763 80.821V72.6751L129.309 72.6656L129.299 80.2897Z" fill="#FFA08B"/>
<path d="M115.559 174.259C111.83 180.721 109.555 187.847 106.739 194.711C104.012 201.366 100.385 207.243 96.2447 213.082C93.8193 216.513 89.4597 221.205 89.7401 225.724C89.7401 225.764 89.7401 225.794 89.7496 225.835C89.8697 227.465 90.2112 229.126 89.9709 230.756C89.4892 233.807 86.9236 232.688 84.6785 232.699C82.3332 232.709 79.9974 232.72 77.6616 232.729C74.5658 232.739 70.5455 233.424 67.5288 232.679C65.9856 232.306 67.8692 230.545 68.4005 230.293C70.6667 229.226 73.0616 228.472 75.3468 227.445C77.4718 226.498 79.5262 225.25 80.9903 223.489C81.1191 223.349 81.2395 223.201 81.3508 223.047C83.6666 219.936 88.7082 205.331 91.3539 197.751C91.844 196.322 92.2656 195.144 92.5671 194.329C99.7126 174.922 105.426 154.963 112.242 135.335C113.454 131.872 116.993 120.226 119.569 117.61C123.207 113.915 126.545 122.179 130.273 125.822C131.316 126.839 131.987 128.219 132.379 129.748C136.488 145.692 122.957 161.435 115.559 174.259Z" fill="#F5A784"/>
<path d="M165.584 231.836C165.333 232.068 164.963 232.087 164.632 232.108C159.059 232.309 153.577 232.097 148.033 232.097C146.891 231.997 145.598 231.775 144.977 230.819C144.606 230.257 144.555 229.552 144.505 228.877C144.436 227.84 144.335 226.844 144.194 225.888C143.763 222.777 142.982 219.968 141.88 216.787C139.464 209.762 137.56 202.847 136.769 195.428C135.945 187.758 135.725 179.988 133.891 172.459C132.427 166.47 130.123 159.736 128.438 152.861C126.073 143.158 124.95 133.182 129.2 124.647C129.441 124.154 129.701 123.661 129.982 123.177C132.167 119.433 135.736 118.326 139.655 120.289C142.22 121.567 143.673 124.335 144.656 127.043C145.538 129.499 146.179 132.066 146.67 134.682C147.843 140.934 148.113 147.507 148.655 153.666C149.447 162.847 149.537 171.986 149.907 181.186C150.229 189.127 150.93 212.952 151.081 216.928C151.15 218.88 151.121 221.408 151.872 223.471C152.243 224.498 152.815 225.413 153.677 226.088C154.599 226.793 155.742 227.105 156.864 227.407C159.349 228.081 161.585 229.158 164.111 229.813C164.602 229.944 165.123 230.084 165.494 230.456C165.854 230.819 165.965 231.494 165.584 231.836ZM81.7315 66.3116C81.7052 66.2746 81.7115 66.2428 81.7178 66.2121C81.7252 66.2386 81.7284 66.2746 81.7315 66.3116ZM120.221 82.1801C117.343 80.0281 110.505 82.232 107.716 83.0883C103.646 84.3416 99.5853 85.9019 95.329 86.0385C94.8852 86.0533 94.4257 86.048 94.0209 85.8638C93.5213 85.6373 93.1787 85.1715 92.8593 84.7248C89.1701 79.5761 83.768 73.7753 82.8194 67.2876C82.6697 66.2725 82.716 65.215 83.0491 64.076C83.1946 63.6049 83.3464 63.1244 83.4845 62.6491C83.6953 61.9145 83.845 61.1682 83.8292 60.4103C83.8039 59.1528 83.1704 57.8084 81.9867 57.4009C79.4938 56.5382 75.9015 58.7367 76.106 61.3503C76.1556 61.9653 76.2188 62.576 76.2947 63.1837C76.4233 64.1755 76.5898 65.1779 76.7711 66.155C77.2834 68.814 77.9717 71.4445 78.6632 74.0072C79.7067 77.9195 80.7998 81.8234 82.1342 85.6479C83.3074 89.0161 85.5441 93.5424 88.5566 95.6129C90.6574 97.0567 93.3094 97.3775 95.8497 97.532C101.916 97.9004 108.026 97.5543 114.014 96.5042C115.594 96.2269 117.208 95.8839 118.552 95.0053C120.521 93.7171 120.375 92.2722 120.795 90.2917C121.32 87.8242 122.359 85.8585 121.164 83.3307C120.939 82.8555 120.617 82.4754 120.221 82.1801Z" fill="#FFA08B"/>
<path d="M82.8176 67.2871C80.6125 66.2974 78.1745 66.1449 76.7694 66.1545C76.5881 65.1774 76.4216 64.175 76.293 63.1832L83.4827 62.6486C83.3447 63.1239 83.1928 63.6045 83.0474 64.0755C82.7143 65.2145 82.6679 66.272 82.8176 67.2871Z" fill="#E67C72"/>
<path d="M86.3182 59.7652L73.7453 60.8978C73.6019 59.2963 72.1926 58.1128 70.5968 58.2568C69.002 58.4007 67.8235 59.816 67.9669 61.4186L68.302 65.1722C68.4454 66.7749 69.8547 67.9573 71.4506 67.8133C73.0454 67.6704 74.2227 66.2541 74.0794 64.6525L86.6544 63.5199C86.7967 65.1225 88.206 66.3038 89.8019 66.1599C91.3977 66.0159 92.5751 64.6006 92.4317 62.9991L92.0966 59.2454C91.9532 57.6428 90.5439 56.4604 88.9481 56.6044C87.3533 56.7473 86.1748 58.1626 86.3182 59.7652Z" fill="#8549FF"/>
<path d="M78.5994 63.0669C78.6669 63.7179 78.9135 64.425 79.4964 64.7192C79.7937 64.8685 80.1362 64.8886 80.4672 64.9045C81.1987 64.9415 81.9598 64.9733 82.6323 64.6822C83.4618 64.3223 84.0352 63.4988 84.245 62.6159C84.4548 61.7331 84.3367 60.8006 84.0732 59.9315C83.9003 59.361 83.6452 58.783 83.173 58.4221C82.8916 58.2082 82.5543 58.0865 82.2148 57.9955C80.9131 57.6451 79.5038 57.7118 78.241 58.1818C77.1701 58.5808 76.6473 59.2339 77.4115 60.0786C78.3538 61.1192 78.4497 61.6432 78.5994 63.0669ZM175.455 66.2097C175.461 66.2403 175.466 66.2721 175.472 66.3028C175.444 66.2721 175.447 66.2361 175.455 66.2097ZM136.008 83.3282C134.813 85.856 135.851 87.8217 136.376 90.2891C136.798 92.2696 136.651 93.7145 138.62 95.0027C139.964 95.8813 141.579 96.2243 143.159 96.5016C149.153 97.5522 155.249 97.8972 161.323 97.5294C163.864 97.3749 166.515 97.0542 168.615 95.6103C171.628 93.5398 173.865 89.0136 175.039 85.6453C176.372 81.8208 177.467 77.917 178.51 74.0047C179.201 71.442 179.89 68.8115 180.401 66.1525C180.583 65.1755 180.75 64.173 180.877 63.1812C180.953 62.5736 181.017 61.9628 181.066 61.3478C181.27 58.7343 177.678 56.5357 175.187 57.3984C174.002 57.806 173.369 59.1503 173.344 60.4079C173.327 61.1658 173.477 61.912 173.689 62.6466C173.826 63.1219 173.977 63.6025 174.123 64.0735C174.455 65.2125 174.502 66.27 174.354 67.2851C173.404 73.7729 168.001 79.5736 164.313 84.7223C163.994 85.169 163.65 85.6347 163.151 85.8613C162.748 86.0454 162.287 86.0507 161.843 86.0359C157.587 85.8994 153.527 84.3391 149.456 83.0858C146.668 82.2294 139.829 80.0256 136.95 82.1776C136.554 82.4729 136.234 82.8529 136.008 83.3282Z" fill="#FFA08B"/>
<path d="M174.353 67.2871C176.557 66.2974 178.995 66.1449 180.4 66.1545C180.582 65.1774 180.749 64.175 180.875 63.1832L173.688 62.6486C173.825 63.1239 173.975 63.6045 174.122 64.0755C174.454 65.2145 174.5 66.272 174.353 67.2871Z" fill="#E67C72"/>
<path d="M170.854 59.7652L183.429 60.8978C183.572 59.2963 184.981 58.1128 186.576 58.2568C188.172 58.4007 189.348 59.816 189.206 61.4186L188.87 65.1722C188.728 66.7749 187.318 67.9573 185.722 67.8133C184.128 67.6704 182.95 66.2541 183.094 64.6525L170.519 63.5199C170.375 65.1225 168.966 66.3038 167.371 66.1599C165.775 66.0159 164.599 64.6006 164.742 62.9991L165.076 59.2454C165.22 57.6428 166.629 56.4604 168.224 56.6044C169.82 56.7473 170.997 58.1626 170.854 59.7652Z" fill="#8549FF"/>
<path d="M178.572 63.0676C178.503 63.7186 178.258 64.4257 177.675 64.7199C177.378 64.8692 177.036 64.8893 176.703 64.9052C175.972 64.9422 175.21 64.974 174.54 64.6829C173.709 64.323 173.135 63.4995 172.926 62.6167C172.716 61.7339 172.834 60.8014 173.098 59.9323C173.271 59.3618 173.526 58.7839 173.999 58.4229C174.278 58.2091 174.618 58.0874 174.956 57.9963C176.257 57.646 177.666 57.7126 178.93 58.1826C180.001 58.5817 180.524 59.2348 179.76 60.0795C178.817 61.12 178.72 61.6439 178.572 63.0676Z" fill="#FFA08B"/>
<path d="M151.5 217.82C151.387 217.991 151.261 218.123 151.12 218.224C150.881 218.389 150.626 218.527 150.358 218.636C149.826 218.858 149.244 218.978 148.633 219.05C148.152 219.109 147.672 219.119 147.19 219.099C144.905 219.05 142.635 219.088 142.635 219.088C140.019 214.176 133.9 196.985 134.411 185.5C134.923 174.026 127.917 153.885 127.917 153.885C127.897 153.945 127.886 154.015 127.855 154.085C126.322 159.28 111.329 188.902 108.652 195.032C108.591 195.184 108.531 195.315 108.482 195.436C105.605 202.35 92.3945 218.354 92.3945 218.354C89.4874 218.525 84.938 215.415 84.938 215.415C84.938 215.415 83.7448 210.514 85.7886 199.894C87.8346 189.275 100.112 172.365 103.189 157.578C106.266 142.782 117.059 121.485 117.059 121.485C124.005 122.773 130.141 122.53 134.581 121.946C134.743 121.927 134.902 121.907 135.053 121.876C135.885 121.765 136.656 121.635 137.358 121.503C137.629 121.453 137.889 121.403 138.13 121.353C140.605 120.849 142.019 120.356 142.019 120.356C148.263 129.234 149.767 144.726 149.767 150.039C149.767 155.344 151.982 187.896 151.982 194.066C151.982 199.914 153.609 214.672 151.5 217.82Z" fill="#808D9C"/>
<path d="M151.502 217.822C151.403 217.981 151.273 218.118 151.121 218.226C150.883 218.391 150.627 218.529 150.359 218.639C151.032 202.805 148.004 187.043 146.751 171.249C146.03 162.13 146.591 152.921 145.709 143.831C144.906 135.547 141.68 128.43 137.359 121.505C137.63 121.455 137.891 121.405 138.132 121.355C142.812 127.032 145.548 134.531 146.53 141.747C147.763 150.826 146.851 160.147 147.524 169.287C148.205 178.769 149.458 188.2 150.42 197.652C151.101 204.225 151.893 211.1 151.502 217.822Z" fill="white"/>
<path d="M179.086 71.831C179.086 71.831 177.823 86.0948 173.693 92.8779C169.554 99.6726 147.082 97.0866 147.082 97.0866C147.082 97.0866 142.201 115.395 144.506 120.357C146.822 125.32 136.698 126.105 133.49 125.963C130.273 125.823 113.174 126.196 113.305 122.994C113.425 119.804 115.861 118.647 115.601 114.147C115.349 109.648 115.219 97.0559 115.219 97.0559C115.219 97.0559 100.766 100.378 91.6744 98.3346C82.5936 96.2811 78.7041 79.4811 78.6641 74.0052L84.3581 71.831C84.3581 71.831 91.7651 82.0184 93.4684 83.6485C95.1729 85.2797 111.129 80.5279 115.389 80.6497C119.659 80.7704 128.06 80.8593 128.06 80.8593C128.06 80.8593 128.66 86.1742 132.078 85.6513C135.486 85.1389 138.01 81.596 138.01 81.596C138.01 81.596 141.881 80.4771 146.08 81.3335C146.23 81.3631 146.38 81.3938 146.541 81.434C148.445 81.8564 151.211 82.6958 153.918 83.4072C157.504 84.3493 160.934 85.0775 162.058 84.4234C164.101 83.2156 173.524 70.493 173.524 70.493L179.086 71.831Z" fill="#77A4F3"/>
<path d="M129.601 88.3125C127.758 88.105 128.062 92.172 128.075 93.1342C128.094 94.2986 128.144 95.4461 127.781 96.5798C127.455 97.6034 126.755 98.4746 126.326 99.4495C125.791 100.668 125.579 101.609 126.048 102.87C126.155 103.158 126.546 103.043 126.501 102.745C126.094 100.025 128.15 98.3751 128.634 95.9097C128.899 94.5632 128.023 89.2789 129.661 88.7676C129.923 88.6861 129.852 88.34 129.601 88.3125ZM132.001 88.5369C130.87 90.0083 131.051 91.5993 131.288 93.3448C131.532 95.1338 131.436 96.5607 130.895 98.2555C130.539 99.3776 130.331 100.113 130.464 101.294C130.488 101.502 130.758 101.5 130.785 101.294C131.015 99.5078 131.941 97.904 132.13 96.1235C132.401 93.565 131.045 91.2394 132.379 88.7592C132.518 88.5019 132.168 88.3188 132.001 88.5369Z" fill="white"/>
<path d="M103.451 98.7998C103.451 98.7998 114.322 93.0817 115.6 90.3782C116.88 87.6758 115.224 97.6735 115.224 97.6735L103.451 98.7998ZM146.537 81.4348C148.442 81.8571 151.209 82.6923 153.915 83.4079C153.484 83.2978 149.264 82.361 146.077 85.6519C142.9 88.9535 135.302 88.0272 134.52 87.9277C139.682 88.4803 145.525 82.5113 146.537 81.4348Z" fill="#568EF0"/>
<path d="M136.76 76.7838C135.526 77.6052 134.035 78.0948 132.422 78.0996C131.31 78.1015 130.261 77.8646 129.306 77.4581L129.31 73.8666L136.764 73.8761L136.76 76.7838Z" fill="#E67C72"/>
<path d="M124.528 60.3009C124.528 60.3009 124.541 66.5009 124.546 69.5726C124.554 73.7053 128.02 77.0531 132.288 77.0429C136.558 77.0317 140.008 73.6761 140.002 69.5428C139.995 66.4746 139.98 60.271 139.98 60.271L129.972 56.7966L124.528 60.3009Z" fill="#FFA08B"/>
<path d="M125.583 63.9819C126.175 63.4564 129.211 63.6094 129.211 63.6094L129.144 64.1494C129.144 64.1494 127.369 64.0113 125.583 63.9819ZM136.18 63.7653C135.371 63.354 132.524 63.5581 132.524 63.5581L132.637 64.1476C132.637 64.1476 134.395 63.9005 136.18 63.7653Z" fill="#571929"/>
<path d="M134.085 66.5314C134.109 66.9938 134.429 67.3568 134.8 67.3393C135.169 67.3138 135.45 66.9239 135.424 66.4604C135.405 65.9929 135.081 65.6366 134.71 65.658C134.34 65.6759 134.061 66.0676 134.085 66.5314ZM126.901 66.6732C126.928 67.1385 127.245 67.4978 127.619 67.4745C127.99 67.4585 128.269 67.0638 128.243 66.6032C128.22 66.1357 127.9 65.7775 127.529 65.7954C127.157 65.8176 126.878 66.2057 126.901 66.6732Z" fill="#370D19"/>
<path d="M138.504 67.3589C138.336 68.6459 138.946 70.3629 139.965 70.4933C140.984 70.6296 142.031 69.1272 142.201 67.843C142.364 66.5626 141.673 65.4117 140.652 65.2784C139.63 65.144 138.665 66.0766 138.504 67.3589Z" fill="#FFA08B"/>
<path d="M139.764 69.047C139.781 69.0518 139.8 69.0518 139.818 69.0518C139.922 69.0452 139.997 68.9557 139.989 68.8533C139.878 66.9788 141.201 66.3204 141.217 66.3121C141.306 66.2695 141.344 66.1603 141.3 66.0652C141.258 65.9727 141.146 65.9367 141.053 65.9785C140.992 66.0066 139.492 66.7567 139.622 68.8796C139.626 68.9188 139.641 68.9561 139.666 68.9861C139.692 69.0161 139.726 69.0374 139.764 69.047Z" fill="#D85A5E"/>
<path d="M132.138 73.484C132.533 73.4457 132.869 73.3087 133.139 73.0716C133.713 72.5663 133.757 71.7997 133.76 71.7681C133.765 71.6439 133.669 71.5386 133.552 71.5309C133.427 71.5262 133.322 71.6216 133.313 71.7425C133.315 71.7509 133.272 72.3572 132.839 72.7342C132.565 72.9747 132.183 73.0738 131.709 73.0373C131.582 73.0289 131.473 73.1182 131.465 73.2443C131.456 73.3663 131.547 73.4763 131.669 73.4858C131.836 73.4989 131.993 73.5008 132.138 73.484ZM131.299 71.5906C130.575 71.8063 129.946 71.367 129.693 70.8223C129.414 70.2161 129.606 69.5826 130.18 69.2095C130.44 69.0408 130.519 67.5858 130.426 66.3361C130.423 66.305 130.426 66.2735 130.436 66.2437C130.446 66.2139 130.461 66.1863 130.481 66.1626C130.502 66.1389 130.526 66.1195 130.554 66.1055C130.582 66.0916 130.613 66.0835 130.644 66.0815C130.774 66.0731 130.889 66.1712 130.897 66.2998C130.948 66.9752 131.063 69.2034 130.436 69.607C129.88 69.9705 130.056 70.477 130.126 70.6226C130.287 70.9826 130.698 71.2737 131.161 71.1363C131.284 71.1002 131.419 71.1702 131.456 71.2978C131.492 71.4209 131.421 71.5524 131.299 71.5906Z" fill="#D85A5E"/>
<path d="M142.727 64.8174C142.727 64.8174 135.653 63.7071 130.271 58.9024C127.28 63.4068 124.165 63.9715 124.165 63.9715C124.165 63.9715 123.129 60.0002 124.589 57.401C127.459 52.2908 135.364 52.2387 139.54 56.3416C142.058 58.8159 142.727 64.8174 142.727 64.8174Z" fill="#571929"/>
</g>
<path d="M44.1114 150.958V153.913H40.2911V150.958H39.2621V157.957H40.2911V154.87H44.1114V157.957H45.1403V150.958H44.1114ZM49.0479 157.183C48.1412 157.183 47.4994 156.551 47.3669 155.675H51.5132C51.5132 153.79 50.5862 152.568 48.9766 152.568C47.5197 152.568 46.3482 153.729 46.3482 155.308C46.3482 156.928 47.591 158.079 49.0581 158.079C49.8017 158.079 50.7186 157.763 51.1872 157.264L50.5556 156.612C50.2398 156.938 49.598 157.183 49.0479 157.183ZM49.0173 153.464C49.924 153.464 50.4232 154.055 50.5352 154.87H47.3771C47.5401 154.014 48.2023 153.464 49.0173 153.464ZM53.7418 153.699V152.69H52.7332V157.957H53.7418V154.962C53.8335 154.045 54.6077 153.444 55.6978 153.444V152.568C54.7911 152.568 54.078 153.006 53.7418 153.699ZM59.0961 157.183C58.1894 157.183 57.5476 156.551 57.4152 155.675H61.5615C61.5615 153.79 60.6344 152.568 59.0248 152.568C57.568 152.568 56.3964 153.729 56.3964 155.308C56.3964 156.928 57.6393 158.079 59.1063 158.079C59.85 158.079 60.7669 157.763 61.2355 157.264L60.6039 156.612C60.288 156.938 59.6462 157.183 59.0961 157.183ZM59.0655 153.464C59.9722 153.464 60.4714 154.055 60.5835 154.87H57.4254C57.5884 154.014 58.2505 153.464 59.0655 153.464ZM63.2399 153.648C63.8919 152.904 64.1262 152.466 64.1262 151.987C64.1262 151.427 63.8409 151.019 63.3927 151.019C63.0056 151.019 62.7101 151.335 62.7101 151.692C62.7101 152.069 63.0056 152.374 63.3723 152.374C63.2908 152.69 63.1074 153.016 62.812 153.322L63.2399 153.648ZM67.4312 158.079C68.5824 158.079 69.4279 157.448 69.4279 156.449C69.4279 155.4 68.5009 155.115 67.6349 154.86C66.7486 154.585 66.4226 154.463 66.4226 154.055C66.4226 153.658 66.8301 153.434 67.3497 153.434C67.8081 153.434 68.3379 153.607 68.8472 153.923L69.2955 153.179C68.725 152.802 68.0322 152.568 67.3497 152.568C66.229 152.568 65.4242 153.199 65.4344 154.167C65.4344 155.023 66.0355 155.369 67.2478 155.706C67.8998 155.889 68.4397 156.042 68.4397 156.531C68.4397 156.938 68.0322 157.213 67.4414 157.213C66.8199 157.213 66.2189 156.979 65.6585 156.572L65.1797 157.295C65.8114 157.804 66.6569 158.079 67.4312 158.079ZM75.7256 152.568C75.145 152.568 74.4828 152.721 73.7289 153.098L74.0956 153.841C74.5541 153.607 75.0635 153.403 75.583 153.403C76.6323 153.403 76.938 154.106 76.938 154.768V154.931C76.4286 154.758 75.8683 154.646 75.3487 154.646C74.1873 154.646 73.2399 155.349 73.2399 156.398C73.2399 157.427 74.0651 158.079 75.1857 158.079C75.8275 158.079 76.5508 157.784 76.938 157.234V157.957H77.9262V154.768C77.9262 153.464 77.1417 152.568 75.7256 152.568ZM75.3793 157.285C74.7171 157.285 74.2077 156.938 74.2077 156.368C74.2077 155.797 74.7986 155.4 75.5015 155.4C76.0211 155.4 76.5101 155.471 76.938 155.604V156.307C76.7648 156.959 76.0313 157.285 75.3793 157.285ZM84.052 157.957H84.9994L87.2203 152.69H86.1302L84.5206 156.785L82.8804 152.69H81.7903L84.052 157.957ZM88.6786 151.814C89.0046 151.814 89.2797 151.529 89.2797 151.203C89.2797 150.887 89.0046 150.602 88.6786 150.602C88.3322 150.602 88.0674 150.887 88.0674 151.203C88.0674 151.529 88.3322 151.814 88.6786 151.814ZM88.1692 157.957H89.1778V152.69H88.1692V157.957ZM94.6914 150.836V153.597C94.2839 152.955 93.6319 152.568 92.8169 152.568C91.4314 152.568 90.3923 153.709 90.3923 155.318C90.3923 156.938 91.4314 158.079 92.8169 158.079C93.6319 158.079 94.2839 157.692 94.6914 157.04V157.957H95.6898V150.836H94.6914ZM93.0614 157.203C92.0936 157.203 91.411 156.419 91.411 155.318C91.411 154.218 92.0936 153.444 93.0614 153.444C94.0088 153.444 94.6914 154.218 94.6914 155.318C94.6914 156.419 94.0088 157.203 93.0614 157.203ZM99.6174 157.183C98.7107 157.183 98.0689 156.551 97.9364 155.675H102.083C102.083 153.79 101.156 152.568 99.5461 152.568C98.0893 152.568 96.9177 153.729 96.9177 155.308C96.9177 156.928 98.1606 158.079 99.6276 158.079C100.371 158.079 101.288 157.763 101.757 157.264L101.125 156.612C100.809 156.938 100.168 157.183 99.6174 157.183ZM99.5868 153.464C100.494 153.464 100.993 154.055 101.105 154.87H97.9466C98.1096 154.014 98.7718 153.464 99.5868 153.464ZM105.748 158.079C107.245 158.079 108.509 156.816 108.509 155.318C108.509 153.821 107.245 152.568 105.748 152.568C104.24 152.568 102.967 153.821 102.967 155.318C102.967 156.816 104.24 158.079 105.748 158.079ZM105.748 157.203C104.78 157.203 103.975 156.347 103.975 155.318C103.975 154.3 104.78 153.444 105.748 153.444C106.695 153.444 107.5 154.3 107.5 155.318C107.5 156.347 106.695 157.203 105.748 157.203ZM115.018 157.183C114.111 157.183 113.47 156.551 113.337 155.675H117.483C117.483 153.79 116.556 152.568 114.947 152.568C113.49 152.568 112.318 153.729 112.318 155.308C112.318 156.928 113.561 158.079 115.028 158.079C115.772 158.079 116.689 157.763 117.157 157.264L116.526 156.612C116.21 156.938 115.568 157.183 115.018 157.183ZM114.987 153.464C115.894 153.464 116.393 154.055 116.505 154.87H113.347C113.51 154.014 114.172 153.464 114.987 153.464ZM123.318 157.957L121.311 155.257L123.227 152.69H122.106L120.751 154.503L119.406 152.69H118.265L120.191 155.268L118.184 157.957H119.304L120.751 156.021L122.188 157.957H123.318ZM127.237 152.568C126.422 152.568 125.77 152.955 125.363 153.597V152.69H124.364V159.709H125.363V157.04C125.77 157.692 126.422 158.079 127.237 158.079C128.623 158.079 129.662 156.938 129.662 155.318C129.662 153.709 128.623 152.568 127.237 152.568ZM126.993 157.203C126.045 157.203 125.363 156.419 125.363 155.318C125.363 154.218 126.045 153.444 126.993 153.444C127.96 153.444 128.643 154.218 128.643 155.318C128.643 156.419 127.96 157.203 126.993 157.203ZM130.879 157.957H131.878V150.836H130.879V157.957ZM135.557 152.568C134.977 152.568 134.315 152.721 133.561 153.098L133.927 153.841C134.386 153.607 134.895 153.403 135.415 153.403C136.464 153.403 136.77 154.106 136.77 154.768V154.931C136.26 154.758 135.7 154.646 135.181 154.646C134.019 154.646 133.072 155.349 133.072 156.398C133.072 157.427 133.897 158.079 135.018 158.079C135.659 158.079 136.383 157.784 136.77 157.234V157.957H137.758V154.768C137.758 153.464 136.974 152.568 135.557 152.568ZM135.211 157.285C134.549 157.285 134.04 156.938 134.04 156.368C134.04 155.797 134.63 155.4 135.333 155.4C135.853 155.4 136.342 155.471 136.77 155.604V156.307C136.597 156.959 135.863 157.285 135.211 157.285ZM139.716 151.814C140.042 151.814 140.317 151.529 140.317 151.203C140.317 150.887 140.042 150.602 139.716 150.602C139.369 150.602 139.104 150.887 139.104 151.203C139.104 151.529 139.369 151.814 139.716 151.814ZM139.206 157.957H140.215V152.69H139.206V157.957ZM144.353 152.568C143.64 152.568 142.998 152.935 142.682 153.454V152.69H141.674V157.957H142.682V154.544C142.764 153.923 143.396 153.444 144.129 153.444C144.842 153.444 145.341 153.994 145.341 154.779V157.957H146.33V154.605C146.33 153.413 145.515 152.568 144.353 152.568ZM148.272 151.814C148.598 151.814 148.873 151.529 148.873 151.203C148.873 150.887 148.598 150.602 148.272 150.602C147.925 150.602 147.66 150.887 147.66 151.203C147.66 151.529 147.925 151.814 148.272 151.814ZM147.762 157.957H148.771V152.69H147.762V157.957ZM152.909 152.568C152.196 152.568 151.554 152.935 151.238 153.454V152.69H150.23V157.957H151.238V154.544C151.32 153.923 151.951 153.444 152.685 153.444C153.398 153.444 153.897 153.994 153.897 154.779V157.957H154.885V154.605C154.885 153.413 154.07 152.568 152.909 152.568ZM160.332 152.69V153.536C159.935 152.945 159.262 152.568 158.468 152.568C157.082 152.568 156.074 153.597 156.074 155.064C156.074 156.531 157.082 157.57 158.468 157.57C159.262 157.57 159.914 157.213 160.332 156.612V157.376C160.332 158.293 159.65 158.833 158.519 158.833C157.887 158.833 157.255 158.619 156.868 158.252L156.471 159.006C156.97 159.414 157.785 159.709 158.672 159.709C160.23 159.709 161.341 158.752 161.341 157.397V152.69H160.332ZM158.722 156.694C157.785 156.694 157.123 156.021 157.123 155.064C157.123 154.116 157.785 153.444 158.722 153.444C159.66 153.444 160.332 154.116 160.332 155.064C160.332 156.021 159.66 156.694 158.722 156.694ZM166.687 159.791C167.441 159.781 168.001 159.383 168.378 158.436L170.701 152.69H169.651L168.052 156.847L166.361 152.69H165.281L167.543 157.988L167.278 158.548C167.105 158.854 166.88 158.955 166.554 158.955C166.351 158.955 166.116 158.904 165.913 158.792L165.688 159.567C165.964 159.709 166.33 159.791 166.687 159.791ZM174.096 158.079C175.593 158.079 176.856 156.816 176.856 155.318C176.856 153.821 175.593 152.568 174.096 152.568C172.588 152.568 171.314 153.821 171.314 155.318C171.314 156.816 172.588 158.079 174.096 158.079ZM174.096 157.203C173.128 157.203 172.323 156.347 172.323 155.318C172.323 154.3 173.128 153.444 174.096 153.444C175.043 153.444 175.848 154.3 175.848 155.318C175.848 156.347 175.043 157.203 174.096 157.203ZM181.663 152.69V156.103C181.582 156.724 180.95 157.203 180.217 157.203C179.504 157.203 179.004 156.653 179.004 155.869V152.69H178.016V156.042C178.016 157.234 178.831 158.079 179.993 158.079C180.706 158.079 181.348 157.713 181.663 157.193V157.957H182.672V152.69H181.663ZM185.195 153.699V152.69H184.186V157.957H185.195V154.962C185.286 154.045 186.061 153.444 187.151 153.444V152.568C186.244 152.568 185.531 153.006 185.195 153.699ZM193.973 152.568C193.158 152.568 192.506 152.955 192.099 153.597V152.69H191.1V159.709H192.099V157.04C192.506 157.692 193.158 158.079 193.973 158.079C195.359 158.079 196.398 156.938 196.398 155.318C196.398 153.709 195.359 152.568 193.973 152.568ZM193.729 157.203C192.781 157.203 192.099 156.419 192.099 155.318C192.099 154.218 192.781 153.444 193.729 153.444C194.697 153.444 195.379 154.218 195.379 155.318C195.379 156.419 194.697 157.203 193.729 157.203ZM200.112 158.079C201.609 158.079 202.872 156.816 202.872 155.318C202.872 153.821 201.609 152.568 200.112 152.568C198.604 152.568 197.33 153.821 197.33 155.318C197.33 156.816 198.604 158.079 200.112 158.079ZM200.112 157.203C199.144 157.203 198.339 156.347 198.339 155.318C198.339 154.3 199.144 153.444 200.112 153.444C201.059 153.444 201.864 154.3 201.864 155.318C201.864 156.347 201.059 157.203 200.112 157.203ZM205.958 158.079C207.109 158.079 207.954 157.448 207.954 156.449C207.954 155.4 207.027 155.115 206.161 154.86C205.275 154.585 204.949 154.463 204.949 154.055C204.949 153.658 205.357 153.434 205.876 153.434C206.335 153.434 206.864 153.607 207.374 153.923L207.822 153.179C207.251 152.802 206.559 152.568 205.876 152.568C204.755 152.568 203.951 153.199 203.961 154.167C203.961 155.023 204.562 155.369 205.774 155.706C206.426 155.889 206.966 156.042 206.966 156.531C206.966 156.938 206.559 157.213 205.968 157.213C205.346 157.213 204.745 156.979 204.185 156.572L203.706 157.295C204.338 157.804 205.183 158.079 205.958 158.079ZM211.592 157.01C211.48 157.122 211.276 157.203 211.052 157.203C210.756 157.203 210.512 156.938 210.512 156.572V153.546H211.755V152.69H210.512V151.243H209.524V152.69H208.729V153.546H209.524V156.643C209.524 157.488 210.094 158.079 210.909 158.079C211.286 158.079 211.673 157.937 211.959 157.702L211.592 157.01ZM212.783 155.634H215.472V154.717H212.783V155.634ZM41.7275 171.079C43.2251 171.079 44.4883 169.816 44.4883 168.318C44.4883 166.821 43.2251 165.568 41.7275 165.568C40.2197 165.568 38.9463 166.821 38.9463 168.318C38.9463 169.816 40.2197 171.079 41.7275 171.079ZM41.7275 170.203C40.7597 170.203 39.9549 169.347 39.9549 168.318C39.9549 167.3 40.7597 166.444 41.7275 166.444C42.6749 166.444 43.4797 167.3 43.4797 168.318C43.4797 169.347 42.6749 170.203 41.7275 170.203ZM48.5922 165.568C47.7772 165.568 47.1252 165.955 46.7177 166.597V165.69H45.7193V172.709H46.7177V170.04C47.1252 170.692 47.7772 171.079 48.5922 171.079C49.9777 171.079 51.0168 169.938 51.0168 168.318C51.0168 166.709 49.9777 165.568 48.5922 165.568ZM48.3477 170.203C47.4003 170.203 46.7177 169.419 46.7177 168.318C46.7177 167.218 47.4003 166.444 48.3477 166.444C49.3155 166.444 49.9981 167.218 49.9981 168.318C49.9981 169.419 49.3155 170.203 48.3477 170.203ZM54.649 170.183C53.7423 170.183 53.1005 169.551 52.9681 168.675H57.1144C57.1144 166.79 56.1873 165.568 54.5777 165.568C53.1209 165.568 51.9493 166.729 51.9493 168.308C51.9493 169.928 53.1922 171.079 54.6592 171.079C55.4029 171.079 56.3198 170.763 56.7884 170.264L56.1568 169.612C55.841 169.938 55.1991 170.183 54.649 170.183ZM54.6185 166.464C55.5251 166.464 56.0243 167.055 56.1364 167.87H52.9783C53.1413 167.014 53.8034 166.464 54.6185 166.464ZM59.3429 166.699V165.69H58.3344V170.957H59.3429V167.962C59.4346 167.045 60.2089 166.444 61.2989 166.444V165.568C60.3922 165.568 59.6791 166.006 59.3429 166.699ZM64.4935 165.568C63.9128 165.568 63.2506 165.721 62.4967 166.098L62.8635 166.841C63.3219 166.607 63.8313 166.403 64.3509 166.403C65.4002 166.403 65.7058 167.106 65.7058 167.768V167.931C65.1964 167.758 64.6361 167.646 64.1166 167.646C62.9552 167.646 62.0077 168.349 62.0077 169.398C62.0077 170.427 62.8329 171.079 63.9536 171.079C64.5954 171.079 65.3187 170.784 65.7058 170.234V170.957H66.694V167.768C66.694 166.464 65.9096 165.568 64.4935 165.568ZM64.1471 170.285C63.4849 170.285 62.9756 169.938 62.9756 169.368C62.9756 168.797 63.5664 168.4 64.2694 168.4C64.7889 168.4 65.2779 168.471 65.7058 168.604V169.307C65.5326 169.959 64.7991 170.285 64.1471 170.285ZM70.618 170.01C70.5059 170.122 70.3021 170.203 70.078 170.203C69.7826 170.203 69.5381 169.938 69.5381 169.572V166.546H70.781V165.69H69.5381V164.243H68.5499V165.69H67.7553V166.546H68.5499V169.643C68.5499 170.488 69.1204 171.079 69.9354 171.079C70.3123 171.079 70.6995 170.937 70.9847 170.702L70.618 170.01ZM72.5119 164.814C72.8379 164.814 73.1129 164.529 73.1129 164.203C73.1129 163.887 72.8379 163.602 72.5119 163.602C72.1655 163.602 71.9006 163.887 71.9006 164.203C71.9006 164.529 72.1655 164.814 72.5119 164.814ZM72.0025 170.957H73.0111V165.69H72.0025V170.957ZM76.2223 170.957H77.1697L79.3906 165.69H78.3005L76.6909 169.785L75.0507 165.69H73.9607L76.2223 170.957ZM82.416 170.183C81.5093 170.183 80.8675 169.551 80.735 168.675H84.8814C84.8814 166.79 83.9543 165.568 82.3447 165.568C80.8879 165.568 79.7163 166.729 79.7163 168.308C79.7163 169.928 80.9592 171.079 82.4262 171.079C83.1699 171.079 84.0867 170.763 84.5554 170.264L83.9237 169.612C83.6079 169.938 82.9661 170.183 82.416 170.183ZM82.3854 166.464C83.2921 166.464 83.7913 167.055 83.9034 167.87H80.7452C80.9082 167.014 81.5704 166.464 82.3854 166.464ZM91.3798 170.183C90.4731 170.183 89.8313 169.551 89.6989 168.675H93.8452C93.8452 166.79 92.9181 165.568 91.3085 165.568C89.8517 165.568 88.6801 166.729 88.6801 168.308C88.6801 169.928 89.923 171.079 91.39 171.079C92.1337 171.079 93.0506 170.763 93.5192 170.264L92.8876 169.612C92.5718 169.938 91.9299 170.183 91.3798 170.183ZM91.3493 166.464C92.2559 166.464 92.7551 167.055 92.8672 167.87H89.7091C89.8721 167.014 90.5342 166.464 91.3493 166.464ZM99.6801 170.957L97.6732 168.257L99.5884 165.69H98.4678L97.1128 167.503L95.7681 165.69H94.6271L96.5525 168.268L94.5456 170.957H95.6662L97.1128 169.021L98.5493 170.957H99.6801ZM103.089 170.183C102.183 170.183 101.541 169.551 101.409 168.675H105.555C105.555 166.79 104.628 165.568 103.018 165.568C101.561 165.568 100.39 166.729 100.39 168.308C100.39 169.928 101.633 171.079 103.1 171.079C103.843 171.079 104.76 170.763 105.229 170.264L104.597 169.612C104.281 169.938 103.64 170.183 103.089 170.183ZM103.059 166.464C103.966 166.464 104.465 167.055 104.577 167.87H101.419C101.582 167.014 102.244 166.464 103.059 166.464ZM107.783 166.699V165.69H106.775V170.957H107.783V167.962C107.875 167.045 108.649 166.444 109.739 166.444V165.568C108.833 165.568 108.12 166.006 107.783 166.699ZM113.209 171.079C113.993 171.079 114.676 170.753 115.185 170.234L114.503 169.612C114.177 169.979 113.708 170.203 113.219 170.203C112.251 170.203 111.457 169.347 111.457 168.318C111.457 167.3 112.251 166.444 113.209 166.444C113.698 166.444 114.156 166.658 114.472 167.014L115.155 166.383C114.656 165.884 113.973 165.568 113.219 165.568C111.711 165.568 110.438 166.821 110.438 168.318C110.438 169.816 111.711 171.079 113.209 171.079ZM116.764 164.814C117.09 164.814 117.365 164.529 117.365 164.203C117.365 163.887 117.09 163.602 116.764 163.602C116.418 163.602 116.153 163.887 116.153 164.203C116.153 164.529 116.418 164.814 116.764 164.814ZM116.255 170.957H117.263V165.69H116.255V170.957ZM120.627 171.079C121.778 171.079 122.624 170.448 122.624 169.449C122.624 168.4 121.697 168.115 120.831 167.86C119.945 167.585 119.619 167.463 119.619 167.055C119.619 166.658 120.026 166.434 120.546 166.434C121.004 166.434 121.534 166.607 122.043 166.923L122.491 166.179C121.921 165.802 121.228 165.568 120.546 165.568C119.425 165.568 118.62 166.199 118.63 167.167C118.63 168.023 119.231 168.369 120.444 168.706C121.096 168.889 121.636 169.042 121.636 169.531C121.636 169.938 121.228 170.213 120.637 170.213C120.016 170.213 119.415 169.979 118.855 169.572L118.376 170.295C119.007 170.804 119.853 171.079 120.627 171.079ZM126.21 170.183C125.304 170.183 124.662 169.551 124.529 168.675H128.676C128.676 166.79 127.749 165.568 126.139 165.568C124.682 165.568 123.511 166.729 123.511 168.308C123.511 169.928 124.754 171.079 126.221 171.079C126.964 171.079 127.881 170.763 128.35 170.264L127.718 169.612C127.402 169.938 126.761 170.183 126.21 170.183ZM126.18 166.464C127.087 166.464 127.586 167.055 127.698 167.87H124.54C124.703 167.014 125.365 166.464 126.18 166.464ZM131.75 171.079C132.901 171.079 133.747 170.448 133.747 169.449C133.747 168.4 132.82 168.115 131.954 167.86C131.067 167.585 130.741 167.463 130.741 167.055C130.741 166.658 131.149 166.434 131.668 166.434C132.127 166.434 132.657 166.607 133.166 166.923L133.614 166.179C133.044 165.802 132.351 165.568 131.668 165.568C130.548 165.568 129.743 166.199 129.753 167.167C129.753 168.023 130.354 168.369 131.566 168.706C132.218 168.889 132.758 169.042 132.758 169.531C132.758 169.938 132.351 170.213 131.76 170.213C131.139 170.213 130.538 169.979 129.977 169.572L129.498 170.295C130.13 170.804 130.976 171.079 131.75 171.079Z" fill="#808D9C"/>
<rect x="45.1055" y="131.841" width="166.954" height="2.11198" rx="1.05599" fill="#CFB8FF"/>
<rect x="45.1055" y="131.841" width="45.4368" height="2.11198" rx="1.05599" fill="#8549FF"/>
<path d="M160.501 374.402C176.317 356.251 202.287 351.514 222.913 339.089C233.233 332.869 242.23 324.689 250.66 316.081C255.068 311.582 259.378 306.903 262.55 301.459C267.059 293.725 269.06 284.839 271.459 276.217C279.389 247.725 292.233 220.788 300.234 192.32C305.183 174.705 308.265 156.564 314.242 139.273C320.217 121.981 329.512 105.176 344.227 94.2965C346.091 92.9164 348.14 91.5068 348.947 89.3322C349.524 87.7726 349.365 86.0482 349.197 84.3944C348.82 80.6366 349.53 79.9891 347.825 76.6198C343.225 67.521 331.318 63.9515 321.406 66.3557C311.496 68.7569 303.382 75.8429 296.736 83.5763C273.037 111.155 263.775 147.833 252.163 182.283C248.931 191.87 245.45 201.452 243.915 211.451C242.691 219.426 242.726 227.53 242.465 235.596C242.291 240.869 242.81 247.287 241.478 252.404C240.049 257.886 238.058 258.619 232.481 261.097C222.337 265.602 211.179 267.227 200.326 269.098C177.395 273.056 150.81 276.284 128.422 282.623C131.97 279.78 148.35 367.149 144.738 380.982L160.501 374.402Z" fill="#FDC3BE"/>
<path d="M549.298 100.16L531.76 88.2453C476.882 70.1213 417.757 64.9774 360.571 73.3553C349.655 74.9532 338.348 77.2338 329.63 83.9931C325.04 87.5508 321.406 92.1768 317.967 96.8556C290.551 134.16 272.717 177.727 262.496 222.703C257.284 245.635 254 268.997 252.344 292.45C251.417 305.569 250.776 307.867 238.256 312.735C226.137 317.448 213.318 319.985 200.866 323.623C184.379 328.433 167.556 335.835 157.749 349.927C155.048 353.806 152.966 358.086 151.195 362.468C148.367 369.468 146.312 376.755 145.064 384.2C157.365 382.618 169.487 387.567 181.729 389.535C218.931 395.515 256.248 400.762 293.657 405.273C312.363 407.525 331.092 409.534 349.832 411.477C363.447 412.888 377.44 420.331 384.916 403.519C390.237 407.153 399.26 407.248 403.8 402.675C408.341 398.105 410.505 391.751 412.525 385.636C421.273 359.161 469.067 343.235 477.815 316.76C483.743 298.815 488.448 272.155 495.495 254.619C504.243 232.837 494.296 216.449 504.717 195.409C520.332 163.89 533.683 131.682 549.298 100.16Z" fill="#FFDEDB"/>
<path d="M259.755 482.25C261.681 470.844 280.628 375.182 282.555 363.772C335.364 368.611 374.035 359.668 380.767 351.098C385.08 345.604 388.091 339.377 388.091 339.377C391.12 333.114 392.436 327.842 392.879 325.719C395.13 314.929 394.035 305.8 392.91 300.208C360.115 299.651 327.601 295.826 294.805 295.271C281.826 298.747 268.573 305.496 255.591 308.968C255.591 308.968 213.152 322.396 203.644 336.815C202.171 339.05 201.022 341.439 201.022 341.439C198.126 347.748 197.468 353.077 197.277 354.669C196.994 357.065 185.785 450.176 184.503 460.059C184.295 461.668 184.494 467.357 184.494 467.357C184.494 467.357 191.177 468.787 203.416 469.384C207.648 469.584 213.879 468.962 213.879 468.962C213.879 468.962 215.181 462.865 215.351 461.77C216.463 454.539 223.877 422.225 234.315 377.369C234.376 384.117 229.973 480.224 229.973 480.224C229.973 480.224 245.667 482.125 259.755 482.25Z" fill="#DFB795"/>
<path d="M233.914 377.107C233.498 377.114 233.146 376.787 233.133 376.371C232.788 366.748 233.204 357.283 234.364 348.236C235.114 342.381 235.909 339 238.395 335.612C241.764 331.011 246.272 329.195 253.287 326.748C262.069 323.697 270.96 320.964 279.94 318.556C280.343 318.454 280.769 318.685 280.882 319.098C280.934 319.294 280.907 319.504 280.805 319.68C280.703 319.856 280.536 319.985 280.339 320.038C271.367 322.441 262.436 325.187 253.795 328.199C247.056 330.545 242.739 332.276 239.633 336.516C237.344 339.633 236.604 342.844 235.892 348.426C234.739 357.396 234.326 366.778 234.664 376.317C234.681 376.739 234.337 377.101 233.914 377.107Z" fill="#C59068"/>
<path d="M145.057 437.138C140.035 437.727 131.324 434.349 126.286 433.907C123.974 433.707 122.756 424.034 122.432 422.493C120.855 414.983 119.771 407.382 118.512 399.828C113.46 369.525 113.784 339.841 116.513 309.358C117.156 302.181 118.134 294.877 121.896 288.571C124.126 284.831 127.524 282.053 132.023 281.879C137.689 281.662 140.605 283.645 144.855 287.397C153.177 294.745 149.299 409.883 145.057 437.138Z" fill="#FFDEDB"/>
<path d="M381.393 317.551C388.71 308.887 400.842 307.893 408.262 306.798C428.736 303.779 449.398 302.051 470.087 301.616C474.783 251.711 478.128 211.084 496.261 164.348C501.555 150.697 509.126 130.413 517.015 118.075C522.724 109.141 542.391 79.6636 552.918 81.0025C560.565 81.9736 566.572 88.6182 568.895 95.9661C571.219 103.314 570.509 111.259 569.281 118.866C566.563 135.71 467.239 441.085 462.855 451.013C435.176 460.683 407.055 470.011 380.203 479.255C391.911 426.474 384.835 371.508 381.393 317.551Z" fill="#FDC3BE"/>
<path d="M363.669 477.765C368.593 478.93 375.145 479.11 380.2 479.255C383.466 479.351 394.125 447.847 395.551 444.109C399.788 433 404.06 421.644 407.258 410.181C412.288 392.15 414.428 373.314 413.554 354.619C412.974 342.152 411.133 316.079 394.77 313.546C389.167 312.68 386.042 314.313 381.39 317.55C372.277 323.892 362.598 450.207 363.669 477.765Z" fill="#FFDEDB"/>
<path d="M301.605 155.26C311.17 142.513 342.056 156.662 333.385 173.506C323.125 193.455 295.709 242.174 287.531 253.703L258.642 238.954C258.642 238.954 286.236 175.724 301.605 155.26Z" fill="#89593D"/>
<path d="M284.359 257.4C277.617 263.216 267.392 262.381 261.49 255.571C255.626 248.783 256.3 238.566 263.042 232.76C269.768 226.976 279.993 227.802 285.885 234.606C291.778 241.41 291.09 251.621 284.359 257.4Z" fill="#89593D"/>
<path d="M328.243 148.584C316.48 141.883 299.968 148.089 293.262 159.839L262.268 211.673C260.616 214.551 268.819 222.322 280.591 229.024C292.339 235.735 303.201 238.836 304.843 235.963L335.838 184.124C342.554 172.37 340.001 155.286 328.243 148.584Z" fill="#A1C0F7"/>
<path d="M286.238 234.47C280.453 227.7 270.232 226.993 263.369 232.837C256.525 238.666 255.662 248.859 261.452 255.61C267.23 262.341 277.469 263.063 284.308 257.233C291.171 251.394 292.011 241.196 286.238 234.47Z" fill="#89593D"/>
<path d="M256.455 168.571L276.08 165.907C284.733 204.946 287.249 219.944 289.944 242.963L257.92 248.252C254.785 235.911 251.581 197.224 256.455 168.571Z" fill="#89593D"/>
<path d="M316.052 209.292C315.936 209.285 315.926 209.474 316.042 209.48C316.163 209.487 316.173 209.298 316.052 209.292Z" fill="black"/>
<path d="M292.392 296.078C292.392 296.078 316.154 308.631 339.839 310.179C366.207 311.903 393.325 310.066 393.32 297.629C393.318 284.782 395.894 275.389 395.894 275.389L414.552 168.102C415.3 154.074 403.718 143.086 359.986 140.756C313.746 138.292 308.587 152.356 307.838 166.384C307.838 166.384 300.187 221.513 298.025 258.283C297.144 273.281 295.611 275.389 295.611 275.389" fill="#CDD8F9"/>
<path d="M419.024 250.271C411.217 250.79 405.355 257.547 405.887 265.335C406.4 273.1 413.139 278.972 420.933 278.433C428.714 277.905 434.586 271.171 434.07 263.393C433.524 255.615 426.798 249.739 419.024 250.271Z" fill="#89593D"/>
<path d="M362.92 300.301L358.22 284.522C389.563 266.951 393.291 262.928 415.439 251.23L427.17 275.976C417.846 281.568 385.91 292.966 362.92 300.301Z" fill="#89593D"/>
<path d="M335.508 289.38C345.661 284.56 355.454 282.479 361.272 285.415C364.95 287.263 375.776 303.076 342.847 311.359C332.857 313.857 329.755 302.443 337.133 297.848C338.543 296.961 340.283 294.798 340.283 294.798C340.054 294.992 338.195 295.086 337.913 295.199L328.453 299.101C326.847 299.76 325.009 298.992 324.338 297.386C323.684 295.783 324.447 293.944 326.051 293.274L335.508 289.38Z" fill="#89593D"/>
<path d="M341.753 310.475L316.554 315.678C314.583 316.013 312.753 314.973 312.408 312.982C312.071 311.02 313.683 309.679 315.654 309.34L342.416 303.265C344.393 302.924 343.712 310.135 341.753 310.475Z" fill="#89593D"/>
<path d="M346.855 310.228L322.228 317.714C320.306 318.227 318.385 317.353 317.856 315.405C317.337 313.478 318.821 311.989 320.755 311.477L346.851 302.984C348.787 302.467 348.765 309.71 346.855 310.228ZM337.819 305.091L316.75 311.153C314.84 311.708 312.895 310.898 312.31 308.97C311.736 307.05 313.179 305.524 315.095 304.959L340.938 295.722C342.855 295.15 339.716 304.513 337.819 305.091Z" fill="#89593D"/>
<path d="M426.115 166.4C421.547 151.131 387.51 154.176 390.039 172.952C393.034 195.18 402.516 250.258 406.37 263.872L438.528 259.644C439.305 248.126 435.211 196.87 426.115 166.4Z" fill="#89593D"/>
<path d="M408.105 268.411C412.512 276.147 422.421 278.778 430.273 274.342C438.073 269.908 440.855 260.056 436.457 252.331C432.058 244.633 422.141 241.988 414.308 246.42C406.479 250.862 403.701 260.709 408.105 268.411Z" fill="#89593D"/>
<path d="M403.245 151.194C416.57 148.814 430.049 160.19 432.427 173.502L444.255 232.724C444.835 235.988 434.503 240.564 421.178 242.944C407.857 245.324 396.572 244.613 395.997 241.354L384.173 182.137C381.782 168.815 389.91 153.578 403.245 151.194Z" fill="#A1C0F7"/>
<path d="M337.815 143.317C337.857 142.519 338.099 141.749 338.5 141.022C344.439 140.428 351.517 140.304 359.987 140.756C368.552 141.212 375.842 142.025 382.096 143.135C382.476 143.971 382.683 144.831 382.637 145.706C382.326 151.531 372.044 155.718 359.663 155.058C347.287 154.399 337.504 149.142 337.815 143.317Z" fill="#89593D"/>
<path d="M346.365 144.29L376.27 145.883L377.707 118.96L347.802 117.367L346.365 144.29Z" fill="#89593D"/>
<path d="M377.207 128.305C372.444 131.899 366.39 133.928 359.865 133.609C355.173 133.373 350.841 131.936 347.145 129.65L347.801 117.368L377.705 118.961L377.207 128.305Z" fill="#794018"/>
<path d="M336.929 62.5884C336.929 62.5884 335.38 93.4067 334.875 103.685C334.179 117.524 345.25 129.33 359.612 130.048C373.975 130.76 386.171 120.128 386.862 106.283C387.391 96.011 388.93 65.1875 388.93 65.1875L336.929 62.5884Z" fill="#89593D"/>
<path d="M351.616 82.8828C351.616 82.8828 340.407 83.3367 339.691 86.5781C345.663 85.8312 351.649 85.4661 351.649 85.4661L351.616 82.8828Z" fill="#2E0602"/>
<path d="M356.476 118.855C357.766 119.229 358.985 119.213 360.118 118.812C362.544 117.945 363.634 115.614 363.68 115.517C363.852 115.137 363.683 114.688 363.316 114.518C362.932 114.348 362.483 114.514 362.302 114.883C362.297 114.912 361.417 116.751 359.596 117.389C358.443 117.796 357.124 117.636 355.68 116.931C355.303 116.754 354.849 116.9 354.669 117.273C354.484 117.651 354.638 118.101 355.009 118.279C355.509 118.534 355.995 118.727 356.476 118.855Z" fill="#4D2910"/>
<path d="M379.612 87.2509C379.87 92.4385 384.848 103.328 391.279 98.5208C397.848 93.6254 392.247 86.546 394.552 80.2741C395.882 76.635 399.737 74.8566 401.072 71.1176C403.442 64.5296 401.212 55.4457 396.959 50.007C393.935 46.1407 385.763 42.7869 381.039 43.1598C377.046 43.4955 371.02 47.2326 367.022 45.0739C362.346 42.5692 360.619 36.3878 355.525 34.2947C349.707 31.9009 345.137 37.8709 341.874 41.7837C338.643 45.6458 336.505 48.0735 331.331 46.9253C326.535 45.8591 321.98 45.9263 319.379 50.8377C316.854 55.5958 318.381 61.4184 323.256 63.8574C326.978 65.7295 331.596 65.2127 334.629 68.3928C337.711 71.6137 338.776 76.8635 343.893 77.5605C349.638 78.3673 355.07 73.1395 359.041 69.7222C360.661 68.3445 365.466 72.4584 366.347 73.378C369.09 76.2613 372.78 76.4149 376.151 78.3446C379.591 80.3066 379.42 83.5116 379.612 87.2509Z" fill="#2E0602"/>
<path d="M353.071 110.3C354.802 111.208 357.321 110.408 357.59 110.298C358.017 110.163 358.232 109.708 358.078 109.289C357.957 108.873 357.496 108.653 357.088 108.793C356.489 109.009 354.712 109.324 353.757 108.873C353.429 108.684 353.239 108.402 353.141 107.991C352.574 105.482 353.748 102.702 355.112 99.4843C355.975 97.4416 356.952 95.1379 357.583 92.6155C357.692 92.1874 357.424 91.7534 357.005 91.6547C356.581 91.5416 356.133 91.8038 356.034 92.2277C355.448 94.619 354.541 96.7785 353.657 98.8677C352.179 102.332 350.911 105.34 351.596 108.338C351.784 109.197 352.269 109.857 353.071 110.3Z" fill="#4D2910"/>
<path d="M367.429 94.462C367.436 95.9549 368.416 97.1707 369.613 97.1725C370.817 97.1555 371.788 95.9484 371.791 94.456C371.785 92.9488 370.795 91.7467 369.602 91.7499C368.395 91.7476 367.433 92.9601 367.429 94.462ZM342.862 93.1626C342.864 94.66 343.848 95.876 345.056 95.8641C346.254 95.8659 347.216 94.6487 347.215 93.1561C347.214 91.6539 346.252 90.4438 345.036 90.441C343.842 90.4537 342.871 91.6514 342.862 93.1626Z" fill="#282022"/>
<path d="M382.195 98.704C381.414 102.978 383.162 108.836 386.565 109.456C389.977 110.086 393.761 105.238 394.543 100.964C395.324 96.7091 393.193 92.733 389.786 92.108C386.374 91.4827 382.967 94.439 382.195 98.704Z" fill="#89593D"/>
<path d="M386.144 104.567C386.677 104.59 386.949 104.309 386.949 103.956C386.903 97.6639 391.466 95.6801 391.514 95.6636C391.822 95.5322 391.97 95.1728 391.844 94.8513C391.704 94.5291 391.339 94.3906 391.022 94.5167C390.817 94.5964 385.635 96.8476 385.703 103.98C385.712 104.243 385.89 104.486 386.144 104.567Z" fill="#4D2910"/>
<path d="M375.201 87.3653C374.243 84.2712 363.417 83.238 363.417 83.238L363.292 85.8114C363.292 85.8114 369.251 86.3927 375.201 87.3653Z" fill="#2E0602"/>
<path d="M359.572 156.822C346.025 156.1 335.689 150.123 336.057 143.223C336.112 142.187 336.416 141.154 336.965 140.167C337.44 139.306 338.52 139.005 339.368 139.475C340.216 139.949 340.522 141.02 340.056 141.872C339.766 142.391 339.61 142.912 339.583 143.411C339.361 147.567 347.593 152.646 359.76 153.294C371.931 153.942 380.653 149.767 380.874 145.611C380.903 145.069 380.772 144.495 380.49 143.874C380.392 143.663 380.337 143.434 380.328 143.201C380.32 142.969 380.357 142.737 380.438 142.518C380.52 142.3 380.643 142.1 380.802 141.93C380.961 141.76 381.152 141.623 381.364 141.527C382.23 141.129 383.284 141.505 383.709 142.396C384.23 143.539 384.465 144.682 384.405 145.799C384.037 152.699 373.123 157.544 359.572 156.822Z" fill="#A1C0F7"/>
<path d="M276.028 144.951L274.893 174.093C275.021 176.537 286.523 173.721 285.852 161.606C285.852 161.606 284.176 148.742 283.695 143.094C283.486 140.67 276.622 138.473 276.028 144.951Z" fill="#89593D"/>
<path d="M282.92 174.031C283.582 177.154 281.899 180.155 279.172 180.732L260.072 184.771C257.329 185.351 254.585 183.287 253.924 180.163L244.347 134.943C243.686 131.82 245.357 128.816 248.099 128.236L267.2 124.196C269.927 123.619 272.683 125.687 273.344 128.811L282.92 174.031Z" fill="#5E6F6B"/>
<path d="M284.499 174.743C285.161 177.867 283.478 180.868 280.746 181.445L261.64 185.486C258.903 186.065 256.153 184.002 255.492 180.878L245.916 135.658C245.254 132.534 246.932 129.54 249.67 128.961L268.776 124.92C271.508 124.342 274.261 126.399 274.923 129.523L284.499 174.743Z" fill="#3A4243"/>
<path d="M260.474 183.674C258.937 183.999 257.309 182.728 256.921 180.894L247.217 135.071C246.827 133.231 247.8 131.405 249.336 131.08L269.936 126.723C271.494 126.394 273.096 127.643 273.492 129.514L283.196 175.337C283.591 177.203 282.632 178.988 281.074 179.318L260.474 183.674Z" fill="white"/>
<ellipse rx="11.9636" ry="12.0777" transform="matrix(0.979366 -0.202101 0.202351 0.979312 264.995 154.33)" fill="url(#paint0_linear_6750_27946)"/>
<path d="M266.837 162.843C271.572 161.866 274.619 157.237 273.641 152.504C272.663 147.771 268.031 144.726 263.295 145.703C258.56 146.68 255.513 151.309 256.491 156.042C257.469 160.775 262.101 163.82 266.837 162.843Z" fill="#8549FF"/>
<path d="M260.408 148.958C261.062 148.823 261.744 148.953 262.302 149.32C262.86 149.687 263.249 150.261 263.385 150.914L265.037 158.913C264.383 159.048 263.702 158.918 263.144 158.551C262.586 158.184 262.196 157.611 262.061 156.957L260.408 148.958Z" fill="white"/>
<path d="M264.912 156.323L268.048 155.676C268.714 155.539 269.407 155.671 269.975 156.045C270.543 156.418 270.94 157.002 271.077 157.667L267.941 158.314C267.275 158.452 266.582 158.319 266.014 157.946C265.446 157.572 265.05 156.989 264.912 156.323Z" fill="white"/>
<path d="M244.679 171.118C244.681 173.054 246.31 174.629 248.318 174.645L253.196 174.695C255.204 174.716 256.834 173.153 256.856 171.218C256.864 169.273 255.235 167.698 253.226 167.696L248.358 167.632C246.34 167.616 244.696 169.187 244.679 171.118Z" fill="#89593D"/>
<path d="M243.48 164.375C243.471 166.606 245.484 168.411 247.988 168.43L255.715 168.58C258.214 168.603 260.262 166.81 260.275 164.598C260.293 162.372 258.261 160.571 255.761 160.557L248.026 160.388C245.531 160.374 243.498 162.164 243.48 164.375Z" fill="#89593D"/>
<path d="M243.81 157.309C243.796 159.535 245.823 161.346 248.314 161.35L254.669 161.187C257.173 161.211 259.201 159.412 259.225 157.186C259.213 154.978 257.211 153.168 254.716 153.155L248.365 153.317C245.87 153.313 243.823 155.097 243.81 157.309Z" fill="#89593D"/>
<path d="M244.683 150.991C244.674 153.213 246.215 155.011 248.128 155.018L251.44 154.999C253.339 155.014 254.918 153.229 254.931 151.017C254.944 148.8 253.395 146.982 251.492 146.967L248.165 146.99C246.262 146.969 244.692 148.764 244.683 150.991ZM418.44 244.453C409.809 246.659 404.651 255.511 406.872 264.242C409.075 272.943 417.85 278.217 426.471 276.02C435.063 273.803 440.231 264.951 438.029 256.231C435.803 247.505 427.027 242.245 418.44 244.453Z" fill="#89593D"/>
</g>
<defs>
<filter id="filter0_d_6750_27946" x="5.6909" y="1.51963" width="253.57" height="213.365" filterUnits="userSpaceOnUse" color-interpolation-filters="sRGB">
<feFlood flood-opacity="0" result="BackgroundImageFix"/>
<feColorMatrix in="SourceAlpha" type="matrix" values="0 0 0 0 0 0 0 0 0 0 0 0 0 0 0 0 0 0 127 0" result="hardAlpha"/>
<feOffset dx="4.02465" dy="6.03698"/>
<feGaussianBlur stdDeviation="13.2665"/>
<feColorMatrix type="matrix" values="0 0 0 0 0.435117 0 0 0 0 0.623014 0 0 0 0 0.522802 0 0 0 0.16 0"/>
<feBlend mode="normal" in2="BackgroundImageFix" result="effect1_dropShadow_6750_27946"/>
<feBlend mode="normal" in="SourceGraphic" in2="effect1_dropShadow_6750_27946" result="shape"/>
</filter>
<linearGradient id="paint0_linear_6750_27946" x1="23.9272" y1="24.1555" x2="-1.12165" y2="22.9302" gradientUnits="userSpaceOnUse">
<stop stop-color="#CDB8FF"/>
<stop offset="1" stop-color="#E6DBFF"/>
</linearGradient>
</defs>
</svg>
